<?xml version="1.0" encoding="UTF-8" standalone="no"?>
<svg
   xmlns:dc="http://purl.org/dc/elements/1.1/"
   xmlns:cc="http://creativecommons.org/ns#"
   xmlns:rdf="http://www.w3.org/1999/02/22-rdf-syntax-ns#"
   xmlns:svg="http://www.w3.org/2000/svg"
   xmlns="http://www.w3.org/2000/svg"
   viewBox="0 0 600 600"
   height="600"
   width="600"
   xml:space="preserve"
   id="svg2"
   version="1.1"><metadata
     id="metadata8"><rdf:RDF><cc:Work
         rdf:about=""><dc:format>image/svg+xml</dc:format><dc:type
           rdf:resource="http://purl.org/dc/dcmitype/StillImage" /></cc:Work></rdf:RDF></metadata><defs
     id="defs6" /><g
     transform="matrix(1.3333333,0,0,-1.3333333,0,600)"
     id="g10"><g
       transform="scale(0.1)"
       id="g12"><path
         id="path14"
         style="fill:#ffffff;fill-opacity:1;fill-rule:nonzero;stroke:none"
         d="M 4500,0 H 0 V 4500 H 4500 V 0" /><path
         id="path16"
         style="fill:#a9f3fe;fill-opacity:1;fill-rule:nonzero;stroke:none"
         d="m 3554.56,2031.54 c -16.02,-200.92 -47.19,-399.59 -93.31,-583.85 -43.77,-174.88 -100.99,-336.61 -171.34,-474.651 -6.62,-12.91 -13.35,-25.73 -20.29,-38.219 -107.39,-196.531 -243.51,-339.261 -407.81,-394.25 -7.69,-2.558 -15.48,-4.922 -23.27,-7.148 -8.54,-2.352 -17.08,-4.59 -25.74,-6.41 -436.32,-100.032 -1003.19,321.879 -1431.82,852.028 -17.08,21.15 -33.95,42.39 -50.5,63.85 -48.46,62.34 -94.8,125.86 -138.68,190.13 -10.25,14.95 -20.39,29.89 -30.32,44.94 -39.07,58.72 -76.01,117.86 -110.49,176.9 -51.455,87.85 -97.47,175.4 -137.185,261.14 -42.379,91.59 -77.5,181.06 -104.086,266.35 -35.125,113.27 -55.09,219.18 -57.117,313.34 -10.887,523.11 490.438,1047.82 954.298,1200.59 418.39,137.83 1174.34,181.49 1569.34,-320.27 137.72,-174.87 226.01,-461.73 266.14,-791.5 28.94,-237.33 32.88,-496.96 12.18,-752.97" /><path
         id="path18"
         style="fill:#88edff;fill-opacity:1;fill-rule:nonzero;stroke:none"
         d="m 3554.56,2031.54 c -16.02,-200.92 -47.19,-399.59 -93.31,-583.85 -43.77,-174.88 -100.99,-336.61 -171.34,-474.651 -6.62,-12.91 -13.35,-25.73 -20.29,-38.219 -107.39,-196.531 -243.51,-339.261 -407.81,-394.25 -7.69,-2.558 -15.48,-4.922 -23.27,-7.148 -8.54,-2.352 -17.08,-4.59 -25.74,-6.41 -436.32,-100.032 -1003.19,321.879 -1431.82,852.028 -17.08,21.15 -33.95,42.39 -50.5,63.85 -48.46,62.34 -94.8,125.86 -138.68,190.13 -10.25,14.95 -20.39,29.89 -30.32,44.94 -39.07,58.72 -76.01,117.86 -110.49,176.9 -51.455,87.85 -97.47,175.4 -137.185,261.14 -42.379,91.59 -77.5,181.06 -104.086,266.35 585.031,268.71 1346.951,444.54 2019.211,459.06 255.25,5.55 497.49,-12.17 712.39,-56.69 0.32,-0.11 0.75,-0.11 1.06,-0.21 28.94,-237.33 32.88,-496.96 12.18,-752.97" /><path
         id="path20"
         style="fill:#6fe7ff;fill-opacity:1;fill-rule:nonzero;stroke:none"
         d="m 1050.99,1854.86 c -51.455,87.85 -97.47,175.4 -137.185,261.14 624.645,150.95 1403.535,177.53 2064.155,63.73 206.47,-35.44 401.41,-84.77 576.6,-148.19 -16.02,-200.92 -47.19,-399.59 -93.31,-583.85 -43.77,-174.88 -100.99,-336.61 -171.34,-474.651 -6.62,-12.91 -13.35,-25.73 -20.29,-38.219 -107.39,-196.531 -243.51,-339.261 -407.81,-394.25 -7.69,-2.558 -15.48,-4.922 -23.27,-7.148 -8.54,-2.352 -17.08,-4.59 -25.74,-6.41 -436.32,-100.032 -1003.19,321.879 -1431.82,852.028 -17.08,21.15 -33.95,42.39 -50.5,63.85 -48.46,62.34 -94.8,125.86 -138.68,190.13 -10.25,14.95 -20.39,29.89 -30.32,44.94 -39.07,58.72 -76.01,117.86 -110.49,176.9" /><path
         id="path22"
         style="fill:#bf1f17;fill-opacity:1;fill-rule:nonzero;stroke:none"
         d="M 3461.25,1447.69 C 3345.96,986.711 3137.25,617.012 2838.54,533.422 2274.53,375.52 1478.23,1124.64 1050.99,1854.86 c 634.67,40.57 1695.09,-59.24 2410.26,-407.17" /><path
         id="path24"
         style="fill:#ffffff;fill-opacity:1;fill-rule:nonzero;stroke:none"
         d="m 3289.91,973.039 c -6.62,-12.91 -13.35,-25.73 -20.29,-38.219 -656.03,453.72 -1531.54,652.4 -2077.82,698.2 -10.25,14.95 -20.39,29.89 -30.32,44.94 302.45,-22.95 733.21,-94.9 1178.07,-243.51 403.44,-134.84 713.35,-297.32 950.36,-461.411" /><path
         id="path26"
         style="fill:#ffffff;fill-opacity:1;fill-rule:nonzero;stroke:none"
         d="m 2861.81,540.57 c -7.69,-2.558 -15.48,-4.922 -23.27,-7.148 -8.54,-2.352 -17.08,-4.59 -25.74,-6.41 -438.45,396.82 -989.85,683.138 -1431.82,852.028 -17.08,21.15 -33.95,42.39 -50.5,63.85 256.22,-93.53 561.22,-230.18 864.73,-411.02 205.51,-122.46 444.33,-286.319 666.6,-491.3" /><path
         id="path28"
         style="fill:#e1f7f9;fill-opacity:1;fill-rule:nonzero;stroke:none"
         d="m 2355,3005.39 c 0,-29.22 -10.23,-55.83 -27.18,-76.19 -1.47,-1.82 -3.07,-3.64 -4.67,-5.34 -20.12,-21.27 -47.88,-34.46 -78.58,-34.46 -60.84,0 -110.31,51.97 -110.31,115.99 0,3.53 0.12,7.17 0.47,10.58 1.13,12.97 8.68,15.9 13.56,27.27 2.74,6.37 4.07,16.9 7.81,22.59 2.5,3.86 2.62,12.46 5.46,15.98 20.24,24.23 49.92,39.58 83.01,39.58 60.97,0 110.43,-51.98 110.43,-116" /><path
         id="path30"
         style="fill:#faaf7b;fill-opacity:1;fill-rule:nonzero;stroke:none"
         d="m 2388.81,3032.54 c 30.38,-52.95 66.01,-116.79 103.39,-45.24 85.43,163.55 133.54,315.2 148.9,369.6 26.74,94.85 -44.75,110.31 -93.95,8.67 -82.67,-170.85 -185.68,-285.36 -158.34,-333.03" /><path
         id="path32"
         style="fill:#faaf7b;fill-opacity:1;fill-rule:nonzero;stroke:none"
         d="m 2587.84,3352.97 c 138.21,-28.67 -3.95,310.04 -50.63,398 -18.51,34.84 -12.02,85.34 -26.72,83.95 -16.25,-1.54 -59.42,-36.95 -43.2,-73.85 7.94,-18.12 23.78,-26.52 33.35,-70.01 26.14,-118.88 4.52,-320.94 87.2,-338.09" /><path
         id="path34"
         style="fill:#faaf7b;fill-opacity:1;fill-rule:nonzero;stroke:none"
         d="m 2567.36,3891.7 c -3.73,37.14 -23.71,76.85 -29.47,75.92 -5.2,-0.82 -5.24,-4.39 -5.05,-11.6 -1.17,2.61 -2.45,5.13 -4.06,7.44 -17.62,25.49 -22.49,42.9 -25.82,43.07 -3.19,0.15 -5.33,-1.34 -6.45,-3.21 -3.39,5.72 -7.57,11 -12.41,4.65 -3.97,-5.2 -3.9,-24.17 2.35,-53.93 4.65,-22.18 22.16,-44.62 15.01,-69.35 -0.34,18.36 -13.88,42.61 -22.66,58.59 -7.29,13.23 -6.17,29.7 -11.98,26.4 -19.68,-23 26.6,-86.15 11.53,-140.32 -7.72,-10.29 -18.11,6.32 -28.58,15.14 -9.03,7.61 -40.11,14.85 -32.72,0.31 2.26,-4.42 24.8,-20.08 27.95,-23.35 14.14,-14.7 15.88,-47.85 19.64,-63.53 8.9,-37.09 67.23,-20.7 72.57,-18.33 -8.67,31.44 37.98,74.49 30.15,152.1" /><path
         id="path36"
         style="fill:#f8ffff;fill-opacity:1;fill-rule:nonzero;stroke:none"
         d="m 2646.81,3340.63 c -23.09,-89.49 -122.14,-303.85 -142.39,-377.66 -3.18,-11.48 -4.43,-19.55 -3.18,-23.19 -19.21,-15.01 -139.87,136.35 -139.87,136.35 l 43.32,48.44 c 0,0 100.63,182.18 118.38,212.76 0,16.96 0,16.96 0,16.96 0,0 4.1,8.07 10.92,19.78 -1.81,11.49 -7.51,44.24 -12.96,84.04 -7.17,53 -14,118.38 -10.13,162.85 23.09,-6.82 67.44,4.32 73.36,26.72 49.7,-105.98 89.04,-203.67 62.55,-307.05" /><path
         id="path38"
         style="fill:#e1f7f9;fill-opacity:1;fill-rule:nonzero;stroke:none"
         d="m 2465.98,2991.96 c -12.6,44.95 36.69,128.61 61.98,160.93 -24.45,-16.95 -51.85,-25.02 -81.08,-23.43 54.47,59.48 92.91,138.85 129.18,212.54 -13.76,-8.41 -26.15,-9.21 -37.64,-15.92 17.3,22.52 33,44.47 52.89,63.69 -31.39,16.37 -54.48,40.02 -70.28,68.34 5.45,-39.8 11.15,-72.55 12.96,-84.04 -6.82,-11.71 -10.92,-19.78 -10.92,-19.78 0,0 0,0 0,-16.96 -17.75,-30.58 -118.38,-212.76 -118.38,-212.76 l -43.32,-48.44 c 0,0 50.85,-63.79 91.79,-104.43 4.22,6.76 8.49,13.51 12.82,20.26" /><path
         id="path40"
         style="fill:#faaf7b;fill-opacity:1;fill-rule:nonzero;stroke:none"
         d="m 2172.87,3059.05 c 1.25,-8.06 -31.31,-24.57 -61.48,-40.05 47.02,-58.03 88.47,-120.26 127.56,-184.05 11.7,1.17 23.55,2.6 35.62,4.6 58.14,9.66 102.73,27.8 136.83,50.11 -1.9,8.24 -3.7,16.5 -5.67,24.73 -11.63,48.82 -28.62,97.96 -39.3,147.71 -31.77,4.02 -64.29,8.28 -65.8,16.53 -1.42,7.54 -7.45,35.86 -12.4,59.07 -3.84,17.95 -7.08,32.86 -7.08,32.86 l -122.19,-20.29 c 0,0 6.68,-43.44 10.76,-70.89 1.53,-9.56 2.72,-17.13 3.15,-20.33" /><path
         id="path42"
         style="fill:#282f39;fill-opacity:1;fill-rule:nonzero;stroke:none"
         d="m 2593.53,701.039 c 0,0 20.67,-120.32 17.71,-164.039 2.96,-7.078 6.5,-4.121 6.5,-4.121 l 15.36,114.41 -39.57,53.75" /><path
         id="path44"
         style="fill:#282f39;fill-opacity:1;fill-rule:nonzero;stroke:none"
         d="m 2734.01,571.32 c 39.51,-21.961 59.15,-55.808 52.6,-77.179 -5.1,-16.602 -25.97,-25.27 -65.85,-15.7 -65.95,15.829 -56.86,24.649 -64.43,75.829 -7.6,51.171 -34.12,89.082 -58.77,126.992 -24.63,37.898 19.08,77.957 42.7,90.148 23.64,12.192 93.75,-200.09 93.75,-200.09" /><path
         id="path46"
         style="fill:#6b2013;fill-opacity:1;fill-rule:nonzero;stroke:none"
         d="m 2038.53,3387.32 223.92,55.19 c -19.38,78.82 -39.92,146.37 -49.44,168.76 -26.62,62.61 -102.4,90.3 -169.23,61.88 -66.85,-28.43 -99.46,-102.22 -72.84,-164.81 8.03,-18.89 33.75,-65.66 67.59,-121.02" /><path
         id="path48"
         style="fill:#7a2c1c;fill-opacity:1;fill-rule:nonzero;stroke:none"
         d="m 1961.58,3381.23 c 28.33,-114.97 143.42,-185.43 257.05,-157.43 113.64,28 182.8,143.88 154.45,258.84 -28.31,114.96 -156.6,168.99 -270.23,140.99 -46.77,-11.53 -79.72,-41.64 -81.45,-97.82 -64,-15.76 -76.49,-76.93 -59.82,-144.58" /><path
         id="path50"
         style="fill:#f79863;fill-opacity:1;fill-rule:nonzero;stroke:none"
         d="m 2337.82,3378.07 c 29.61,48.69 49.66,-8.92 46.21,-40.17 -5.68,-51.51 -41.19,-69.95 -88.51,-73.77 l 42.3,113.94" /><path
         id="path52"
         style="fill:#f79863;fill-opacity:1;fill-rule:nonzero;stroke:none"
         d="m 2043.11,3305.44 c -48.84,29.36 -39.82,-30.97 -22.25,-57.04 28.94,-42.98 68.97,-42.8 112.67,-24.19 l -90.42,81.23" /><path
         id="path54"
         style="fill:#f79863;fill-opacity:1;fill-rule:nonzero;stroke:none"
         d="m 2288.23,3137.7 c -19.42,-56.16 -59.67,-91.4 -92.23,-81.08 -8.52,2.59 -19.1,10.65 -25.89,21.02 l -0.39,1.74 c -4.08,27.45 -10.76,70.89 -10.76,70.89 l 122.19,20.29 c 0,0 3.24,-14.91 7.08,-32.86" /><path
         id="path56"
         style="fill:#faaf7b;fill-opacity:1;fill-rule:nonzero;stroke:none"
         d="m 2349.46,3347.89 c 27.04,-109.78 -51.91,-223.59 -102.33,-236.02 -50.44,-12.43 -173.27,51.66 -200.32,161.43 -27.04,109.73 -42.78,219.67 97.86,254.33 140.58,34.64 177.75,-70.01 204.79,-179.74" /><path
         id="path58"
         style="fill:#8e3c23;fill-opacity:1;fill-rule:nonzero;stroke:none"
         d="m 2058.8,3463.52 c -7.68,67.85 34.38,118.1 92.96,119.84 82.06,2.48 274.03,-57.27 193.31,-217.04 -39.06,142 -268.82,42.4 -278.69,90.99 l -7.58,6.21" /><path
         id="path60"
         style="fill:#8e3c23;fill-opacity:1;fill-rule:nonzero;stroke:none"
         d="m 2062.13,3486.7 c -56.65,0.85 -108.99,-80.74 -87.64,-131.73 11.97,-28.58 38.96,-43.98 68.14,-63.25 -1.98,26.87 -12.86,75.9 18.81,127.51 12.77,20.83 4.12,36.76 2.5,60.14 l -1.81,7.33" /><path
         id="path62"
         style="fill:#f79863;fill-opacity:1;fill-rule:nonzero;stroke:none"
         d="m 2234.84,3251.18 c 1.51,-6.12 -6.58,-13.35 -18.08,-16.19 -11.48,-2.83 -22,-0.18 -23.52,5.94 -1.49,6.1 8.26,6.57 19.74,9.4 11.49,2.83 20.36,6.96 21.86,0.85" /><path
         id="path64"
         style="fill:#a0432d;fill-opacity:1;fill-rule:nonzero;stroke:none"
         d="m 2107.46,3558.73 c 29.42,-26.92 25.88,-52.4 15.08,-84.26 55.04,2.74 147.98,-4.28 183.03,-32.24 0.06,52.92 -76.96,146.36 -198.11,116.5" /><path
         id="path66"
         style="fill:#a0432d;fill-opacity:1;fill-rule:nonzero;stroke:none"
         d="m 2006.64,3451.22 c 6.61,-20.6 19.98,-24.64 38.13,-26.53 -13.8,-26.54 -31.42,-73.96 -25.56,-97.57 -26.11,11.98 -54.75,71.13 -12.57,124.1" /><path
         id="path68"
         style="fill:#faaf7b;fill-opacity:1;fill-rule:nonzero;stroke:none"
         d="m 2219.94,3224.44 c -63.71,-15.7 -118.46,28.19 -106.86,-18.92 11.61,-47.09 87.13,-90.06 131.06,-79.24 43.93,10.82 90.83,83.97 79.24,131.06 -11.62,47.11 -39.73,-17.2 -103.44,-32.9" /><path
         id="path70"
         style="fill:#d81b60;fill-opacity:1;fill-rule:nonzero;stroke:none"
         d="m 2286.6,3233.66 c 0.18,-2.21 0.27,-4.83 0.4,-7.83 -0.07,-1.42 -0.12,-3.11 -0.2,-4.79 -0.06,-1.69 -0.16,-3.36 -0.33,-5.21 -0.49,-5.04 -1.27,-10.57 -2.93,-16.17 -0.07,-0.16 -0.03,-0.26 -0.09,-0.42 -0.05,-0.26 -0.12,-0.66 -0.34,-1.15 -5.2,-18.44 -19.07,-38.97 -44.19,-45.25 -44.51,-10.5 -74.04,31.14 -80.65,47.64 0.37,0 1.66,0.28 3.77,0.72 11.24,1.39 41.19,9.68 58.79,13.81 19.71,4.69 52.46,13.18 62.71,17.47 1.64,0.64 2.75,1.01 3.06,1.18" /><path
         id="path72"
         style="fill:#44060f;fill-opacity:1;fill-rule:nonzero;stroke:none"
         d="m 2281.4,3229.62 c -0.06,-3.18 -0.38,-6.49 -0.85,-9.85 0,0 0.1,-0.2 0,-0.28 -2.75,-23.5 -16.55,-52.24 -45.67,-59.3 -26.77,-6.33 -48.77,8.49 -62,25.7 -3.24,4.16 -6.08,8.5 -8.55,12.75 0.76,-1.79 31.48,-4.6 60.51,3.32 30.84,7.73 56.78,26.14 56.56,27.66" /><path
         id="path74"
         style="fill:#750414;fill-opacity:1;fill-rule:nonzero;stroke:none"
         d="m 2250.17,3166.62 c 13.79,7.86 21.52,18.95 28.83,30.36 -2.3,1.04 -4.7,1.99 -7.26,2.72 -10.87,2.67 -23.75,2.34 -37.02,-1.31 -17.61,-4.91 -32.01,-14.43 -38.88,-26.33 -1.56,-2.59 -2.54,-5.31 -3.17,-8.06 15.27,-9.61 41.63,-6.73 57.5,2.62" /><path
         id="path76"
         style="fill:#f4f4f4;fill-opacity:1;fill-rule:nonzero;stroke:none"
         d="m 2281.4,3229.62 c 0.07,-3.19 -6.03,-16.36 -11.84,-22.33 -9.46,-10.05 -24.81,-19.3 -43.72,-23.58 -20.5,-5.19 -52.01,1.08 -61.51,14.93 0.96,-1.67 31.48,-4.6 60.51,3.32 30.84,7.73 56.78,26.14 56.56,27.66" /><path
         id="path78"
         style="fill:#eaedef;fill-opacity:1;fill-rule:nonzero;stroke:none"
         d="m 2224.84,3201.96 c -29.03,-7.92 -59.55,-4.99 -60.51,-3.32 5.4,-7.43 17.15,-13.01 30.36,-15.31 12.18,10.09 31.63,15.66 45.46,19.67 9.97,2.75 19.41,4.17 28.17,3.13 0.4,0.42 0.87,0.77 1.24,1.16 5.81,5.96 11.91,19.16 11.84,22.33 0.22,-1.52 -25.72,-19.93 -56.56,-27.66" /><path
         id="path80"
         style="fill:#ec407a;fill-opacity:1;fill-rule:nonzero;stroke:none"
         d="m 2286.6,3233.66 c 0.18,-2.21 0.27,-4.83 0.4,-7.83 -0.07,-1.42 -0.12,-3.11 -0.2,-4.79 -0.06,-1.69 -0.16,-3.36 -0.33,-5.21 -0.74,-4.54 -1.54,-9.7 -2.93,-16.17 -0.07,-0.16 -0.03,-0.26 -0.09,-0.42 -0.05,-0.26 -0.12,-0.66 -0.34,-1.15 -5.2,-18.44 -19.07,-38.97 -44.19,-45.25 -44.51,-10.5 -74.04,31.14 -80.65,47.64 0.37,0 1.66,0.28 3.77,0.72 0.71,-0.68 1.51,-1.58 2.23,-2.58 5.18,-6.95 11.41,-13.41 18.89,-18.63 3.74,-2.65 7.99,-5.44 12.62,-7.95 5.01,-2.49 10.29,-4.74 15.99,-6.17 4.1,-1.03 8.36,-1.62 12.53,-1.53 11.58,-0.01 21.73,5.3 29.69,12.47 3.82,3.38 7.15,7.14 10.08,10.88 2.89,3.84 5.54,7.78 7.63,11.96 4.75,8.7 7.84,18.01 9.25,27.17 0.37,2.08 1.47,4.03 2.59,5.66 1.64,0.64 2.75,1.01 3.06,1.18" /><path
         id="path82"
         style="fill:#d81b60;fill-opacity:1;fill-rule:nonzero;stroke:none"
         d="m 2281.65,3229.74 c 1.66,1.28 3.32,2.58 4.95,3.92 -3.08,-1.19 -6.25,-2.29 -9.37,-3.34 1.47,-0.2 2.93,-0.4 4.42,-0.58" /><path
         id="path84"
         style="fill:#d81b60;fill-opacity:1;fill-rule:nonzero;stroke:none"
         d="m 2158.27,3200.48 c 2.03,0.35 4.03,0.72 6.05,1.11 0.97,-1.2 1.96,-2.41 2.96,-3.59 -3.03,0.76 -6.04,1.61 -9.01,2.48" /><path
         id="path86"
         style="fill:#faaf7b;fill-opacity:1;fill-rule:nonzero;stroke:none"
         d="m 2335.46,3378.57 c 7.4,-30.08 -3.51,-61.54 -27,-87.65 -21.79,-24.2 -66.23,4.28 -105.06,-5.29 -39.09,-9.63 -65.46,-55.41 -96.1,-43.91 -32.63,12.24 -56.67,34.94 -64.03,64.85 -14.29,57.99 39.52,121.1 120.22,140.98 80.69,19.89 157.67,-10.99 171.97,-68.98" /><path
         id="path88"
         style="fill:#501f23;fill-opacity:1;fill-rule:nonzero;stroke:none"
         d="m 2306.41,3399.31 c -9.84,14.9 -22.91,26.91 -40.09,31.87 -16.97,4.86 -34.14,-2.24 -51.31,-1.12 -11.37,0.76 -11.92,-17.57 -0.53,-18.29 15.16,-0.96 29.92,4.13 45.08,2.61 16.47,-1.63 32.11,-8.1 45.47,-17.9 1.46,-1.1 1.99,1.9 1.38,2.83 v 0" /><path
         id="path90"
         style="fill:#501f23;fill-opacity:1;fill-rule:nonzero;stroke:none"
         d="m 2302.89,3366.29 c -33.75,8.93 -65.5,-26.95 -68.58,-64.59 l 4.38,-1.29 c 0.38,10.84 5.71,22.56 13.68,32.06 5,5.95 10.99,11.01 17.4,14.47 7.54,4.04 14.99,6 21.59,6.3 16.47,0.9 28.61,-8.32 30.05,-21.44 5.59,13.05 1.54,29.23 -18.52,34.49" /><path
         id="path92"
         style="fill:#501f23;fill-opacity:1;fill-rule:nonzero;stroke:none"
         d="m 2170.19,3285.72 -3.31,-3.02 c -5.21,9.45 -15.27,17.57 -26.72,22.46 -7.1,3.1 -14.71,4.9 -21.9,5.09 -8.67,0.18 -16.12,-1.43 -22.13,-4.08 -15.16,-6.83 -21.78,-20.57 -17.29,-32.83 -10.82,9.33 -14.34,25.5 1.07,39.21 26.1,23.16 70.56,5.4 90.28,-26.83" /><path
         id="path94"
         style="fill:#501f23;fill-opacity:1;fill-rule:nonzero;stroke:none"
         d="m 2058.54,3337.67 c 1.36,17.8 6.91,34.71 19.5,47.35 12.49,12.54 30.92,14.66 45.36,24.01 9.58,6.19 18.94,-9.53 9.34,-15.7 -12.77,-8.24 -28.12,-10.99 -40.61,-19.7 -13.57,-9.42 -24.11,-22.71 -30.99,-37.78 -0.77,-1.64 -2.68,0.69 -2.6,1.82 v 0" /><path
         id="path96"
         style="fill:#f79863;fill-opacity:1;fill-rule:nonzero;stroke:none"
         d="m 2469.25,2405.51 c 15.18,-4.95 73.65,-252.13 13.97,-425.52 -97.24,-282.52 -249.22,-641.47 -310.37,-597.38 -38.69,10.8 -56.26,34.18 -37.62,69 32.16,60.06 41.6,206.32 36.72,269.11 -11.42,147.01 -2.25,256.14 14.55,347.48 17.8,96.82 59.51,179.38 128.89,206.43 114.4,44.64 44.98,119.79 153.86,130.88" /><path
         id="path98"
         style="fill:#faaf7b;fill-opacity:1;fill-rule:nonzero;stroke:none"
         d="m 2472.77,2959.57 c -3.75,1.17 -7.49,2.61 -11.07,4.57 -15,8.15 -27.42,19.95 -39.26,32.11 -4.73,4.87 -9.35,9.86 -14,14.82 l -363.67,-144.11 c 59.77,-88.17 164.19,-323.77 131.65,-387.71 -32.56,-63.94 -192.79,-275.25 -18.15,-347.53 174.64,-72.3 424.86,2.77 308.11,339.18 -34.65,117.33 38.9,240.28 66.72,352.3 18.82,75.91 -26.28,101.03 -60.33,136.37" /><path
         id="path100"
         style="fill:#faaf7b;fill-opacity:1;fill-rule:nonzero;stroke:none"
         d="m 2571.97,1456.07 c -34.46,-22.85 -63.45,-19.09 -75.85,22.64 -21.38,71.87 -120.88,191.62 -169.77,235.85 -114.41,103.48 -187.2,194.58 -241.77,278.05 -58,88.58 -89.05,185.6 -60.85,262.23 46.4,126.46 85.74,128.17 152.73,224.37 8.42,5.13 39.68,-43.78 81.53,-122.7 6.37,-12.16 13.08,-25.02 20.03,-38.55 7.16,-13.88 14.56,-28.55 22.05,-43.66 0,-0.12 0.13,-0.23 0.13,-0.34 85.39,-172.18 192.85,-417.48 250.17,-594.53 40.71,-125.09 56.28,-216.06 21.6,-223.36" /><path
         id="path102"
         style="fill:#faaf7b;fill-opacity:1;fill-rule:nonzero;stroke:none"
         d="m 2474.71,1550.62 c -50.05,-122.32 -69.5,-234.79 16.68,-437.76 86.19,-202.962 128.29,-288.508 147.75,-385.829 16.68,-47.261 94.82,-114.91 69.52,5.578 -122.03,581.061 -107.3,682.901 -121.65,788.851 -12.12,89.46 -112.3,29.16 -112.3,29.16" /><path
         id="path104"
         style="fill:#faaf7b;fill-opacity:1;fill-rule:nonzero;stroke:none"
         d="m 2640.26,771.41 c -33.75,-23.121 -9.54,-61.308 -3.31,-71.422 39.86,-64.769 55.76,-98.797 64.08,-136.988 8.29,-38.211 44.15,-21.422 42.48,-6.48 -1.67,14.949 1.39,45.468 -34.85,176.089 l -68.4,38.801" /><path
         id="path106"
         style="fill:#323a44;fill-opacity:1;fill-rule:nonzero;stroke:none"
         d="m 2715.92,495.398 c 7.8,-15.66 45.54,-13.179 56.1,-2.058 15.2,16.031 -2.62,40.301 -22.17,40.012 -13.56,-0.231 -41.81,-22.09 -33.93,-37.954" /><path
         id="path108"
         style="fill:#282f39;fill-opacity:1;fill-rule:nonzero;stroke:none"
         d="m 1643.46,1754.55 c 0,0 -95.28,39.59 -121.41,60.84 -6.16,0.6 -6.28,-3.6 -6.28,-3.6 l 71.35,-66.86 56.34,9.62" /><path
         id="path110"
         style="fill:#282f39;fill-opacity:1;fill-rule:nonzero;stroke:none"
         d="m 1475.01,1698.95 c -36.1,-23.25 -68.63,-24.94 -78.54,-10.32 -7.69,11.37 -1.51,32.37 26.94,61.28 47.03,47.79 47.56,36.48 84.33,20.71 36.78,-15.74 82.98,-14.98 120.89,-10.89 37.91,4.09 38.86,-49.35 33.37,-74.16 -5.51,-24.82 -186.99,13.38 -186.99,13.38" /><path
         id="path112"
         style="fill:#f79863;fill-opacity:1;fill-rule:nonzero;stroke:none"
         d="m 2262.9,1461.35 c -49.69,94.08 -110.26,158.59 -287.6,174.61 -177.33,15.99 -268.12,43.88 -340.88,69.64 -39.4,6.54 -126.22,-29.06 -35.45,-59.95 437.78,-149.09 465.04,-209.87 540.41,-243.58 63.67,-28.5 123.52,59.28 123.52,59.28" /><path
         id="path114"
         style="fill:#f79863;fill-opacity:1;fill-rule:nonzero;stroke:none"
         d="m 1662,1685.57 c 4.22,37.9 -33.63,34.29 -43.54,33.48 -63.52,-5.12 -101.29,1.26 -130.22,10.82 -28.95,9.56 -38.37,-27.34 -27.94,-32.41 10.43,-5.06 35.33,-25.61 138.67,-51.81 l 63.03,39.92" /><path
         id="path116"
         style="fill:#faaf7b;fill-opacity:1;fill-rule:nonzero;stroke:none"
         d="m 2111.06,2979.29 c 7.48,-60.58 20.69,-161.76 -52.16,-126.96 -166.5,79.53 -296.01,171.93 -340.95,206.22 -78.33,59.79 -30.43,115.09 69.93,63.31 168.68,-87 316.44,-88.04 323.18,-142.57" /><path
         id="path118"
         style="fill:#faaf7b;fill-opacity:1;fill-rule:nonzero;stroke:none"
         d="m 1762.9,3087.37 c -93.33,-105.9 -182.95,250.34 -198.41,348.72 -6.12,38.96 -41.62,75.47 -29.03,83.17 13.91,8.52 88.15,11.19 81.96,-28.63 -2.99,-19.15 -6.18,-40 12.27,-80.51 50.47,-110.78 189.04,-259.4 133.21,-322.75" /><path
         id="path120"
         style="fill:#faaf7b;fill-opacity:1;fill-rule:nonzero;stroke:none"
         d="m 1590.61,3447.6 c 4.58,3.59 46.4,47.41 17.82,72.67 -12.1,10.69 -40.55,27.76 -46.91,47.15 -1.41,4.3 -4.67,31.58 -7.52,35.63 -9.38,13.34 -17.55,-17.5 -15.06,-29.05 2.88,-13.38 12.67,-30.35 -0.04,-32.34 -54.91,12.08 -88.98,82.58 -118.53,75.97 -5.64,-3.59 9.44,-10.32 17.72,-22.94 9.99,-15.25 25.05,-38.6 41.11,-47.51 -25.21,5.29 -36.81,31.27 -54.21,45.78 -23.37,19.48 -40.06,28.44 -46.54,27.37 -7.88,-1.29 -5.17,-7.45 -1.71,-13.14 -2.17,-0.11 -4.5,-1.3 -5.86,-4.2 -1.41,-3.02 11.68,-15.49 25.94,-43 1.29,-2.49 2.91,-4.81 4.66,-7.07 -6.26,3.56 -9.43,5.18 -12.61,0.98 -3.53,-4.66 22.19,-40.92 53.24,-61.64 64.88,-43.3 124.78,-22.28 148.5,-44.66" /><path
         id="path122"
         style="fill:#282f39;fill-opacity:1;fill-rule:nonzero;stroke:none"
         d="m 2547.29,1755.04 c -4.42,-6.13 -10.11,-12.04 -16.6,-17.62 -24.1,-21.16 -61.07,-38.89 -102.35,-51.97 -110.18,-34.44 -251.19,-34.35 -261.78,30.94 57.32,136.34 -161.59,282.37 -161.7,469.88 0,121.35 85.96,187.07 168.64,289.98 l 151.48,30.15 c 0,0 122.58,20.23 141.35,-35.49 94.16,-196.95 54.82,-432.81 25.37,-535.62 -13.1,-45.71 26.6,-143.05 55.59,-180.25" /><path
         id="path124"
         style="fill:#282f39;fill-opacity:1;fill-rule:nonzero;stroke:none"
         d="m 2094.17,2088.62 c 27.92,-77.8 -53.89,-196.4 -114.55,-196.4 9.82,-89.96 129.5,-185.83 220.81,-215.02 15.56,12.39 37.21,115.92 37.89,132.17 6.35,154.89 13.65,309.71 20.94,464.55 l -165.09,-185.3" /><path
         id="path126"
         style="fill:#323a44;fill-opacity:1;fill-rule:nonzero;stroke:none"
         d="m 2530.69,1737.42 c -24.1,-21.16 -61.07,-38.89 -102.35,-51.97 -40.13,19.57 -76.98,51.17 -101.09,80.28 -95.85,115.55 -155.79,284.31 -172.96,432.39 -3.99,34.2 -15.74,114.26 28.65,127.56 119.2,35.79 287.71,-418.36 347.75,-588.26" /><path
         id="path128"
         style="fill:#f8ffff;fill-opacity:1;fill-rule:nonzero;stroke:none"
         d="m 2527.52,2766.69 c -34.12,-96.99 -68.47,-220.5 -55.28,-280.76 7.73,-16.61 -29.34,-26.73 -29.34,-26.73 0,0 -140.33,-12.39 -221.97,-2.74 -30.26,3.54 -52.55,10.02 -56.53,21.4 -14.66,41.95 2.74,55.48 2.74,55.48 l -8.88,15.13 c 0,0 -0.23,13.42 0.69,31.95 0.67,14.67 -49.13,155.01 -84.49,226.19 0,0 0,0 -0.11,0.12 -9.45,18.99 -17.87,33.09 -24.01,38.54 14.79,25.25 50.95,93.48 50.49,139.77 -0.11,11.71 -2.61,22.18 -8.42,30.02 4.32,1.37 8.99,2.95 13.66,4.78 3.75,1.47 7.61,3.07 11.36,4.66 3.07,1.37 6.26,2.73 9.23,4.21 17.38,7.96 31.6,15.8 31.6,15.8 -1.37,-24.91 62.77,-50.37 124.3,-86.31 15.92,-9.44 31.74,-19.45 46.17,-30.48 3.07,-2.16 6.03,-4.55 8.98,-6.93 -5.45,35.48 0.12,61.4 -5.8,97.12 -2.51,15.12 -7.16,32.06 -15.57,52.19 7.38,0.91 13.87,1.93 19.78,2.84 12.29,2.05 21.6,3.65 29.1,2.96 5.46,-0.46 10.02,-2.16 14.23,-5.8 12.85,-11.25 112.13,-112.58 141.7,-136.8 29.56,-24.34 40.35,-69.6 6.37,-166.61" /><path
         id="path130"
         style="fill:#f8ffff;fill-opacity:1;fill-rule:nonzero;stroke:none"
         d="m 2110.85,3019.16 c 0,0 -0.47,-12.52 -1.49,-31.62 -3.06,-60.95 -11.94,-188.55 -30.47,-187.53 -0.46,1.71 -2.05,3.98 -4.43,6.6 0,0 0,0 -0.11,0.12 -35.83,39.34 -268.73,172.96 -344.7,238.01 -81.08,69.37 -121.11,166.94 -141.23,282.37 13.53,-11.49 41.73,-5.01 61.07,7.05 6.02,3.76 11.25,8.07 14.78,12.62 50.26,-60.04 126.46,-185.81 138.51,-210.04 12.27,-5.57 20.24,-9.89 20.24,-9.89 0,0 0,0 9.78,-13.88 32.07,-14.79 245.17,-89.5 245.17,-89.5 l 3.19,-0.45 24.91,-3.18 4.78,-0.68" /><path
         id="path132"
         style="fill:#e1f7f9;fill-opacity:1;fill-rule:nonzero;stroke:none"
         d="m 2365.22,3075.9 c -7.26,-17.74 -18.98,-37.76 -33.31,-57.99 -2.51,15.12 -7.16,32.06 -15.57,52.19 22.85,2.73 37.75,6.82 48.88,5.8" /><path
         id="path134"
         style="fill:#e1f7f9;fill-opacity:1;fill-rule:nonzero;stroke:none"
         d="m 2432.46,2764.42 c -32.29,-10.8 -84.29,-52.08 -84.29,-52.08 0,0 22.75,45.37 41.85,63 -76.64,-31.5 -161.93,-83.13 -229.38,-11.6 -23.63,25.03 6.89,231.17 22.27,250.57 -15.53,10.55 -25.19,20.43 -24.65,30.2 0,0 -14.26,-7.85 -31.61,-15.88 0,0.03 0,0.06 0.01,0.08 -2.97,-1.48 -6.16,-2.84 -9.23,-4.21 -3.75,-1.59 -7.61,-3.19 -11.36,-4.66 l -24.91,3.18 c -47.42,-26.61 -115.42,-57.88 -154.43,-40.72 7.28,6.15 19.45,33.32 24.68,38.11 -79.61,4.55 -146.24,36.05 -218.12,57.3 13.42,14.57 18.32,34.81 37.54,45.95 -119.87,-22.06 -132.38,101.89 -121.34,210.5 -19.34,-12.06 -47.54,-18.54 -61.07,-7.05 20.12,-115.43 60.15,-213 141.23,-282.37 75.97,-65.05 308.87,-198.67 344.7,-238.01 0.11,-0.12 0.11,-0.12 0.11,-0.12 35.36,-71.18 85.16,-211.52 84.49,-226.19 -0.92,-18.53 -0.69,-31.95 -0.69,-31.95 l 8.88,-15.13 c 0,0 -17.4,-13.53 -2.74,-55.48 3.98,-11.38 26.27,-17.86 56.53,-21.4 42.87,25.95 80.16,60.96 108.03,100.77 -35.37,-12.4 -71.42,-26.5 -109.86,-25.71 22.75,65.05 159.34,176.39 213.36,232.9" /><path
         id="path136"
         style="fill:#e1f7f9;fill-opacity:1;fill-rule:nonzero;stroke:none"
         d="m 2342.77,2916.93 c -52.46,24.28 -100.01,58.11 -146.22,93.24 -5.08,3.86 -8.79,8.25 -11.34,12.9 -14,-2.41 -27.58,-5.33 -39.97,-7.63 l -3.03,-28.23 c 36.33,-36.94 85.57,-53.23 134.29,-66.61 10.82,-2.98 20.56,-5.11 30.46,-6.31 l -0.2,-0.04 c 25.68,-7.81 58.55,-45.41 60.01,-61.09 -2.59,16.86 -23.13,63.37 -24,63.77" /><path
         id="path138"
         style="fill:#f8ffff;fill-opacity:1;fill-rule:nonzero;stroke:none"
         d="m 2337.71,2920.79 c 0,0 -3.64,3.07 -9.89,8.41 -27.86,23.9 -134.53,111.91 -165.87,135.66 -0.46,5.61 -0.58,11.27 -0.39,16.95 -0.07,-1.88 -5.08,-6.54 -6.23,-8.25 -1.69,-2.54 -3.13,-5.19 -4.47,-7.93 -4.24,-8.64 -7.48,-16.67 -15.36,-22.63 -6.06,-4.59 -14.14,-8.58 -14.87,-17.08 7.95,-12.86 21.55,-24.91 38.1,-35.95 10.99,6.56 26.99,9.23 34.11,16.33 0,-10.42 -4.77,-20.85 -8.86,-31.27 50.17,-26.7 112.88,-45.31 139.17,-51.17 9.11,-2.05 14.56,-3.07 14.56,-3.07" /><path
         id="path140"
         style="fill:#e1f7f9;fill-opacity:1;fill-rule:nonzero;stroke:none"
         d="m 2363.87,2968.89 c -1.03,-15.35 -3.98,-31.5 -9.66,-45.95 -2.73,-6.7 -7.18,-20.81 -14.8,-22.96 -4.53,8.98 -7.95,18.3 -10.68,27.74 3.07,-2.16 6.03,-4.55 8.98,-6.93 -5.45,35.48 0.12,61.4 -5.8,97.12 -2.51,15.12 -16.88,63.28 -25.3,83.41 16.34,-9.24 42.96,-22.99 51.03,-25.26 -1.26,-7.28 -14.8,-20.41 -20.73,-23.7 7.62,-0.68 20.71,-5.57 26.85,-2.73 -0.34,-26.95 1.93,-53.9 0.11,-80.74" /><path
         id="path142"
         style="fill:#d3351d;fill-opacity:1;fill-rule:nonzero;stroke:none"
         d="m 3819.14,2809.25 c 61.22,34.72 112.96,86.64 133.48,185.74 -48.49,-83.24 -88.21,-107.61 -171.44,-107.61 -149.42,-9.96 -282.24,87.78 -433.99,59.78 -146.02,-26.94 -253.91,-96 -340.49,-218.21 -215.24,-303.81 -460.96,-459.31 -828.69,-429.43 -196.35,15.95 -365.49,108.88 -562.89,39.77 -121.88,-42.69 -242.22,-127.58 -377.36,-105.15 -150.51,24.98 -234.71,188.4 -402.178,174.33 -144.574,-12.15 -186.148,-122.83 -272.105,-225.06 -80.594,-95.86 -146.676,-66.22 -174.418,-31.54 30.613,-89.07 161.425,-106.7 239.355,-12.99 -25.051,-70.52 -90.84,-143.53 -153.996,-129.9 108.797,-51.53 211.172,79.22 278.008,148.61 87.633,90.96 195.648,75.99 298.564,16.01 75.25,-43.85 190.85,-87.31 279.49,-87.31 166.02,0 219.77,64 362.76,74.44 139.4,10.18 531.96,-228.28 943.52,-94.18 99.07,32.29 171.58,85.52 280.59,217.79 185.97,225.64 144.17,420.24 389.36,497.2 170.17,53.41 257.18,-13.91 411,-39.01 125.97,-20.55 181.16,6.61 236.68,99.87 -36.01,-29.93 -93.64,-40.09 -135.25,-33.15" /><path
         id="path144"
         style="fill:#ff8e88;fill-opacity:1;fill-rule:nonzero;stroke:none"
         d="m 2063.07,2127.32 c -2.33,29.92 -2.88,43.86 -3.29,70.48 20.69,-5.07 31.3,-7.46 52.89,-11.77 0.03,2.66 0.04,3.97 0.09,6.62 -21.64,4.28 -32.31,6.66 -53.08,11.68 -0.22,23.42 0.02,34.56 0.87,56.12 22.57,-5.02 34.08,-7.38 57.25,-11.53 0.15,2.43 0.22,3.64 0.37,6.05 -26.22,4.66 -39.23,7.34 -64.72,13.09 -2,-50.17 -2.28,-76.6 2.91,-138.9 2.67,-0.74 4.01,-1.09 6.71,-1.84 z m -36.97,166.76 c 44.12,-10.54 67.05,-15.3 112.99,-22.52 -1.33,-17.19 -1.94,-25.98 -2.85,-44.22 -20.93,3.53 -31.31,5.53 -51.75,9.82 -0.27,-7.62 -0.38,-11.49 -0.54,-19.32 19.93,-4.3 30.08,-6.32 50.58,-9.89 -0.64,-17.79 -0.84,-26.96 -0.87,-46.1 -20.26,3.81 -30.26,5.93 -49.75,10.46 0.54,-28.69 1.23,-43.8 3.88,-76.37 -22.4,5.93 -33.19,9.16 -53.63,15.81 -10.88,84.79 -10.47,118.12 -8.06,182.33" /><path
         id="path146"
         style="fill:#ff8e88;fill-opacity:1;fill-rule:nonzero;stroke:none"
         d="m 2187.32,2100.63 c -1.34,64.56 0.01,91.88 3.4,143.6 -3.05,0.36 -4.58,0.54 -7.64,0.92 -3.42,-51.62 -4.76,-78.9 -3.33,-143.32 3.02,-0.49 4.53,-0.73 7.57,-1.2 z m -32.14,168.5 c 26.47,-3.82 39.78,-5.4 66.3,-7.7 -4.54,-66.81 -6.77,-101.86 -4.12,-191.02 -26.71,3.46 -39.86,5.64 -65.38,10.69 -4.16,87.79 -1.9,122.24 3.2,188.03" /><path
         id="path148"
         style="fill:#ff8e88;fill-opacity:1;fill-rule:nonzero;stroke:none"
         d="m 2273.43,2091.24 c -0.84,59.88 -0.05,85.74 1.9,134.54 37.02,-50.33 56.76,-76.69 99,-135.29 3.19,0.15 4.79,0.2 7.98,0.4 -1.98,66.6 -2.16,94.95 -2.85,148.66 -2.99,-0.23 -4.5,-0.36 -7.5,-0.57 0.38,-48.89 0.47,-74.61 1.96,-133.92 -41.89,57.22 -61.37,83.02 -98.09,132.51 -3.06,0.12 -4.58,0.16 -7.65,0.31 -2.43,-52.65 -3.52,-80.48 -2.61,-146.1 3.13,-0.23 4.71,-0.34 7.86,-0.54 z M 2242,2259.86 c 20.5,-1.38 30.75,-1.83 51.09,-2.16 20.32,-26.5 30.79,-40.02 52.63,-68.25 0.04,28.9 0.21,42.5 0.45,68.94 23.94,1.03 35.81,1.96 59.21,4.69 2.37,-69.22 2.83,-105.4 6.52,-196.8 -21.75,-2.06 -32.64,-2.7 -54.35,-3.29 -23.64,34.36 -35.07,50.6 -57.06,81.76 -0.14,-30.58 -0.04,-46.67 0.82,-81.42 -25.53,0.97 -38.2,1.9 -63.17,4.58 -2.41,89.56 -0.28,124.81 3.86,191.95" /><path
         id="path150"
         style="fill:#ff8e88;fill-opacity:1;fill-rule:nonzero;stroke:none"
         d="m 2470.81,2101.24 c -3.86,66.63 -5.5,95.04 -9.6,149.1 -2.9,-0.54 -4.33,-0.81 -7.24,-1.32 3.78,-54.05 5.28,-82.49 8.94,-149.14 3.16,0.52 4.73,0.81 7.9,1.36 z m -45.95,164.36 c 25.09,3.58 37.48,5.9 61.77,11.56 7.56,-69.52 10.28,-105.67 16.41,-196.68 -27.65,-6.09 -41.6,-8.42 -69.52,-11.85 -4.18,91.42 -5.15,127.61 -8.66,196.97" /><path
         id="path152"
         style="fill:#ff8e88;fill-opacity:1;fill-rule:nonzero;stroke:none"
         d="m 2541.91,2119.72 c 2.86,0.12 5.94,0.51 9.13,0.98 2.79,0.41 5.81,0.88 8.9,1.52 3.12,0.63 6.26,1.45 9.44,2.49 5.53,1.79 10.82,4.33 15.86,7.56 5.05,3.22 9.47,7.19 13.17,11.9 3.69,4.7 6.4,10.01 8.16,15.82 1.75,5.78 2.12,12.16 1.14,19 -0.85,5.83 -3.04,10.76 -6.53,14.82 -3.48,4.07 -7.69,7.62 -12.61,10.72 -4.9,3.09 -10.03,5.9 -15.39,8.45 -5.35,2.56 -10.39,5.3 -15.14,8.17 -4.77,2.88 -8.77,6.01 -12,9.36 -3.24,3.34 -5.17,7.23 -5.77,11.62 -0.9,6.56 0.49,12.17 4.11,16.97 3.62,4.78 9.93,8.61 18.94,11.74 1.4,0.49 2.89,0.95 4.4,1.4 1.52,0.44 2.97,0.84 4.42,1.17 1.43,0.34 2.85,0.76 4.27,1.28 -0.52,2.76 -0.78,4.13 -1.3,6.87 -1.22,-0.46 -2.57,-0.83 -4.02,-1.16 -1.25,-0.28 -2.58,-0.65 -4.1,-1.09 -1.5,-0.44 -3.03,-0.93 -4.61,-1.48 -9.46,-3.31 -16.97,-7.99 -22.58,-14.28 -5.62,-6.3 -7.91,-14.04 -6.67,-23.54 0.67,-5.12 2.64,-9.57 5.9,-13.33 3.27,-3.77 7.28,-7.27 12.06,-10.4 4.78,-3.14 9.88,-6 15.22,-8.62 5.34,-2.62 10.47,-5.39 15.31,-8.27 4.85,-2.87 9,-6.13 12.42,-9.85 3.42,-3.72 5.52,-8.18 6.25,-13.42 1.35,-9.68 -0.78,-18.51 -6.43,-26.05 -5.66,-7.55 -14.12,-13.34 -25.35,-16.98 -6.71,-2.18 -13.07,-3.4 -18.54,-4.09 -2.94,-0.36 -5.98,-0.77 -8.82,-0.89 0.31,-3.34 0.46,-5.02 0.76,-8.39 z m -28.26,31.43 c 4.46,-0.4 9.28,-0.17 13.88,0.02 3.85,0.17 8.57,0.39 13.62,1.18 5.06,0.79 10.11,1.98 15.19,3.53 8.95,2.76 13.01,7.78 12.18,14.66 -0.31,2.62 -1.99,4.83 -4.98,6.65 -3.02,1.83 -6.79,3.78 -11.28,5.77 -4.51,2.01 -9.32,4.3 -14.43,6.87 -5.12,2.58 -9.97,5.84 -14.59,9.76 -4.63,3.91 -8.57,8.65 -11.83,14.08 -3.26,5.44 -5.26,12.03 -6.07,19.73 -0.9,8.6 -0.15,16.48 2.18,23.68 2.34,7.2 5.92,13.58 10.67,19.27 4.75,5.68 10.44,10.66 17.13,15.03 6.69,4.37 13.92,7.91 21.77,10.68 4.09,1.45 8.2,2.72 12.35,3.82 4.14,1.1 7.87,2.17 11.1,3.03 3.73,0.99 7.55,1.89 11.18,2.84 4.46,-19.18 6.55,-28.92 10.57,-49.12 -1.45,-0.39 -3.1,-0.89 -4.87,-1.39 -1.44,-0.41 -3.07,-0.85 -4.88,-1.35 -1.82,-0.52 -3.72,-1.15 -5.67,-1.89 -1.07,-0.42 -2.4,-0.96 -4,-1.65 -1.6,-0.7 -3.07,-1.49 -4.44,-2.37 -1.37,-0.89 -2.52,-1.99 -3.45,-3.29 -0.92,-1.3 -1.25,-2.77 -0.98,-4.39 0.25,-1.46 1.75,-2.86 4.56,-4.17 2.82,-1.33 6.27,-2.8 10.32,-4.42 4.04,-1.64 8.56,-3.57 13.52,-5.79 4.96,-2.21 9.7,-5.11 14.17,-8.74 4.48,-3.62 8.59,-8.15 12.23,-13.64 3.64,-5.48 6.19,-12.35 7.57,-20.74 1.45,-8.78 1.46,-17.78 -0.03,-26.95 -1.51,-9.19 -4.72,-18.17 -9.66,-26.74 -4.95,-8.58 -11.78,-16.58 -20.47,-23.77 -8.68,-7.18 -19.36,-13.06 -32,-17.24 -7.63,-2.52 -14.77,-4.34 -21.39,-5.49 -6.62,-1.15 -12.59,-1.73 -17.66,-2.02 -5.88,-0.35 -11.41,-0.44 -16.41,-0.04 -1.99,27.13 -3.02,39.96 -5.1,64.6" /><path
         id="path154"
         style="fill:#ff8e88;fill-opacity:1;fill-rule:nonzero;stroke:none"
         d="m 2690.46,2178.05 c -5.53,31.13 -8.59,45.68 -15.21,73.61 31.24,16.63 46.51,25.99 76.27,46.69 8.63,-26.24 12.58,-39.87 19.68,-69.05 2.78,2.01 4.17,3.06 6.94,5.12 -14.49,58.06 -23.43,82.91 -44.01,131.41 -2.43,-1.69 -3.64,-2.53 -6.07,-4.19 9.15,-22.14 13.46,-33.43 21.43,-57.08 -29.59,-20.52 -44.74,-29.81 -75.81,-46.31 -6.1,25.16 -9.37,37.14 -16.38,60.57 -2.55,-1.36 -3.86,-2.04 -6.44,-3.38 15,-51.82 21.46,-78.66 32.27,-141.34 2.94,1.56 4.41,2.34 7.33,3.95 z m -70,145.56 c 20.96,9.86 31.24,15.26 51.4,26.88 7.87,-22.4 11.55,-33.79 18.47,-57.56 12.11,6.98 18.09,10.62 29.95,18.22 -7.71,23.2 -11.81,34.31 -20.58,56.24 19.83,12.63 29.54,19.37 48.69,33.61 30.43,-61.2 43.24,-91.72 62.11,-168.73 -22.79,-18.77 -34.39,-27.48 -58.02,-43.61 -6.01,30.29 -9.37,44.42 -16.76,71.49 -12.49,-8.16 -18.81,-12.06 -31.54,-19.5 6.65,-27.77 9.67,-42.27 15.14,-73.37 -23.97,-14.57 -36.14,-21.19 -60.86,-33.12 -12.06,87.06 -19.59,121.74 -38,189.45" /><path
         id="path156"
         style="fill:#29b6f6;fill-opacity:1;fill-rule:nonzero;stroke:none"
         d="m 1764.69,3752.17 c -0.1,1.09 -0.37,2.5 -0.57,3.23 l -0.3,1.02 c -0.42,1.35 -1.09,2.87 -1.25,3.15 l -0.85,1.68 -0.61,1.04 -1.05,1.68 c -1.26,1.89 -2.28,3.3 -3.24,4.59 -3.85,5.11 -6.87,8.75 -9.04,11.42 -2.15,2.6 -3.39,4.09 -3.39,4.09 l -4.97,-4.14 c -2.06,1.92 -4.13,3.86 -6.21,5.82 -21.44,20.41 -42.56,41.69 -42.56,41.69 l -28.33,-28.32 c 0,0 21.23,-21.39 43.32,-42.42 5.57,-5.27 11.14,-10.49 16.87,-15.51 1.54,-1.3 3.05,-2.58 4.53,-3.83 l 2.68,-2.08 c 1.11,-0.77 1.96,-1.51 4.79,-3.05 l 1.53,-0.71 0.84,-0.36 c 0.7,-0.26 1.43,-0.5 2.16,-0.7 0.75,-0.19 1.49,-0.35 2.24,-0.48 l 1.12,-0.14 c 1.09,-0.12 2.64,-0.15 4.02,0 2.87,0.25 5.83,1.22 8.18,2.57 2.25,1.15 6.01,4.4 7.84,8.13 0.99,1.87 1.65,3.84 2,5.65 0.21,1.13 0.22,1.41 0.25,1.62 l 0.07,0.86 c 0.06,1.15 0.04,2.34 -0.07,3.5" /><path
         id="path158"
         style="fill:#ffcd5e;fill-opacity:1;fill-rule:nonzero;stroke:none"
         d="m 2166.95,3976.73 c 11.88,24.87 24.53,49.91 24.53,49.91 l -51.15,25.58 c 0,0 -12.67,-25.09 -25.01,-50.9 -3.05,-6.59 -6.11,-13.18 -8.97,-19.36 -1.43,-3.32 -2.81,-6.53 -4.11,-9.58 -0.69,-1.77 -1.36,-3.49 -2,-5.16 -0.69,-2.06 -1.36,-3.5 -2.37,-8.16 -0.24,-1.65 -0.71,-2.93 -0.6,-7.87 -0.05,-0.19 0.31,-4.23 1.11,-6.71 0.39,-1.38 0.88,-2.72 1.45,-3.99 0.86,-2.1 3.43,-6.29 6.21,-8.83 6.17,-5.74 12.15,-7.79 19.36,-8.16 1.74,-0.05 3.45,0.06 5.07,0.3 l 2.09,0.39 0.82,0.2 c 1.09,0.28 2.18,0.63 3.25,1.04 1.06,0.41 2.1,0.88 3.1,1.4 l 1.45,0.8 0.52,0.32 2.01,1.37 c 1.57,1.17 1.99,1.6 2.54,2.08 1.32,1.19 1.84,1.76 2.44,2.39 2.12,2.32 3.04,3.59 4,4.8 1.54,2.15 2.9,4.02 4.01,5.56 1.91,2.81 3,4.42 3,4.42 l -4.25,2.83 c 1.01,2.33 2.05,4.75 3.13,7.27 2.67,5.76 5.52,11.91 8.37,18.06" /><path
         id="path160"
         style="fill:#ffcd5e;fill-opacity:1;fill-rule:nonzero;stroke:none"
         d="m 3140.86,3442.63 v -57.19 c 0,0 -7.71,0.03 -19.26,0.06 -11.74,0.19 -27.36,0.19 -43.89,1.58 -16.44,1.36 -33.48,3.63 -47.02,7.89 -6.61,1.62 -12.39,4.15 -16.36,5.83 -3.98,1.7 -6.24,2.66 -6.24,2.66 l 25.56,51.15 c 0,0 1.25,-0.49 3.44,-1.35 2.18,-0.88 5.07,-2.36 9.61,-3.39 8.27,-2.75 21.6,-4.64 35.49,-5.77 13.85,-1.2 28.73,-1.24 39.83,-1.41 11.3,-0.03 18.84,-0.06 18.84,-0.06" /><path
         id="path162"
         style="fill:#ec407a;fill-opacity:1;fill-rule:nonzero;stroke:none"
         d="m 2903.1,3754.6 25.56,-51.15 c 0,0 -0.87,-0.54 -2.4,-1.5 -1.53,-1.11 -3.78,-1.84 -6.47,-4.09 -5.35,-3.73 -12.84,-10.67 -21.2,-19.06 -8.67,-8.67 -18.76,-18.34 -28.23,-25.05 -4.34,-3.45 -9.12,-5.76 -11.97,-7.58 -3.01,-1.73 -4.73,-2.72 -4.73,-2.72 l -25.56,51.16 c 0,0 0.87,0.53 2.41,1.49 1.52,1.11 3.77,1.85 6.47,4.09 5.34,3.74 12.82,10.67 21.18,19.05 8.68,8.68 18.76,18.35 28.24,25.05 4.34,3.46 9.12,5.77 11.96,7.59 3.02,1.73 4.74,2.72 4.74,2.72" /><path
         id="path164"
         style="fill:#29b6f6;fill-opacity:1;fill-rule:nonzero;stroke:none"
         d="m 1102.35,2948.67 c -0.77,7.69 -1.71,12.13 -2.33,15.7 -0.64,3.37 -1.02,5.3 -1.02,5.3 l -9.47,-1.9 c -1.57,3.61 -3.15,7.42 -4.69,11.35 -4.98,12.74 -9.55,26.05 -12.4,35.53 -1.43,4.72 -2.42,8.53 -2.79,10.35 -0.38,2.13 -0.03,-0.19 -0.14,0.44 l -57.1,-2.76 c -0.35,-8.12 8.01,-35.71 19.17,-64.39 2.83,-7.2 5.72,-14.28 9.26,-21.65 0.92,-1.89 1.88,-3.79 3.06,-5.92 1.41,-2.31 2.06,-4.08 6.18,-9.02 0.48,-0.55 1.08,-1.24 2.31,-2.39 1.19,-1.03 1.63,-1.62 4.64,-3.6 1.24,-0.79 2.55,-1.5 3.86,-2.1 2.56,-1.16 5.94,-2.12 9.06,-2.43 2.48,-0.36 7.69,-0.25 12.33,1.38 2.3,0.77 4.47,1.82 6.37,3.02 1.42,0.91 2.59,1.82 3.81,2.91 2.26,1.93 4.72,5.18 5.66,6.86 0.71,1.21 1.35,2.48 1.9,3.78 1.29,3.19 1.38,4.07 1.71,5.35 0.66,3.1 0.61,3.79 0.78,5.43 0.25,4.69 -0.02,6.49 -0.16,8.76" /><path
         id="path166"
         style="fill:#ffcd5e;fill-opacity:1;fill-rule:nonzero;stroke:none"
         d="m 1363.44,3219.05 c 0,0 1.62,0.11 4.68,0.02 0.1,0 0.27,-0.02 0.38,-0.02 z m 23.14,0 c 2.65,2.96 7.85,6.91 14.37,10.85 l 3.04,1.82 c 0.91,0.54 2.58,1.38 2.09,1.17 l -0.07,0.14 -0.35,0.72 c -0.33,0.8 -0.68,1.65 -1.04,2.53 -0.77,2.03 -1.55,4.55 -2.23,7.11 -1.37,5.17 -2.21,10.56 -2.55,14.4 -0.35,3.88 -0.29,6.26 -0.29,6.26 h -57.19 c 0,0 -0.08,-4.69 0.53,-11.38 0.59,-6.71 1.94,-15.32 4.19,-23.82 1.13,-4.26 2.43,-8.5 4,-12.67 1.66,-4.28 3.19,-8.09 6.22,-13.13 l 1.35,-2.08 c 0.45,-0.66 1,-1.43 1.83,-2.46 0.69,-0.84 1.43,-1.76 2.94,-3.23 0.7,-0.67 1.21,-1.16 2.1,-1.89 1.3,-1.05 2.67,-1.99 4.07,-2.82 0.84,-0.47 1.12,-0.67 2.42,-1.28 1.47,-0.68 3.02,-1.25 4.59,-1.69 3.35,-0.81 5.58,-1.43 11.22,-0.93 10.86,1.56 16.07,6.35 20.44,11.72 1.95,2.6 3.65,6.19 4.32,8.19 0.48,1.42 0.85,2.81 1.15,4.15 0.75,3.91 0.72,5.66 0.77,6.63 0.03,1.1 0.04,1.69 0.04,1.69 h -27.96" /><path
         id="path168"
         style="fill:#ec407a;fill-opacity:1;fill-rule:nonzero;stroke:none"
         d="m 1159.56,3474.04 h -57.19 c 0,0 -0.17,3.57 -0.7,9.06 -0.96,5.52 -2.32,13.2 -5.54,20.54 -2.94,7.32 -6.81,14.45 -10.1,18.68 -1.57,2.39 -2.94,3.81 -3.86,4.82 -0.91,1.07 -1.42,1.68 -1.42,1.68 l 40.44,40.43 c 0,0 1.19,-1.32 3.29,-3.63 2.12,-2.32 5.1,-5.68 7.85,-9.74 6.09,-8.1 12.17,-19.24 16.92,-31.04 4.97,-11.68 7.61,-24.43 9.09,-34.15 0.75,-4.86 0.75,-9.16 0.98,-12.05 0.15,-2.93 0.24,-4.6 0.24,-4.6" /><path
         id="path170"
         style="fill:#ffcd5e;fill-opacity:1;fill-rule:nonzero;stroke:none"
         d="m 898.809,2514.08 c 0.004,7.79 0.004,17.17 0.004,28.6 h -0.008 c 0,9.09 -0.004,4.56 -0.012,0 h -0.008 -0.051 -0.078 -0.332 -0.496 -1.125 c -1.066,0 -2.117,0 -3.133,0 -2.039,0 -3.965,0 -5.742,0 -1.441,0 -2.699,0 -3.926,0 -4.832,0 -7.925,0 -7.925,0 -15.977,0 -30,0 -30,0 v -57.19 c 0,0 14.023,0 30,0 2.613,0 5.257,0 7.925,0 1.336,0 2.598,0 3.926,0 1.942,0 3.848,0 5.742,0 1.035,0 2.121,0 3.133,0 0.363,0 0.77,0 1.125,0 h 0.496 0.332 0.078 0.051 0.008 c 0.008,-4.56 0.012,-9.09 0.012,0 h 0.008 c 0,11.42 0,20.8 -0.004,28.59" /><path
         id="path172"
         style="fill:#ffcd5e;fill-opacity:1;fill-rule:nonzero;stroke:none"
         d="m 1447.05,2634.08 2.68,1.63 -0.01,0.01 c -0.01,0.02 0.01,-0.05 -0.07,0.12 l -0.87,1.8 c -1.48,3.22 -3.34,7.94 -5.15,12.66 -3.67,9.59 -7.53,19.87 -10.88,27.81 -3.28,7.93 -6.23,13.76 -6.23,13.76 l -51.15,-25.58 c 0,0 1.85,-3.58 4.64,-10.27 2.8,-6.65 6.37,-16.12 10.24,-26.24 1.98,-5.12 3.94,-10.24 6.57,-16.03 1.51,-3.05 2.42,-5.69 6.58,-11.54 0.75,-0.98 1.77,-2.18 2.71,-3.17 0.59,-0.61 0.75,-0.82 1.71,-1.7 1.17,-1.04 2.43,-2.02 3.75,-2.9 1.31,-0.88 2.68,-1.66 4.06,-2.33 3.06,-1.4 6.7,-2.39 10.32,-2.67 3.69,-0.27 6.88,-0.02 10.55,1.09 3.61,1.06 7.2,2.93 10.08,5.18 7.25,6.02 9.05,11.92 9.68,13.3 0.46,1.18 0.93,2.57 1.22,3.59 l 0.47,1.98 c 1.12,5.33 1.09,7.41 1.32,9.86 0.09,2.07 0.16,3.89 0.22,5.37 0.03,2.72 0.05,4.27 0.05,4.27 h -12.49" /><path
         id="path174"
         style="fill:#ec407a;fill-opacity:1;fill-rule:nonzero;stroke:none"
         d="m 1462.92,2908.67 v 0 c 0.07,0.41 0.35,0.85 -0.38,-0.61 -1.27,-2.56 -4.98,-8.13 -9.2,-13.57 -2.23,-2.81 -4.47,-5.62 -6.57,-8.26 l -1.75,-2.14 -1.06,-1.31 -0.86,-1.12 -0.66,-0.91 -0.16,-0.22 c -0.94,-1.36 -1.83,-2.9 -2.58,-4.53 -1.51,-3.27 -2.4,-6.97 -2.6,-10.38 -0.02,-1.05 -0.16,-0.95 0.07,-4.16 0.38,-2.7 0.63,-6.97 4.87,-13.53 2.13,-3.17 5.66,-6.75 10.2,-9.14 4.51,-2.44 9.62,-3.42 13.63,-3.36 8.22,0.26 12.1,2.75 14.63,4.11 1.08,0.63 2.52,1.71 2.52,1.7 l 0.09,0.07 0.18,0.14 0.35,0.28 1.38,1.16 1.1,1.01 1.23,1.18 c 0.63,0.62 1.23,1.21 1.82,1.79 4.2,4.18 7,6.98 7,6.98 l -1.17,1.16 c 1.25,1.57 2.46,3.09 3.73,4.68 5.27,6.92 10.47,14.19 14.57,22.03 1.99,3.71 4.01,8.73 4.92,12.45 0.83,3.31 1.01,5.25 1.01,5.25 l -56.31,9.25" /><path
         id="path176"
         style="fill:#29b6f6;fill-opacity:1;fill-rule:nonzero;stroke:none"
         d="m 1923.71,2539.66 -25.58,-51.15 c 0,0 -3.03,1.3 -7.58,3.25 -2.26,1 -4.91,2.17 -7.74,3.42 -2.83,1.29 -5.49,1.59 -8.3,2.53 -2.79,0.88 -5.56,1.74 -8.06,1.81 -2.66,0.22 -4.59,0.81 -7.18,0.8 -5.01,0.1 -8.34,0.17 -8.34,0.17 v 57.19 c 0,0 4.48,-0.1 11.19,-0.24 6.96,-0.65 17.94,-1.36 27.03,-4.44 4.62,-1.41 9.75,-2.54 13.6,-4.22 3.89,-1.68 7.52,-3.24 10.63,-4.58 6.2,-2.73 10.33,-4.54 10.33,-4.54" /><path
         id="path178"
         style="fill:#ffcd5e;fill-opacity:1;fill-rule:nonzero;stroke:none"
         d="m 2764.47,2739.07 h -57.18 v 15 h 57.18 v -15" /><path
         id="path180"
         style="fill:#ffcd5e;fill-opacity:1;fill-rule:nonzero;stroke:none"
         d="m 2750.88,3145.46 v 57.19 c 0,0 4.59,0 11.46,0 0.86,0 1.76,0 2.69,0 h 0.04 c -0.01,-114.29 -0.02,-31.68 -0.03,-57.19 h -0.02 -0.09 -0.17 -0.36 -0.71 -1.45 c -1.98,0 -4.05,0 -6.2,0 -4.3,0 -8.88,0 -13.47,0 -18.35,0 -36.69,0 -36.69,0 v 57.19 c 0,0 18.34,0 36.69,0 4.59,0 9.17,0 13.47,0 2.15,0 4.22,0 6.2,0 h 1.45 0.71 0.36 0.17 0.09 0.02 c 0.01,-25.51 0.02,57.09 0.03,-57.19 h -0.04 c -0.93,0 -1.83,0 -2.69,0 -6.87,0 -11.46,0 -11.46,0" /><path
         id="path182"
         style="fill:#ec407a;fill-opacity:1;fill-rule:nonzero;stroke:none"
         d="m 3074.88,2206.19 c 6.23,2.83 12.47,5.68 12.47,5.68 l -23.67,52.05 c 0,0 -6.24,-2.84 -12.47,-5.67 -1.29,-0.59 -2.56,-1.17 -3.8,-1.73 -0.4,-0.18 -0.82,-0.37 -1.29,-0.58 l -0.91,-0.42 -0.4,-0.18 c -0.08,-0.04 -0.19,-0.09 -0.29,-0.13 l -0.06,-0.03 -0.03,-0.01 -0.03,-0.02 h -0.01 c -1.88,4.15 -3.76,8.28 0,0 l -0.01,-0.01 c 5.7,-12.51 10.19,-22.39 13.75,-30.2 2.83,-6.24 6.08,-13.4 9.93,-21.85 h 0.01 c 3.76,-8.29 1.88,-4.15 0,0 l 0.12,0.05 c 0.07,0.03 0.14,0.06 0.2,0.09 l 0.02,0.01 0.02,0.01 c 0.6,0.28 1.22,0.56 1.86,0.85 0.2,0.09 0.41,0.19 0.61,0.27 1.18,0.54 2.09,0.95 2.51,1.15 0.5,0.22 0.97,0.45 1.47,0.67" /><path
         id="path184"
         style="fill:#ffcd5e;fill-opacity:1;fill-rule:nonzero;stroke:none"
         d="m 3266.07,2519.31 -40.43,-40.44 c 0,0 -1.62,1.62 -4.04,4.06 -2.33,2.49 -7.77,7.5 -12.67,15.4 -4.67,7.44 -6.23,16.25 -6.51,22.8 -0.09,4.77 -0.15,7.95 -0.15,7.95 h 57.18 c 0,0 0.01,-1.52 0.02,-3.04 3.3,-3.37 6.6,-6.73 6.6,-6.73" /><path
         id="path186"
         style="fill:#ffcd5e;fill-opacity:1;fill-rule:nonzero;stroke:none"
         d="m 3035.87,1897.71 v -57.18 c 0,0 -2.21,0.08 -6.07,0.22 -3.83,0.24 -9.43,0.18 -15.93,0.86 -13.03,1.32 -30.26,3.72 -46.75,8.21 -33.23,8.1 -64.03,23.72 -64.03,23.72 l 25.58,51.15 c 0,0 1.57,-0.74 4.34,-2.03 2.76,-1.29 6.66,-3.22 11.6,-5.14 9.68,-4.21 23.17,-8.75 36.77,-12.31 13.61,-3.74 27.38,-5.55 37.58,-6.64 10.18,-0.72 16.91,-0.86 16.91,-0.86" /><path
         id="path188"
         style="fill:#29b6f6;fill-opacity:1;fill-rule:nonzero;stroke:none"
         d="m 3210.64,3194.27 40.43,-40.44 c 0,0 -5.43,-4.48 -13.57,-11.21 -4.26,-3.72 -8.64,-6.02 -13.55,-9.2 -4.85,-2.94 -10.19,-6.57 -15.2,-9.08 -10.17,-5.53 -20.32,-10.99 -27.69,-14.59 -7.45,-3.76 -12.42,-6.27 -12.42,-6.27 l -25.56,51.15 c 0,0 4.81,2.44 12.05,6.09 7.42,3.63 16.57,8.58 25.68,13.51 4.81,2.42 8.49,5.08 12.45,7.44 3.71,2.39 7.87,4.61 9.69,6.51 4.51,3.77 7.69,6.09 7.69,6.09" /><path
         id="path190"
         style="fill:#29b6f6;fill-opacity:1;fill-rule:nonzero;stroke:none"
         d="m 3127.27,3714.02 h 57.18 c 0,0 -0.09,-1.72 -0.25,-4.73 -0.33,-3.1 -0.16,-7.13 -1.3,-12.65 -1.52,-10.77 -7.75,-26.64 -17.88,-38.22 -10.09,-12 -21,-18.1 -28.7,-23.12 -7.61,-4.11 -12.68,-6.85 -12.68,-6.85 l -25.56,51.16 c 0,0 3.72,2.01 9.31,5.03 4.79,3.09 11.54,7.26 14.16,10.94 2.9,3.67 4.35,6.87 5.02,10.97 0.55,4.12 0.6,7.59 0.7,7.47" /><path
         id="path192"
         style="fill:#ffcd5e;fill-opacity:1;fill-rule:nonzero;stroke:none"
         d="m 1234.55,2004.11 h -57.19 v 45 h 57.19 v -45" /></g></g></svg>