<?xml version="1.0" encoding="UTF-8" standalone="no"?>
<svg
   xmlns:dc="http://purl.org/dc/elements/1.1/"
   xmlns:cc="http://creativecommons.org/ns#"
   xmlns:rdf="http://www.w3.org/1999/02/22-rdf-syntax-ns#"
   xmlns:svg="http://www.w3.org/2000/svg"
   xmlns="http://www.w3.org/2000/svg"
   xmlns:sodipodi="http://sodipodi.sourceforge.net/DTD/sodipodi-0.dtd"
   xmlns:inkscape="http://www.inkscape.org/namespaces/inkscape"
   version="1.1"
   id="svg2"
   xml:space="preserve"
   width="4000"
   height="4000"
   viewBox="0 0 4000 4000"
   sodipodi:docname="Jan48.eps"><metadata
     id="metadata8"><rdf:RDF><cc:Work
         rdf:about=""><dc:format>image/svg+xml</dc:format><dc:type
           rdf:resource="http://purl.org/dc/dcmitype/StillImage" /></cc:Work></rdf:RDF></metadata><defs
     id="defs6"><clipPath
       clipPathUnits="userSpaceOnUse"
       id="clipPath66"><path
         d="m 1329.32,24.3008 h 28030.8 V 28490.001 H 1329.32 Z"
         id="path64" /></clipPath></defs><sodipodi:namedview
     pagecolor="#ffffff"
     bordercolor="#666666"
     borderopacity="1"
     objecttolerance="10"
     gridtolerance="10"
     guidetolerance="10"
     inkscape:pageopacity="0"
     inkscape:pageshadow="2"
     inkscape:window-width="640"
     inkscape:window-height="480"
     id="namedview4" /><g
     id="g10"
     inkscape:groupmode="layer"
     inkscape:label="ink_ext_XXXXXX"
     transform="matrix(1.3333333,0,0,-1.3333333,0,4000)"><g
       id="g12"
       transform="scale(0.1)"><path
         d="M 30000,0 H 0 V 30000 H 30000 V 0 M 27318.6,8100.2 25180.1,4957.3 26312.4,4946.5 26309.5,10 h 2139.1 l 7,4916 970.5,-9.2 -2107.5,3183.4 M 24090.4,10 v 0 l -5.4,9470.8 970.5,-9.2 L 22948.1,12655 20809.5,9512.1 21941.8,9501.3 21913.6,10 h 2176.8 M 17911.7,9409 15759.9,6266.1 16892.2,6255.3 16875.1,10 h 2155.2 l 5.1,6224.8 970.5,-9.2 L 17911.7,9409 M 12021.7,8100.2 9883.16,4957.3 11015.4,4946.5 11012.5,10 h 2139.1 l 7,4916 970.6,-9.2 -2107.5,3183.4 M 8793.5,10 v 0 l -5.42,9470.8 970.52,-9.2 L 7651.12,12655 5512.59,9512.1 6644.86,9501.3 6616.61,10 H 8793.5 M 2614.8,9409 462.992,6266.1 1595.25,6255.3 1578.15,10 h 2155.23 l 5.1,6224.8 L 4709,6225.6 2614.8,9409 m 3135.75,12812.6 c -150.23,0 -335.89,-89 -270.7,-558.3 h 2436.4 c 0,0 189.04,651.1 -189.03,672.1 -378.07,21 -378.07,21 -378.07,21 0,0 168.03,483.1 -105.01,525.1 -123.16,18.9 -254.87,59.3 -366.21,59.3 -135.5,0 -240.84,-59.8 -263.9,-290.4 0,0 -253.54,115.3 -436.23,115.3 -63.94,0 -119.19,-14.1 -151.87,-52.2 -126.02,-147.1 -105.01,-525.1 -105.01,-525.1 0,0 -78.58,33.2 -170.37,33.2 m 18384.75,654.9 c -187.6,0 -419.4,-111.1 -338,-697.2 h 3042.2 c 0,0 236,813 -236,839.3 -472.1,26.2 -472.1,26.2 -472.1,26.2 0,0 209.8,603.2 -131.1,655.6 -153.8,23.7 -318.3,74 -457.3,74 -169.2,0 -300.7,-74.5 -329.5,-362.5 0,0 -316.6,144 -544.7,144 -79.9,0 -148.9,-17.7 -189.6,-65.3 -157.4,-183.6 -131.2,-655.6 -131.2,-655.6 0,0 -98.1,41.5 -212.7,41.5 m -9999.8,-227.6 c -107,0 -239.1,-63.4 -192.7,-397.5 h 1734.5 c 0,0 134.6,463.5 -134.6,478.5 -269.1,14.9 -269.1,14.9 -269.1,14.9 0,0 119.6,344 -74.8,373.9 -87.7,13.5 -181.4,42.2 -260.7,42.2 -96.5,0 -171.5,-42.6 -187.9,-206.7 0,0 -180.5,82 -310.5,82 -45.6,0 -84.9,-10 -108.2,-37.2 -89.7,-104.6 -74.7,-373.8 -74.7,-373.8 0,0 -56,23.7 -121.3,23.7 M 26762.2,25644 c -69,0 -154.2,-40.8 -124.3,-256.4 h 1119 c 0,0 86.8,299.1 -86.8,308.7 -173.6,9.6 -173.6,9.6 -173.6,9.6 0,0 77.1,221.9 -48.3,241.2 -56.5,8.7 -117,27.2 -168.2,27.2 -62.2,0 -110.6,-27.4 -121.2,-133.3 0,0 -116.4,52.9 -200.3,52.9 -29.4,0 -54.8,-6.4 -69.8,-24 -57.9,-67.5 -48.2,-241.1 -48.2,-241.1 0,0 -36.1,15.2 -78.3,15.2 m -24259.67,914.7 c -71.93,0 -160.84,-42.6 -129.63,-267.4 h 1166.73 c 0,0 90.52,311.8 -90.52,321.9 -181.05,10 -181.05,10 -181.05,10 0,0 80.47,231.4 -50.29,251.5 -58.97,9.1 -122.05,28.4 -175.37,28.4 -64.89,0 -115.32,-28.6 -126.37,-139.1 0,0 -121.41,55.2 -208.89,55.2 -30.62,0 -57.08,-6.7 -72.73,-25 -60.35,-70.4 -50.29,-251.4 -50.29,-251.4 0,0 -37.63,15.9 -81.59,15.9 M 19297.4,26688 c -72,0 -160.9,-42.6 -129.7,-267.4 h 1166.8 c 0,0 90.5,311.8 -90.6,321.9 -181,10 -181,10 -181,10 0,0 80.5,231.4 -50.3,251.5 -59,9.1 -122,28.4 -175.4,28.4 -64.8,0 -115.3,-28.6 -126.3,-139 0,0 -121.4,55.1 -208.9,55.1 -30.6,0 -57.1,-6.7 -72.7,-25 -60.4,-70.4 -50.3,-251.4 -50.3,-251.4 0,0 -37.7,15.9 -81.6,15.9"
         style="fill:#c8e9f7;fill-opacity:1;fill-rule:nonzero;stroke:none"
         id="path14" /><path
         d="m 28448.6,10 h -2139.1 l 2.9,4936.5 -1132.3,10.8 2138.5,3142.9 2107.5,-3183.4 -970.5,9.2 -7,-4916"
         style="fill:#9ed8f2;fill-opacity:1;fill-rule:nonzero;stroke:none"
         id="path16" /><path
         d="m 19030.3,10 h -2155.2 l 17.1,6245.3 -1132.3,10.8 2151.8,3142.9 2094.2,-3183.4 -970.5,9.2 -5.1,-6224.8"
         style="fill:#9ed8f2;fill-opacity:1;fill-rule:nonzero;stroke:none"
         id="path18" /><path
         d="m 24090.4,10 h -2176.8 l 28.2,9491.3 -1132.3,10.8 2138.6,3142.9 2107.4,-3183.4 -970.5,9.2 5.4,-9470.8"
         style="fill:#9ed8f2;fill-opacity:1;fill-rule:nonzero;stroke:none"
         id="path20" /><path
         d="m 13151.6,10 h -2139.1 l 2.9,4936.5 -1132.24,10.8 2138.54,3142.9 2107.5,-3183.4 -970.6,9.2 -7,-4916"
         style="fill:#9ed8f2;fill-opacity:1;fill-rule:nonzero;stroke:none"
         id="path22" /><path
         d="M 3733.38,10 H 1578.15 l 17.1,6245.3 L 462.992,6266.1 2614.8,9409 4709,6225.6 3738.48,6234.8 3733.38,10"
         style="fill:#9ed8f2;fill-opacity:1;fill-rule:nonzero;stroke:none"
         id="path24" /><path
         d="M 8793.5,10 H 6616.61 l 28.25,9491.3 -1132.27,10.8 L 7651.12,12655 9758.6,9471.6 8788.08,9480.8 8793.5,10"
         style="fill:#9ed8f2;fill-opacity:1;fill-rule:nonzero;stroke:none"
         id="path26" /><path
         d="m 4555.03,24771.2 h -237.21 v 237.2 c 0,29.7 -24.26,54 -53.91,54 -29.65,0 -53.91,-24.3 -53.91,-54 v -237.2 h -237.21 c -29.65,0 -53.91,-24.2 -53.91,-53.9 0,-29.6 24.26,-53.9 53.91,-53.9 H 4210 v -237.2 c 0,-29.6 24.26,-53.9 53.91,-53.9 29.65,0 53.91,24.3 53.91,53.9 v 237.2 h 237.21 c 29.65,0 53.91,24.3 53.91,53.9 0,29.7 -24.26,53.9 -53.91,53.9"
         style="fill:#ffffff;fill-opacity:1;fill-rule:nonzero;stroke:none"
         id="path28" /><path
         d="m 9010,27587.2 h -237.21 v 237.2 c 0,29.7 -24.25,53.9 -53.91,53.9 -29.65,0 -53.91,-24.2 -53.91,-53.9 v -237.2 h -237.21 c -29.64,0 -53.9,-24.3 -53.9,-53.9 0,-29.6 24.26,-53.9 53.9,-53.9 h 237.21 v -237.2 c 0,-29.7 24.26,-53.9 53.91,-53.9 29.66,0 53.91,24.2 53.91,53.9 v 237.2 H 9010 c 29.65,0 53.91,24.3 53.91,53.9 0,29.6 -24.26,53.9 -53.91,53.9"
         style="fill:#ffffff;fill-opacity:1;fill-rule:nonzero;stroke:none"
         id="path30" /><path
         d="m 15148.3,25912.9 h -177.9 v 177.9 c 0,22.2 -18.2,40.4 -40.4,40.4 -22.2,0 -40.4,-18.2 -40.4,-40.4 v -177.9 h -177.9 c -22.3,0 -40.5,-18.2 -40.5,-40.4 0,-22.3 18.2,-40.5 40.5,-40.5 h 177.9 v -177.9 c 0,-22.2 18.2,-40.4 40.4,-40.4 22.2,0 40.4,18.2 40.4,40.4 v 177.9 h 177.9 c 22.3,0 40.5,18.2 40.5,40.5 0,22.2 -18.2,40.4 -40.5,40.4"
         style="fill:#ffffff;fill-opacity:1;fill-rule:nonzero;stroke:none"
         id="path32" /><path
         d="m 13606.7,22291.2 h -177.9 v 177.9 c 0,22.3 -18.2,40.5 -40.5,40.5 -22.2,0 -40.4,-18.2 -40.4,-40.5 v -177.9 H 13170 c -22.2,0 -40.4,-18.2 -40.4,-40.4 0,-22.2 18.2,-40.4 40.4,-40.4 h 177.9 v -177.9 c 0,-22.3 18.2,-40.5 40.4,-40.5 22.3,0 40.5,18.2 40.5,40.5 v 177.9 h 177.9 c 22.2,0 40.4,18.2 40.4,40.4 0,22.2 -18.2,40.4 -40.4,40.4"
         style="fill:#ffffff;fill-opacity:1;fill-rule:nonzero;stroke:none"
         id="path34" /><path
         d="M 24307.9,27172.1 H 24130 v 177.9 c 0,22.2 -18.2,40.4 -40.4,40.4 -22.3,0 -40.5,-18.2 -40.5,-40.4 v -177.9 h -177.9 c -22.2,0 -40.4,-18.2 -40.4,-40.4 0,-22.3 18.2,-40.5 40.4,-40.5 h 177.9 v -177.9 c 0,-22.2 18.2,-40.4 40.5,-40.4 22.2,0 40.4,18.2 40.4,40.4 v 177.9 h 177.9 c 22.2,0 40.4,18.2 40.4,40.5 0,22.2 -18.2,40.4 -40.4,40.4"
         style="fill:#ffffff;fill-opacity:1;fill-rule:nonzero;stroke:none"
         id="path36" /><path
         d="m 16687.1,18990.4 h -177.9 v 177.9 c 0,22.3 -18.2,40.5 -40.4,40.5 -22.3,0 -40.5,-18.2 -40.5,-40.5 v -177.9 h -177.9 c -22.2,0 -40.4,-18.2 -40.4,-40.4 0,-22.2 18.2,-40.4 40.4,-40.4 h 177.9 v -177.9 c 0,-22.3 18.2,-40.5 40.5,-40.5 22.2,0 40.4,18.2 40.4,40.5 v 177.9 h 177.9 c 22.2,0 40.4,18.2 40.4,40.4 0,22.2 -18.2,40.4 -40.4,40.4"
         style="fill:#ffffff;fill-opacity:1;fill-rule:nonzero;stroke:none"
         id="path38" /><path
         d="m 1948.34,12811.7 h -177.91 v 177.9 c 0,22.2 -18.19,40.4 -40.43,40.4 -22.24,0 -40.43,-18.2 -40.43,-40.4 v -177.9 h -177.91 c -22.24,0 -40.43,-18.2 -40.43,-40.5 0,-22.2 18.19,-40.4 40.43,-40.4 h 177.91 v -177.9 c 0,-22.2 18.19,-40.4 40.43,-40.4 22.24,0 40.43,18.2 40.43,40.4 v 177.9 h 177.91 c 22.24,0 40.43,18.2 40.43,40.4 0,22.3 -18.19,40.5 -40.43,40.5"
         style="fill:#ffffff;fill-opacity:1;fill-rule:nonzero;stroke:none"
         id="path40" /><path
         d="m 1433.1,24725.4 h -177.91 v 177.9 c 0,22.2 -18.19,40.4 -40.43,40.4 -22.24,0 -40.44,-18.2 -40.44,-40.4 v -177.9 H 996.422 c -22.242,0 -40.438,-18.2 -40.438,-40.5 0,-22.2 18.196,-40.4 40.438,-40.4 h 177.898 v -177.9 c 0,-22.3 18.2,-40.4 40.44,-40.4 22.24,0 40.43,18.1 40.43,40.4 v 177.9 h 177.91 c 22.23,0 40.43,18.2 40.43,40.4 0,22.3 -18.2,40.5 -40.43,40.5"
         style="fill:#ffffff;fill-opacity:1;fill-rule:nonzero;stroke:none"
         id="path42" /><path
         d="m 26468.8,21412.1 h -177.9 v 177.9 c 0,22.2 -18.2,40.4 -40.5,40.4 -22.2,0 -40.4,-18.2 -40.4,-40.4 v -177.9 h -177.9 c -22.2,0 -40.4,-18.2 -40.4,-40.4 0,-22.3 18.2,-40.5 40.4,-40.5 h 177.9 v -177.9 c 0,-22.2 18.2,-40.4 40.4,-40.4 22.3,0 40.5,18.2 40.5,40.4 v 177.9 h 177.9 c 22.2,0 40.4,18.2 40.4,40.5 0,22.2 -18.2,40.4 -40.4,40.4"
         style="fill:#ffffff;fill-opacity:1;fill-rule:nonzero;stroke:none"
         id="path44" /><path
         d="M 27987.9,11652.1 H 27810 v 177.9 c 0,22.2 -18.2,40.4 -40.4,40.4 -22.3,0 -40.5,-18.2 -40.5,-40.4 v -177.9 h -177.9 c -22.2,0 -40.4,-18.2 -40.4,-40.4 0,-22.3 18.2,-40.5 40.4,-40.5 h 177.9 v -177.9 c 0,-22.2 18.2,-40.4 40.5,-40.4 22.2,0 40.4,18.2 40.4,40.4 v 177.9 h 177.9 c 22.2,0 40.4,18.2 40.4,40.5 0,22.2 -18.2,40.4 -40.4,40.4"
         style="fill:#ffffff;fill-opacity:1;fill-rule:nonzero;stroke:none"
         id="path46" /><path
         d="m 7916.25,21663.3 h -2436.4 c -65.19,469.3 120.47,558.3 270.7,558.3 91.79,0 170.37,-33.2 170.37,-33.2 0,0 -21.01,378 105.01,525.1 32.68,38.1 87.93,52.2 151.87,52.2 182.69,0 436.23,-115.3 436.23,-115.3 23.06,230.6 128.4,290.4 263.9,290.4 111.34,0 243.05,-40.4 366.21,-59.3 273.04,-42 105.01,-525.1 105.01,-525.1 0,0 0,0 378.07,-21 378.07,-21 189.03,-672.1 189.03,-672.1"
         style="fill:#f9fcfe;fill-opacity:1;fill-rule:nonzero;stroke:none"
         id="path48" /><path
         d="m 15677.3,22251.4 h -1734.5 c -46.4,334.1 85.7,397.5 192.7,397.5 65.3,0 121.3,-23.7 121.3,-23.7 0,0 -15,269.2 74.7,373.8 23.3,27.2 62.6,37.2 108.2,37.2 130,0 310.5,-82 310.5,-82 16.4,164.1 91.4,206.7 187.9,206.7 79.3,0 173,-28.7 260.7,-42.2 194.4,-29.9 74.8,-373.9 74.8,-373.9 0,0 0,0 269.1,-14.9 269.2,-15 134.6,-478.5 134.6,-478.5"
         style="fill:#f9fcfe;fill-opacity:1;fill-rule:nonzero;stroke:none"
         id="path50" /><path
         d="m 27756.9,25387.6 h -1119 c -29.9,215.6 55.3,256.4 124.3,256.4 42.2,0 78.3,-15.2 78.3,-15.2 0,0 -9.7,173.6 48.2,241.1 15,17.6 40.4,24 69.8,24 83.9,0 200.3,-52.9 200.3,-52.9 10.6,105.9 59,133.3 121.2,133.3 51.2,0 111.7,-18.5 168.2,-27.2 125.4,-19.3 48.3,-241.2 48.3,-241.2 0,0 0,0 173.6,-9.6 173.6,-9.6 86.8,-308.7 86.8,-308.7"
         style="fill:#f9fcfe;fill-opacity:1;fill-rule:nonzero;stroke:none"
         id="path52" /><path
         d="m 26839.5,22179.3 h -3042.2 c -81.4,586.1 150.4,697.2 338,697.2 114.6,0 212.7,-41.5 212.7,-41.5 0,0 -26.2,472 131.2,655.6 40.7,47.6 109.7,65.3 189.6,65.3 228.1,0 544.7,-144 544.7,-144 28.8,288 160.3,362.5 329.5,362.5 139,0 303.5,-50.3 457.3,-74 340.9,-52.4 131.1,-655.6 131.1,-655.6 0,0 0,0 472.1,-26.2 472,-26.3 236,-839.3 236,-839.3"
         style="fill:#f9fcfe;fill-opacity:1;fill-rule:nonzero;stroke:none"
         id="path54" /><path
         d="m 20334.5,26420.6 h -1166.8 c -31.2,224.8 57.7,267.4 129.7,267.4 43.9,0 81.6,-15.9 81.6,-15.9 0,0 -10.1,181 50.3,251.4 15.6,18.3 42.1,25 72.7,25 87.5,0 208.9,-55.1 208.9,-55.1 11,110.4 61.5,139 126.3,139 53.4,0 116.4,-19.3 175.4,-28.4 130.8,-20.1 50.3,-251.5 50.3,-251.5 0,0 0,0 181,-10 181.1,-10.1 90.6,-321.9 90.6,-321.9"
         style="fill:#f9fcfe;fill-opacity:1;fill-rule:nonzero;stroke:none"
         id="path56" /><path
         d="M 3539.63,26291.3 H 2372.9 c -31.21,224.8 57.7,267.4 129.63,267.4 43.96,0 81.59,-15.9 81.59,-15.9 0,0 -10.06,181 50.29,251.4 15.65,18.3 42.11,25 72.73,25 87.48,0 208.89,-55.2 208.89,-55.2 11.05,110.5 61.48,139.1 126.37,139.1 53.32,0 116.4,-19.3 175.37,-28.4 130.76,-20.1 50.29,-251.5 50.29,-251.5 0,0 0,0 181.05,-10 181.04,-10.1 90.52,-321.9 90.52,-321.9"
         style="fill:#f9fcfe;fill-opacity:1;fill-rule:nonzero;stroke:none"
         id="path58" /><g
         id="g60"><g
           id="g62"
           clip-path="url(#clipPath66)"><path
             d="m 24117,18041.8 c -12.2,481.2 -306.1,1067.7 -285.1,1286.3 31.8,330 317.7,534.8 598.7,235.5 216.2,-230.4 236.4,-870.1 271.5,-1235.3 10.5,-109.5 97.9,-140.8 97.9,-140.8 0,0 8.4,3.8 22.9,10.3 -0.6,-2.7 -1,-5.4 -1.6,-8.1 l 68.7,24.5 c 0,0 -219.6,-188.9 53.2,-297.2 4.1,-1.6 8.2,-3.1 12.4,-4.7 0,0 -323,-110.6 -105.3,-317.8 0,0 -211.3,-168.3 -115.1,-317.6 0,0 -184.4,-89.3 -88.5,-239.6 l 532.5,-279.7 -29.2,0.3 c 0,0 -142,-254.3 -436.1,-408.8 -294.2,-154.5 101.3,-515.9 101.3,-515.9 l -214.4,28.1 c 0,0 -478.5,539.2 -415.7,1010.2 3.9,29.5 8.3,56.8 13.1,82 16.8,262.4 -63.5,392.7 -81.2,1088.3"
             style="fill:#df8867;fill-opacity:1;fill-rule:nonzero;stroke:none"
             id="path68" /><path
             d="m 24690,12950 -74.8,2159.4 c 0,0 12.5,304.7 -65,787.2 -26.1,162.3 -1.7,328.7 75.1,474 l 87.2,164.8 -391.9,119.7 c -50.1,85.3 -47.6,191.6 6.4,274.5 l 2.3,3.5 -18.9,32.2 c -45.8,78.1 -43.5,175.4 5.9,251.3 l 54.9,84.3 -31.6,39.7 c -75,94.4 -68.1,229.9 16.3,316.1 l -42.7,73.9 c -67.9,117.9 -40.6,267.5 64.7,353.5 136.4,111.4 318.9,261.3 437.3,361.8 78.3,66.5 185.6,85.7 282.2,50.6 373.2,-135.8 1069.3,-375.1 1079.1,-395.3 285.9,-588.4 172.7,-1100.2 -16.9,-1618.9 -41.8,-114.6 -75,-256.5 -168.5,-334.8 l -230.3,-427.2 25.4,-2240.2 c 0,0 -573.3,-601.5 -1096.2,-530.1"
             style="fill:#ee9e78;fill-opacity:1;fill-rule:nonzero;stroke:none"
             id="path70" /><path
             d="m 25950.6,17754.4 c -183.9,20.9 -898.6,288.7 -955.9,276.6 -57.3,-12.1 -581.6,-362.2 -581.6,-362.2 l 605.8,247.6 931.7,-162"
             style="fill:#df8867;fill-opacity:1;fill-rule:nonzero;stroke:none"
             id="path72" /><path
             d="m 25806.3,17305 c -184,21 -714.8,267.8 -772,255.7 -57.3,-12.1 -663.1,-259.8 -663.1,-259.8 l 687.3,145.3 747.8,-141.2"
             style="fill:#df8867;fill-opacity:1;fill-rule:nonzero;stroke:none"
             id="path74" /><path
             d="m 25972.5,16801.7 c -184,21 -943.8,219.3 -1001.1,207.2 -57.3,-12.1 -642.1,-75.8 -642.1,-75.8 l 666.3,-38.7 976.9,-92.7"
             style="fill:#df8867;fill-opacity:1;fill-rule:nonzero;stroke:none"
             id="path76" /><path
             d="m 25885.4,16364.5 c -183.9,20.9 -943.8,219.3 -1001.1,207.2 -57.3,-12.1 -551.8,62.9 -551.8,62.9 l 576,-177.4 976.9,-92.7"
             style="fill:#df8867;fill-opacity:1;fill-rule:nonzero;stroke:none"
             id="path78" /><path
             d="m 19891.5,6830 2120,-840 c 0,0 1240,-5320 1240,-6040 h -10080 c 0,0 200,3200 1600,5400 l 5120,1480"
             style="fill:#3b4073;fill-opacity:1;fill-rule:nonzero;stroke:none"
             id="path80" /><path
             d="m 20490.2,16061.9 3904.5,-5472 16.8,3680.1 1440,1000 454.1,-6029.5 c 75.6,-544 -192.7,-1083.8 -680.4,-1336.4 -130,-67.2 -277.3,-115.3 -442.5,-129.9 -813.1,-72 -4742.6,4947.4 -4742.6,4947.4 l 50.1,3340.3"
             style="fill:#424580;fill-opacity:1;fill-rule:nonzero;stroke:none"
             id="path82" /><path
             d="m 22784.7,10390 c -23.4,622 102.7,1203.2 378.4,1743.5 -6.1,45.5 -12.3,91 -18.4,136.5 -0.9,24.9 -1.5,49.7 -2,74.5 l -2652.5,3717.4 -50.1,-3340.3 c 0,0 1207,-1541.8 2421.6,-2904.1 -25.7,190.8 -51.3,381.7 -77,572.5"
             style="fill:#3b4073;fill-opacity:1;fill-rule:nonzero;stroke:none"
             id="path84" /><path
             d="m 15319.4,4496.6 1029.5,-637.3 c 0,0 441.3,-245.1 245.2,-1078.5 C 16397.9,1947.3 15172.3,1261 15172.3,1261 l -294.1,2206.1 -245.2,441.2 686.4,588.3"
             style="fill:#ee9e78;fill-opacity:1;fill-rule:nonzero;stroke:none"
             id="path86" /><path
             d="m 16846.8,8037 c -26,432.4 -625.8,2141.6 -797,3705.1 1115.3,-552.4 2312.4,-805.1 3591.6,-756.9 523.6,1.7 1036.3,43 1538.6,122.2 16.4,-694.3 143.9,-1350.7 54.5,-1779.9 -258.1,-1238.9 673.5,-3446.6 7,-3631.9 -554.2,-154 -1456.3,-95.8 -2091.4,-147.5 -772.9,-62.9 -1876.3,-79 -2692.4,201.3 -649,222.9 425.2,1685.2 389.1,2287.6"
             style="fill:#bfc2cb;fill-opacity:1;fill-rule:nonzero;stroke:none"
             id="path88" /><path
             d="m 16258,17528.6 c 0,0 179.8,587.4 1006,639.9 34.5,2.2 70.2,3.5 107.1,3.7 917.8,6.1 -1968.3,4690.5 -1968.3,4690.5 0,0 -493.8,-4292.2 855.2,-5334.1"
             style="fill:#220d15;fill-opacity:1;fill-rule:nonzero;stroke:none"
             id="path90" /><path
             d="m 17470.1,20426.6 c 0,0 416.6,-2447.3 274.9,-2988 -141.7,-540.7 -1215.8,-992.6 -1215.8,-992.6 0,0 2320.7,-1643.8 3198.2,-1144.8 877.6,499 784.4,272.3 784.4,272.3 0,0 -921.9,566 -1023.9,957.2 -101.9,391.2 -37.6,3774.7 -37.6,3774.7 l -1980.2,121.2"
             style="fill:#df8867;fill-opacity:1;fill-rule:nonzero;stroke:none"
             id="path92" /><path
             d="m 15600.2,20979.3 c 0,0 49.4,-1574.9 162.7,-2122.3 113.4,-547.4 1236,-1452.2 1520.4,-1617.2 284.5,-165.1 731,-94.6 731,-94.6 0,0 1430.9,893.4 1650.9,1272.7 220.1,379.2 617.1,2024.6 617.1,2024.6 0,0 254.1,2041.4 118.4,2694.3 -273.2,1314.5 -1413.4,1757.9 -2755.8,1497.6 -1342.4,-260.4 -1769,-405.8 -1907.8,-1453.2 -61.1,-461.1 -136.9,-2201.9 -136.9,-2201.9"
             style="fill:#ee9e78;fill-opacity:1;fill-rule:nonzero;stroke:none"
             id="path94" /><path
             d="m 15659,22099.6 859.4,-591 c 0,0 88.1,-30.4 68,43.8 -20,74.2 -587.5,509.9 -732.1,564 -144.5,54 -229.9,37.2 -195.3,-16.8"
             style="fill:#31141e;fill-opacity:1;fill-rule:nonzero;stroke:none"
             id="path96" /><path
             d="m 19075,22386.4 -1065.8,-507.2 c 0,0 -103,-17.8 -65.3,62.5 37.7,80.3 751.2,466.6 920.8,500.6 169.7,33.9 259.6,-1.3 210.3,-55.9"
             style="fill:#31141e;fill-opacity:1;fill-rule:nonzero;stroke:none"
             id="path98" /><path
             d="m 17287.7,19405.8 c -128,29.7 -280.4,77.3 -322.5,183 -33.1,83 8.1,182.6 126,304.6 205,212 107.6,1353.6 52.8,1775.5 l 97.4,7.1 c 0.5,-3.8 50.3,-389.7 67.2,-803.9 23,-564 -24.4,-910.9 -140.7,-1031.3 -94.2,-97.5 -131.2,-174 -109.9,-227.5 20.8,-52.2 101.5,-93 253.9,-128.4 l -24.2,-79.1"
             style="fill:#ef7a6d;fill-opacity:1;fill-rule:nonzero;stroke:none"
             id="path100" /><path
             d="m 20202.1,15986.5 -671.1,412.9 c 51.6,-1238.8 -720.8,-1402.1 -1316.7,-796 l -890.6,1355.1 -1724.9,-1185.8 c 0,0 1447.3,-6807.3 1506.1,-7787.3 36.1,-602.4 -1296.2,-2013.1 -647.2,-2236 816.1,-280.3 1919.5,-264.2 2692.4,-201.3 635.1,51.7 1537.2,-6.5 2091.4,147.5 666.5,185.3 -58.7,2134.9 -110.3,3425.4 -71.5,1787.9 309.7,2839.1 309.7,2839.1 l -1238.8,4026.4"
             style="fill:#d9dde9;fill-opacity:1;fill-rule:nonzero;stroke:none"
             id="path102" /><path
             d="m 18446.3,21002.3 c -11.7,-189.2 -130.8,-335.7 -265.9,-327.3 -135.1,8.4 -235.1,168.6 -223.3,357.7 11.7,189.2 130.8,335.7 265.9,327.3 135.1,-8.4 235.1,-168.5 223.3,-357.7"
             style="fill:#31141e;fill-opacity:1;fill-rule:nonzero;stroke:none"
             id="path104" /><path
             d="m 18440.9,21083.1 c 0,0 141.2,-55.4 342.7,126.2 0,0 -120.7,-474 -597.2,-401.1 l 254.5,274.9"
             style="fill:#31141e;fill-opacity:1;fill-rule:nonzero;stroke:none"
             id="path106" /><path
             d="m 16053.1,20913.5 c 18.2,-188.6 142.2,-331.1 277,-318.1 134.7,13 229.2,176.5 211,365.2 -18.2,188.6 -142.1,331 -276.9,318 -134.8,-13 -229.2,-176.4 -211.1,-365.1"
             style="fill:#31141e;fill-opacity:1;fill-rule:nonzero;stroke:none"
             id="path108" /><path
             d="m 16055.9,20994.4 c 0,0 -139.3,-60.1 -346.9,114.5 0,0 136.8,-469.5 610.5,-380.5 l -263.6,266"
             style="fill:#31141e;fill-opacity:1;fill-rule:nonzero;stroke:none"
             id="path110" /><path
             d="m 15866.7,22442.7 c 0,0 -895.9,-2687.9 391.3,-4914.1 0,0 -1510.5,1050.4 -1593.8,3591.5 -83.3,2541.2 628.1,3813.8 1091.6,4369 518.1,620.6 1460.1,933.4 1940.1,978.2 2223.8,207.8 2538.8,-996 2538.8,-996 0,0 1192.7,99.7 1493.6,-1373.4 204.7,-1002 21.9,-4164.6 -598.2,-5258.2 -475.5,-838.8 -1514,-1096.5 -1961.4,-1397 0,0 1515.8,3201.4 1115.6,4841.5 0,0 -85.2,436.2 -343.1,665.6 -655.6,583.1 -360.4,1368.1 -360.4,1368.1 -1781,-2066 -3531.1,-1470.9 -3714.1,-1875.2"
             style="fill:#603917;fill-opacity:1;fill-rule:nonzero;stroke:none"
             id="path112" /><path
             d="m 21728.3,24097.9 c -183.6,899 -699.1,1211.8 -1073.2,1319.4 -287.5,-636.1 -661.9,-1215.3 -1123.2,-1737.3 38.2,-233.9 148.2,-498 409.3,-730.2 257.9,-229.4 343.1,-665.6 343.1,-665.6 400.2,-1640.1 -1115.6,-4841.5 -1115.6,-4841.5 447.4,300.5 1559.7,552.6 1960.1,1140.9 707.4,1039.3 804.2,4512.3 599.5,5514.3"
             style="fill:#3d2412;fill-opacity:1;fill-rule:nonzero;stroke:none"
             id="path114" /><path
             d="m 15605.7,21121.2 c -301.8,-137.5 -608.5,-252.2 -919.9,-345 199.9,-2291.6 1572.2,-3247.6 1572.2,-3247.6 -713.9,1234.7 -756.2,2611.2 -652.3,3592.6"
             style="fill:#3d2412;fill-opacity:1;fill-rule:nonzero;stroke:none"
             id="path116" /><path
             d="m 20875.1,21300.1 c 0,0 203.2,503.1 628.4,231.1 425.2,-272.1 281.7,-999.9 21.8,-1229.4 -259.9,-229.4 -730.7,-691.3 -825.5,-636.3 -94.8,55 -183.5,207.9 -183.5,207.9 l 358.8,1426.7"
             style="fill:#ee9e78;fill-opacity:1;fill-rule:nonzero;stroke:none"
             id="path118" /><path
             d="m 21175,19700.9 c -9.3,-178.4 -161.4,-315.4 -339.8,-306.1 -178.3,9.3 -315.4,161.4 -306.1,339.8 9.3,178.4 161.5,315.4 339.8,306.1 178.4,-9.3 315.5,-161.4 306.1,-339.8"
             style="fill:#ffffff;fill-opacity:1;fill-rule:nonzero;stroke:none"
             id="path120" /><path
             d="m 17269.8,16904.6 c 0,0 3138.7,-4118.5 3395.7,-10025.6 0,0 -323.4,-1131.9 -646.8,-1832.6 C 19695.3,4345.7 18725.1,1165.5 17754.9,303.102 16784.7,-559.297 13442.8,1542.8 13442.8,1542.8 c 0,0 100.3,3035.7 3197.5,6442.6 0,0 -2227.3,5038.3 -2173.4,6224.2 53.9,1185.8 1185.8,2317.7 2802.9,2695"
             style="fill:#424580;fill-opacity:1;fill-rule:nonzero;stroke:none"
             id="path122" /><path
             d="m 19531,16399.4 c 0,0 1889.2,-3860.8 1619.6,-5531.7 -269.5,-1671 -539,-3503.6 -485.1,-4204.3 53.9,-700.7 1347.6,-5390.1 1778.8,-5767.4 431.2,-377.297 700.1,-85.801 700.1,-85.801 0,0 -309.7,4542.601 -1858.3,7381.701 0,0 -63.3,1664.5 98.4,2203.5 161.7,539 1248.8,979.4 1195,1787.9 -54,808.5 -1396.7,2099.7 -1551.5,2977.3 -234.2,1327 -796.3,699.8 -1497,1238.8"
             style="fill:#424580;fill-opacity:1;fill-rule:nonzero;stroke:none"
             id="path124" /><path
             d="m 16537,16709.2 c 0,0 826,-2064.8 929.2,-3148.8 l 1393.7,-722.7 -877.5,-980.8 c 0,0 2271.3,-2839.1 2529.4,-4284.5 0,0 -1445.4,3303.7 -2994,4232.9 l 877.6,980.8 -1187.3,619.4 c 0,0 -103.2,1548.6 -671.1,3303.7"
             style="fill:#3b4073;fill-opacity:1;fill-rule:nonzero;stroke:none"
             id="path126" /><path
             d="m 19944,16167.2 1084,-1780.9 -180.7,-800.1 748.5,-490.4 c 0,0 -722.7,-4336.1 -800.1,-4645.8 l 1058.2,4697.4 -774.3,464.6 129,825.9 -1264.6,1729.3"
             style="fill:#3b4073;fill-opacity:1;fill-rule:nonzero;stroke:none"
             id="path128" /><path
             d="m 14579.6,4411.6 2468.5,-1179.5 155.8,326 -2468.5,1179.6 -155.8,-326.1"
             style="fill:#3b4073;fill-opacity:1;fill-rule:nonzero;stroke:none"
             id="path130" /><path
             d="m 18524.3,19303.7 -1703,-283.3 c 0,0 -135.5,31.4 113,-433.6 194.9,-364.7 626.6,-265.1 626.6,-265.1 0,0 1100.6,273.2 963.4,982"
             style="fill:#c0272d;fill-opacity:1;fill-rule:nonzero;stroke:none"
             id="path132" /><path
             d="m 18517.8,19336 -1696.5,-315.6 c 0,0 -178.2,-60.1 129.1,-169.5 307.3,-109.4 1258.1,130 1258.1,130 0,0 392.7,176.4 309.3,355.1"
             style="fill:#ffffff;fill-opacity:1;fill-rule:nonzero;stroke:none"
             id="path134" /><path
             d="M 16072.9,16334.2 7940.27,20492.3 7825.94,17446.1 14844.5,13127 c 0,0 2668.1,447.8 1228.4,3207.2"
             style="fill:#424580;fill-opacity:1;fill-rule:nonzero;stroke:none"
             id="path136" /><path
             d="M 11614.4,13201.9 H 4077.06 c -367.4,0 -665.23,297.8 -665.23,665.2 v 11076.6 c 0,367.4 297.83,665.2 665.23,665.2 h 7537.34 c 367.4,0 665.3,-297.8 665.3,-665.2 V 13867.1 c 0,-367.4 -297.9,-665.2 -665.3,-665.2"
             style="fill:#3564ae;fill-opacity:1;fill-rule:nonzero;stroke:none"
             id="path138" /><path
             d="M 11668.7,13599.5 H 4022.81 v 11731 h 7645.89 v -11731"
             style="fill:#f1f1f2;fill-opacity:1;fill-rule:nonzero;stroke:none"
             id="path140" /><path
             d="M 10152.2,24932.9 H 5539.32 v 1114.7 h 4612.88 v -1114.7"
             style="fill:#d0d2d3;fill-opacity:1;fill-rule:nonzero;stroke:none"
             id="path142" /><path
             d="m 5956.86,22956.1 h -40 c -0.02,-170.3 -68.9,-324.1 -180.46,-435.7 -111.63,-111.6 -265.41,-180.5 -435.68,-180.5 -170.27,0 -324.05,68.9 -435.68,180.5 -111.56,111.6 -180.44,265.4 -180.46,435.7 0.02,170.2 68.9,324 180.46,435.7 111.63,111.5 265.41,180.4 435.68,180.4 170.27,0 324.05,-68.9 435.68,-180.4 111.56,-111.7 180.44,-265.5 180.46,-435.7 h 40 40 c 0.02,192.1 -77.98,366.4 -203.89,492.2 -125.85,125.9 -300.14,203.9 -492.25,203.9 -192.11,0 -366.39,-78 -492.24,-203.9 -125.92,-125.8 -203.92,-300.1 -203.9,-492.2 -0.02,-192.1 77.98,-366.4 203.9,-492.3 125.85,-125.9 300.13,-203.9 492.24,-203.9 192.11,0 366.4,78 492.25,203.9 125.91,125.9 203.91,300.2 203.89,492.3 h -40"
             style="fill:#26a9e0;fill-opacity:1;fill-rule:nonzero;stroke:none"
             id="path144" /><path
             d="M 10967.4,23297.5 H 6235.24 c -43.75,0 -79.55,35.8 -79.55,79.6 v 159 c 0,43.7 35.8,79.5 79.55,79.5 h 4732.16 c 43.7,0 79.5,-35.8 79.5,-79.5 v -159 c 0,-43.8 -35.8,-79.6 -79.5,-79.6"
             style="fill:#26a9e0;fill-opacity:1;fill-rule:nonzero;stroke:none"
             id="path146" /><path
             d="M 10967.4,22793.7 H 6235.24 c -43.75,0 -79.55,35.8 -79.55,79.5 v 159.1 c 0,43.7 35.8,79.5 79.55,79.5 h 4732.16 c 43.7,0 79.5,-35.8 79.5,-79.5 v -159.1 c 0,-43.7 -35.8,-79.5 -79.5,-79.5"
             style="fill:#26a9e0;fill-opacity:1;fill-rule:nonzero;stroke:none"
             id="path148" /><path
             d="M 10967.4,22296.5 H 6235.24 c -43.75,0 -79.55,35.8 -79.55,79.6 v 159 c 0,43.8 35.8,79.5 79.55,79.5 h 4732.16 c 43.7,0 79.5,-35.7 79.5,-79.5 v -159 c 0,-43.8 -35.8,-79.6 -79.5,-79.6"
             style="fill:#26a9e0;fill-opacity:1;fill-rule:nonzero;stroke:none"
             id="path150" /><path
             d="m 4658.29,23445 h 477.29 l 159.1,-371.2 c 0,0 875.03,954.6 1272.77,954.6 0,0 -981.1,-954.6 -981.1,-1431.9 h -609.87 l -318.19,848.5"
             style="fill:#29b473;fill-opacity:1;fill-rule:nonzero;stroke:none"
             id="path152" /><path
             d="m 5956.86,21099.9 h -40 c -0.02,-170.2 -68.9,-324 -180.46,-435.6 -111.63,-111.6 -265.41,-180.5 -435.68,-180.5 -170.27,0 -324.05,68.9 -435.68,180.5 -111.56,111.6 -180.44,265.4 -180.46,435.6 0.02,170.3 68.9,324.1 180.46,435.7 111.63,111.6 265.41,180.5 435.68,180.5 170.27,0 324.05,-68.9 435.68,-180.5 111.56,-111.6 180.44,-265.4 180.46,-435.7 h 40 40 c 0.02,192.2 -77.98,366.4 -203.89,492.3 -125.85,125.9 -300.14,203.9 -492.25,203.9 -192.11,0 -366.39,-78 -492.24,-203.9 -125.92,-125.9 -203.92,-300.1 -203.9,-492.3 -0.02,-192.1 77.98,-366.3 203.9,-492.2 125.85,-125.9 300.13,-203.9 492.24,-203.9 192.11,0 366.4,78 492.25,203.9 125.91,125.9 203.91,300.1 203.89,492.2 h -40"
             style="fill:#26a9e0;fill-opacity:1;fill-rule:nonzero;stroke:none"
             id="path154" /><path
             d="M 10967.4,21441.4 H 6235.24 c -43.75,0 -79.55,35.8 -79.55,79.5 v 159.1 c 0,43.7 35.8,79.5 79.55,79.5 h 4732.16 c 43.7,0 79.5,-35.8 79.5,-79.5 v -159.1 c 0,-43.7 -35.8,-79.5 -79.5,-79.5"
             style="fill:#26a9e0;fill-opacity:1;fill-rule:nonzero;stroke:none"
             id="path156" /><path
             d="M 10967.4,20937.6 H 6235.24 c -43.75,0 -79.55,35.8 -79.55,79.5 v 159.1 c 0,43.7 35.8,79.5 79.55,79.5 h 4732.16 c 43.7,0 79.5,-35.8 79.5,-79.5 v -159.1 c 0,-43.7 -35.8,-79.5 -79.5,-79.5"
             style="fill:#26a9e0;fill-opacity:1;fill-rule:nonzero;stroke:none"
             id="path158" /><path
             d="M 10967.4,20440.4 H 6235.24 c -43.75,0 -79.55,35.8 -79.55,79.5 v 159.1 c 0,43.7 35.8,79.5 79.55,79.5 h 4732.16 c 43.7,0 79.5,-35.8 79.5,-79.5 v -159.1 c 0,-43.7 -35.8,-79.5 -79.5,-79.5"
             style="fill:#26a9e0;fill-opacity:1;fill-rule:nonzero;stroke:none"
             id="path160" /><path
             d="m 4658.29,21588.9 h 477.29 l 159.1,-371.2 c 0,0 875.03,954.5 1272.77,954.5 0,0 -981.1,-954.5 -981.1,-1431.8 h -609.87 l -318.19,848.5"
             style="fill:#29b473;fill-opacity:1;fill-rule:nonzero;stroke:none"
             id="path162" /><path
             d="m 5956.86,19217.3 h -40 c -0.02,-170.3 -68.9,-324 -180.46,-435.7 -111.63,-111.5 -265.41,-180.4 -435.68,-180.4 -170.27,0 -324.05,68.9 -435.68,180.4 -111.56,111.7 -180.44,265.4 -180.46,435.7 0.02,170.3 68.9,324.1 180.46,435.7 111.63,111.6 265.41,180.4 435.68,180.5 170.27,-0.1 324.05,-68.9 435.68,-180.5 111.56,-111.6 180.44,-265.4 180.46,-435.7 h 40 40 c 0.02,192.1 -77.98,366.4 -203.89,492.3 -125.85,125.9 -300.14,203.9 -492.25,203.9 -192.11,0 -366.39,-78 -492.24,-203.9 -125.92,-125.9 -203.92,-300.2 -203.9,-492.3 -0.02,-192.1 77.98,-366.4 203.9,-492.2 125.85,-125.9 300.13,-203.9 492.24,-203.9 192.11,0 366.4,78 492.25,203.9 125.91,125.8 203.91,300.1 203.89,492.2 h -40"
             style="fill:#26a9e0;fill-opacity:1;fill-rule:nonzero;stroke:none"
             id="path164" /><path
             d="M 10967.4,19558.7 H 6235.24 c -43.75,0 -79.55,35.8 -79.55,79.6 v 159 c 0,43.8 35.8,79.6 79.55,79.6 h 4732.16 c 43.7,0 79.5,-35.8 79.5,-79.6 v -159 c 0,-43.8 -35.8,-79.6 -79.5,-79.6"
             style="fill:#26a9e0;fill-opacity:1;fill-rule:nonzero;stroke:none"
             id="path166" /><path
             d="M 10967.4,19054.9 H 6235.24 c -43.75,0 -79.55,35.8 -79.55,79.6 v 159 c 0,43.8 35.8,79.6 79.55,79.6 h 4732.16 c 43.7,0 79.5,-35.8 79.5,-79.6 v -159 c 0,-43.8 -35.8,-79.6 -79.5,-79.6"
             style="fill:#26a9e0;fill-opacity:1;fill-rule:nonzero;stroke:none"
             id="path168" /><path
             d="M 10967.4,18557.8 H 6235.24 c -43.75,0 -79.55,35.8 -79.55,79.5 v 159 c 0,43.8 35.8,79.6 79.55,79.6 h 4732.16 c 43.7,0 79.5,-35.8 79.5,-79.6 v -159 c 0,-43.7 -35.8,-79.5 -79.5,-79.5"
             style="fill:#26a9e0;fill-opacity:1;fill-rule:nonzero;stroke:none"
             id="path170" /><path
             d="m 4658.29,19706.2 h 477.29 l 159.1,-371.2 c 0,0 875.03,954.6 1272.77,954.6 0,0 -981.1,-954.6 -981.1,-1431.9 h -609.87 l -318.19,848.5"
             style="fill:#29b473;fill-opacity:1;fill-rule:nonzero;stroke:none"
             id="path172" /><path
             d="m 5956.86,17308.2 h -40 c -0.02,-170.3 -68.9,-324.1 -180.46,-435.7 -111.63,-111.6 -265.41,-180.5 -435.68,-180.5 -170.27,0 -324.05,68.9 -435.68,180.5 -111.56,111.6 -180.44,265.4 -180.46,435.7 0.02,170.2 68.9,324 180.46,435.6 111.63,111.6 265.41,180.5 435.68,180.5 170.27,0 324.05,-68.9 435.68,-180.5 111.56,-111.6 180.44,-265.4 180.46,-435.6 h 40 40 c 0.02,192.1 -77.98,366.4 -203.89,492.2 -125.86,125.9 -300.14,203.9 -492.25,203.9 -192.11,0 -366.39,-78 -492.24,-203.9 -125.92,-125.8 -203.92,-300.1 -203.9,-492.2 -0.02,-192.1 77.98,-366.4 203.9,-492.3 125.85,-125.9 300.13,-203.9 492.24,-203.9 192.11,0 366.4,78 492.25,203.9 125.91,125.9 203.91,300.2 203.89,492.3 h -40"
             style="fill:#26a9e0;fill-opacity:1;fill-rule:nonzero;stroke:none"
             id="path174" /><path
             d="M 10967.4,17649.6 H 6235.24 c -43.75,0 -79.55,35.8 -79.55,79.5 v 159.1 c 0,43.7 35.8,79.5 79.55,79.5 h 4732.16 c 43.7,0 79.5,-35.8 79.5,-79.5 v -159.1 c 0,-43.7 -35.8,-79.5 -79.5,-79.5"
             style="fill:#26a9e0;fill-opacity:1;fill-rule:nonzero;stroke:none"
             id="path176" /><path
             d="M 10967.4,17145.8 H 6235.24 c -43.75,0 -79.55,35.8 -79.55,79.5 v 159.1 c 0,43.7 35.8,79.5 79.55,79.5 h 4732.16 c 43.7,0 79.5,-35.8 79.5,-79.5 v -159.1 c 0,-43.7 -35.8,-79.5 -79.5,-79.5"
             style="fill:#26a9e0;fill-opacity:1;fill-rule:nonzero;stroke:none"
             id="path178" /><path
             d="M 10967.4,16648.6 H 6235.24 c -43.75,0 -79.55,35.8 -79.55,79.6 v 159 c 0,43.7 35.8,79.5 79.55,79.5 h 4732.16 c 43.7,0 79.5,-35.8 79.5,-79.5 v -159 c 0,-43.8 -35.8,-79.6 -79.5,-79.6"
             style="fill:#26a9e0;fill-opacity:1;fill-rule:nonzero;stroke:none"
             id="path180" /><path
             d="m 4658.29,17797.1 h 477.29 l 159.1,-371.2 c 0,0 875.03,954.5 1272.77,954.5 0,0 -981.1,-954.5 -981.1,-1431.8 h -609.87 l -318.19,848.5"
             style="fill:#29b473;fill-opacity:1;fill-rule:nonzero;stroke:none"
             id="path182" /><path
             d="m 5956.86,15399 h -40 c -0.02,-170.3 -68.9,-324 -180.46,-435.7 -111.63,-111.5 -265.41,-180.4 -435.68,-180.4 -170.27,0 -324.05,68.9 -435.68,180.4 -111.56,111.7 -180.44,265.4 -180.46,435.7 0.02,170.3 68.9,324.1 180.46,435.7 111.63,111.5 265.41,180.4 435.68,180.4 170.27,0 324.05,-68.9 435.68,-180.4 111.56,-111.6 180.44,-265.4 180.46,-435.7 h 40 40 c 0.02,192.1 -77.98,366.4 -203.89,492.3 -125.85,125.9 -300.14,203.9 -492.25,203.8 -192.11,0.1 -366.39,-77.9 -492.24,-203.8 -125.92,-125.9 -203.92,-300.2 -203.9,-492.3 -0.02,-192.1 77.98,-366.4 203.9,-492.2 125.85,-126 300.13,-204 492.24,-203.9 192.11,-0.1 366.4,77.9 492.25,203.9 125.91,125.8 203.91,300.1 203.89,492.2 h -40"
             style="fill:#26a9e0;fill-opacity:1;fill-rule:nonzero;stroke:none"
             id="path184" /><path
             d="M 10967.4,15740.4 H 6235.24 c -43.75,0 -79.55,35.8 -79.55,79.6 v 159 c 0,43.8 35.8,79.6 79.55,79.6 h 4732.16 c 43.7,0 79.5,-35.8 79.5,-79.6 v -159 c 0,-43.8 -35.8,-79.6 -79.5,-79.6"
             style="fill:#26a9e0;fill-opacity:1;fill-rule:nonzero;stroke:none"
             id="path186" /><path
             d="M 10967.4,15236.6 H 6235.24 c -43.75,0 -79.55,35.8 -79.55,79.6 v 159 c 0,43.8 35.8,79.6 79.55,79.6 h 4732.16 c 43.7,0 79.5,-35.8 79.5,-79.6 v -159 c 0,-43.8 -35.8,-79.6 -79.5,-79.6"
             style="fill:#26a9e0;fill-opacity:1;fill-rule:nonzero;stroke:none"
             id="path188" /><path
             d="M 10967.4,14739.5 H 6235.24 c -43.75,0 -79.55,35.7 -79.55,79.5 v 159 c 0,43.8 35.8,79.6 79.55,79.6 h 4732.16 c 43.7,0 79.5,-35.8 79.5,-79.6 v -159 c 0,-43.8 -35.8,-79.5 -79.5,-79.5"
             style="fill:#26a9e0;fill-opacity:1;fill-rule:nonzero;stroke:none"
             id="path190" /><path
             d="m 4658.29,15887.9 h 477.29 l 159.1,-371.2 c 0,0 875.03,954.6 1272.77,954.6 0,0 -981.1,-954.6 -981.1,-1431.9 h -609.87 l -318.19,848.5"
             style="fill:#29b473;fill-opacity:1;fill-rule:nonzero;stroke:none"
             id="path192" /><path
             d="m 4380.12,21385.1 -2053.12,891 c -245.01,106.3 -358.47,393.8 -252.15,638.8 l 22.45,51.7 c 106.32,245 393.77,358.5 638.77,252.2 l 2053.13,-891 c 245,-106.3 358.47,-393.8 252.15,-638.8 l -22.45,-51.7 c -106.33,-245 -393.77,-358.5 -638.78,-252.2"
             style="fill:#ee9e78;fill-opacity:1;fill-rule:nonzero;stroke:none"
             id="path194" /><path
             d="m 4359.56,20268.4 -2053.12,891 c -245,106.3 -358.47,393.7 -252.15,638.8 l 22.45,51.7 c 106.32,245 393.77,358.5 638.77,252.1 l 2053.13,-890.9 c 245,-106.4 358.47,-393.8 252.15,-638.8 l -22.46,-51.7 c -106.32,-245.1 -393.76,-358.5 -638.77,-252.2"
             style="fill:#ee9e78;fill-opacity:1;fill-rule:nonzero;stroke:none"
             id="path196" /><path
             d="m 4178.93,19393 -1839.66,798.3 c -219.52,95.3 -321.19,352.8 -225.93,572.4 l 20.12,46.3 c 95.27,219.5 352.82,321.2 572.36,225.9 l 1839.64,-798.3 c 219.54,-95.3 321.21,-352.8 225.94,-572.4 l -20.12,-46.3 c -95.26,-219.5 -352.83,-321.2 -572.35,-225.9"
             style="fill:#ee9e78;fill-opacity:1;fill-rule:nonzero;stroke:none"
             id="path198" /><path
             d="m 4063.04,18673.2 -1561.29,677.5 c -186.32,80.9 -272.6,299.5 -191.75,485.8 l 17.07,39.3 c 80.85,186.3 299.44,272.6 485.76,191.8 L 4374.12,19390 c 186.31,-80.8 272.6,-299.4 191.74,-485.7 l -17.07,-39.4 c -80.85,-186.3 -299.44,-272.6 -485.75,-191.7"
             style="fill:#ee9e78;fill-opacity:1;fill-rule:nonzero;stroke:none"
             id="path200" /></g></g></g></g></svg>
