<?xml version="1.0" encoding="UTF-8" standalone="no"?>
<svg
   xmlns:dc="http://purl.org/dc/elements/1.1/"
   xmlns:cc="http://creativecommons.org/ns#"
   xmlns:rdf="http://www.w3.org/1999/02/22-rdf-syntax-ns#"
   xmlns:svg="http://www.w3.org/2000/svg"
   xmlns="http://www.w3.org/2000/svg"
   xmlns:sodipodi="http://sodipodi.sourceforge.net/DTD/sodipodi-0.dtd"
   xmlns:inkscape="http://www.inkscape.org/namespaces/inkscape"
   version="1.1"
   id="svg2"
   xml:space="preserve"
   width="212.61586"
   height="191.27454"
   viewBox="0 0 212.61586 191.27454"
   sodipodi:docname="5283455.svg"
   inkscape:version="1.0.1 (3bc2e813f5, 2020-09-07)"><metadata
     id="metadata8"><rdf:RDF><cc:Work
         rdf:about=""><dc:format>image/svg+xml</dc:format><dc:type
           rdf:resource="http://purl.org/dc/dcmitype/StillImage" /><dc:title></dc:title></cc:Work></rdf:RDF></metadata><defs
     id="defs6"><clipPath
       clipPathUnits="userSpaceOnUse"
       id="clipPath22"><path
         d="M 80,1760 H 0 V 3330 H 160 V 2200 H 80 v -440"
         id="path20" /></clipPath><clipPath
       clipPathUnits="userSpaceOnUse"
       id="clipPath34"><path
         d="M 1790,2200 H 768.223 c 197.859,51.22 381.397,74.94 383.757,75.24 28.06,3.56 47.98,29.13 44.55,57.21 l -3.16,25.96 c 240.3,26.9 475.67,40.36 704.55,40.36 208.94,0 412.48,-11.21 609.52,-33.64 l -3.98,-32.68 c -3.43,-28.07 16.49,-53.65 44.55,-57.21 1.07,-0.14 39.42,-5.09 99.46,-15.24 H 1790 v -60 m -1261.328,0 H 160 v 1130 h 10 v -330 h 1780 v 20 h 1090 v -293.18 c -18.37,6.04 -36.6,11.83 -54.74,17.38 l 18.46,62.16 c 4.01,13.53 2.29,28.13 -4.78,40.35 -7.06,12.22 -18.84,21.01 -32.57,24.28 -330.52,78.86 -665,118.28 -1001.4,118.28 -394.19,0 -791.03,-54.11 -1187.353,-162.27 -27.312,-7.46 -43.457,-35.59 -36.117,-62.93 l 2.922,-10.87 c -104.188,-30.63 -212.172,-69.3 -328.516,-117.61 -18.562,-7.71 -30.933,-25.53 -31.66,-45.61 -0.726,-20.1 10.32,-38.76 28.277,-47.79 l 220.864,-111.07 -99.899,-212.15 c -2.859,-6.08 -4.449,-12.52 -4.816,-18.97"
         id="path32" /></clipPath><clipPath
       clipPathUnits="userSpaceOnUse"
       id="clipPath76"><path
         d="M 3640,0 H 1790 v 30 h 610 v 40 h 700 V 40 h 540 V 0"
         id="path74" /></clipPath><clipPath
       clipPathUnits="userSpaceOnUse"
       id="clipPath88"><path
         d="m 3100,70 h -700 v 531.801 c 8.69,-0.922 17.51,-1.391 26.43,-1.391 h 11.46 v -32.551 c 0,-32.168 13.77,-78.488 79.37,-116.371 78.82,-45.508 215.12,-68.308 351.1,-68.308 81.48,0 162.85,8.179 231.64,24.582 L 3100,70 M 2400,1349.69 V 1760 h 451.28 c -0.03,-2.55 -0.19,-5.08 -0.51,-7.59 -2.8,-22.48 -18.41,-46.13 -34.92,-71.17 -6.06,-9.17 -12.03,-18.26 -17.5,-27.34 -11.34,-18.82 -24.47,-44.06 -29.78,-74.1 -330.65,-14.38 -330.68,-90.6 -330.68,-116.43 v -112.3 h -11.46 c -8.92,0 -17.74,-0.47 -26.43,-1.38 m 700,218.15 c -31.59,4.29 -66.32,7.67 -103.1,10.04 32.02,41.52 48.99,96.6 47.23,152.12 H 3100 v -162.16"
         id="path86" /></clipPath><clipPath
       clipPathUnits="userSpaceOnUse"
       id="clipPath100"><path
         d="M 2851.28,1760 H 2400 v 440 h -610 v 60 h 857.47 c 96.38,-16.3 248.69,-45.99 392.53,-90.66 v -401.8 c -9.05,45.05 -38.2,82.86 -82.5,106.85 -30.15,16.33 -62.66,24.15 -90.48,29.65 -3.24,0.63 -6.49,0.94 -9.69,0.94 -19.1,0 -36.89,-10.93 -45.25,-28.72 -9.77,-20.77 -4.14,-45.52 13.66,-60.03 16,-13.05 25.74,-34.91 25.54,-56.23"
         id="path98" /></clipPath><clipPath
       clipPathUnits="userSpaceOnUse"
       id="clipPath112"><path
         d="m 3040,2169.34 c -143.84,44.67 -296.15,74.36 -392.53,90.66 h 256.67 c 44.52,-10.86 90.44,-23.13 135.86,-36.88 v -53.78"
         id="path110" /></clipPath><clipPath
       clipPathUnits="userSpaceOnUse"
       id="clipPath124"><path
         d="m 3040,2223.12 c -45.42,13.75 -91.34,26.02 -135.86,36.88 H 3040 v -36.88"
         id="path122" /></clipPath><clipPath
       clipPathUnits="userSpaceOnUse"
       id="clipPath176"><path
         d="M 5230,40 H 3640 v 30 h 1520 v 1660 h 70 V 40"
         id="path174" /></clipPath><clipPath
       clipPathUnits="userSpaceOnUse"
       id="clipPath182"><path
         d="M 3640,40 H 5230 V 1730 H 3640 Z"
         id="path180" /></clipPath><clipPath
       clipPathUnits="userSpaceOnUse"
       id="clipPath194"><path
         d="M 5160,70 H 3640 v 610.75 l 12.52,-15.73 c 9.86,-12.411 24.44,-18.872 39.15,-18.872 1.76,0 3.51,0.254 5.27,0.434 1.3,-5.434 3.4,-10.781 6.62,-15.723 l 35.12,-53.867 c 8.02,-12.312 21.05,-20.472 35.62,-22.312 2.1,-0.27 4.21,-0.399 6.3,-0.399 4.01,0 7.96,0.481 11.81,1.43 4.01,-6.34 9.48,-11.832 16.21,-15.941 l 39.15,-23.899 c 7.15,-4.359 15.07,-6.762 23.03,-7.223 0.94,-2.5 2.08,-4.949 3.43,-7.289 6.75,-11.769 18,-20.289 31.15,-23.609 l 56.26,-14.18 c 4.1,-1.039 8.21,-1.539 12.27,-1.539 22.31,0 42.64,15.059 48.4,37.668 l 41.13,161.36 c 10.35,-3.098 20.86,-5.84 31.46,-8.309 -10.04,-15.191 -15.79,-33.352 -16.41,-53.609 v -0.032 c -0.46,-15.589 2.09,-30.5 7.59,-44.3 2.39,-6 5.27,-11.618 8.6,-16.848 -1.88,-6.902 -2.95,-14.231 -3.2,-21.891 -0.92,-30.461 11.12,-57.41 33.91,-75.859 19.36,-15.699 43.69,-24.102 72.29,-24.981 2.13,-0.07 4.31,-0.101 6.53,-0.101 10.16,0 21.25,0.68 33.05,2.043 17.28,1.988 31.58,5.629 43.72,11.09 12.92,5.828 22.51,16.758 26.86,29.808 12.26,-7.398 25.43,-13.191 39.65,-16.851 11.84,-3.059 23.74,-4.578 35.63,-4.578 13.18,0 26.34,1.871 39.39,5.609 24.81,7.109 46.52,20.141 64.55,38.73 10.3,10.629 18.58,22.54 25.23,35.34 9.77,-11.218 23.61,-17.218 37.67,-17.218 9.46,0 19.01,2.679 27.45,8.238 l 93.79,61.699 c 21.42,14.082 28.7,42.082 16.88,64.82 l -23.27,44.789 c -6.53,12.571 -18.09,21.782 -31.81,25.34 -3.25,0.844 -6.54,1.344 -9.84,1.532 l 5.17,11.472 c 9.22,20.496 3.63,44.629 -13.65,58.988 -8.39,6.961 -17.74,12.282 -27.76,16.301 96.8,95.918 156.87,228.829 156.87,375.519 0,68 -12.65,133.84 -37.64,196.18 l 151.89,181.42 c 8.51,10.17 12.63,23.3 11.46,36.52 -1.17,13.21 -7.54,25.41 -17.71,33.92 L 4715.41,1730 H 5160 V 70 m -642.02,1531.16 c -88.51,61.94 -194.41,95.6 -303.14,95.6 -22.36,0 -44.35,-1.55 -65.98,-4.27 -0.34,1.24 -0.49,2.48 -0.93,3.71 l -12.16,33.8 h 490.08 L 4517.98,1601.16 M 3640,1633.56 V 1730 h 70.33 l -14.08,-9.86 c -11.17,-7.83 -18.65,-19.87 -20.73,-33.36 -2.07,-13.48 1.45,-27.22 9.76,-38.05 l 0.3,-0.38 c -14.74,-2.22 -29.04,-6.69 -42.78,-13.39 -0.94,-0.46 -1.87,-0.92 -2.8,-1.4"
         id="path192" /></clipPath><clipPath
       clipPathUnits="userSpaceOnUse"
       id="clipPath206"><path
         d="m 3100,40 h 540 v 30 h -540 z"
         id="path204" /></clipPath><clipPath
       clipPathUnits="userSpaceOnUse"
       id="clipPath218"><path
         d="m 3640,70 h -540 v 337.762 c 44.98,10.718 84.59,24.949 115.34,42.699 63.37,36.578 78.6,81.238 79.69,113.57 0.1,1.289 0.15,2.598 0.15,3.918 v 895.421 c 0,1.81 -0.1,3.6 -0.29,5.35 -4.14,56.11 -73.73,77.25 -141.84,90.48 -16.41,3.19 -34.17,6.08 -53.05,8.64 V 1730 h 540 v -96.44 c -21.91,-11.26 -39.94,-27.41 -53.61,-48.04 -14.27,-21.5 -22.35,-45.5 -24.01,-71.34 -1.61,-25.41 2.97,-49.91 13.62,-72.81 0.43,-0.96 1.03,-1.8 1.49,-2.73 -25.66,-7.83 -47.69,-21.96 -65.46,-42.15 -17.05,-19.39 -29.26,-43.09 -36.25,-70.33 -2.97,-11.47 -4.6,-22.42 -4.86,-32.62 -0.24,-9.29 0.43,-19.18 2.02,-30.23 1.98,-13.71 9.56,-25.99 20.94,-33.9 6.7,-4.66 14.36,-7.56 22.3,-8.57 l 105.49,-28.7 c -7.49,-3.52 -14.18,-8.68 -19.16,-15.49 -7.95,-10.87 -11.18,-24.48 -8.97,-37.76 l 3.15,-18.81 -83.12,-12.3 c -13.6,-2.02 -25.78,-9.55 -33.66,-20.82 -7.87,-11.27 -10.76,-25.3 -7.98,-38.76 l 10.08,-48.751 c 4.85,-23.5 25.55,-39.89 48.92,-39.89 2.25,0 4.55,0.16 6.84,0.472 l 88.49,12.141 0.49,-1.113 -77.61,-32.188 c -12.71,-5.269 -22.69,-15.551 -27.58,-28.402 -4.89,-12.86 -4.28,-27.16 1.71,-39.539 l 21.66,-44.821 c 4.32,-8.937 10.97,-16.019 18.89,-20.859 -2.8,-13.969 0.16,-28.961 9.68,-40.93 L 3640,680.75 V 70"
         id="path216" /></clipPath><clipPath
       clipPathUnits="userSpaceOnUse"
       id="clipPath230"><path
         d="m 3100,407.762 v 51.57 c 85.62,21.918 145.09,58.039 145.1,108.527 l 0.07,0.09 v 895.421 h -0.07 c 0,21.93 -56.77,41.45 -145.1,54.01 v 50.46 c 18.88,-2.56 36.64,-5.45 53.05,-8.64 68.11,-13.23 137.7,-34.37 141.84,-90.48 0.19,-1.75 0.29,-3.54 0.29,-5.35 V 567.949 c 0,-1.32 -0.05,-2.629 -0.15,-3.918 -1.09,-32.332 -16.32,-76.992 -79.69,-113.57 -30.75,-17.75 -70.36,-31.981 -115.34,-42.699"
         id="path228" /></clipPath><clipPath
       clipPathUnits="userSpaceOnUse"
       id="clipPath242"><path
         d="m 3100,459.332 v 345.789 c 1.1,-4.769 3.48,-9.07 7.16,-12.922 5.23,-5.488 11.78,-8.23 19.66,-8.23 7.69,0 14.12,2.742 19.27,8.23 5.17,5.492 7.74,12.172 7.74,20.031 0,8.02 -2.49,14.411 -7.48,19.161 -5,4.75 -11.11,7.121 -18.31,7.121 -4.92,0 -9.58,-1.18 -14.01,-3.563 -4.42,-2.367 -7.98,-5.648 -10.68,-9.828 -1.58,-2.43 -2.7,-4.992 -3.35,-7.68 v 138.778 l 1.99,-99.887 48.4,4.18 0.25,254.258 H 3100 v 294.6 c 88.33,12.55 145.1,32.08 145.1,54 v 0 h 0.07 V 567.949 l -0.07,-0.09 C 3245.09,517.371 3185.62,481.25 3100,459.332"
         id="path240" /></clipPath><clipPath
       clipPathUnits="userSpaceOnUse"
       id="clipPath254"><path
         d="m 3100,1409.37 v 28.13 c 45.45,6.97 72.87,16 72.87,25.87 0,9.87 -27.42,18.91 -72.87,25.88 v 28.13 c 88.33,-12.56 145.1,-32.08 145.1,-54.01 v 0 c 0,-21.92 -56.77,-41.45 -145.1,-54"
         id="path252" /></clipPath><clipPath
       clipPathUnits="userSpaceOnUse"
       id="clipPath266"><path
         d="m 3100,1437.5 v 51.75 c 45.45,-6.97 72.87,-16.01 72.87,-25.88 0,-9.87 -27.42,-18.9 -72.87,-25.87"
         id="path264" /></clipPath><clipPath
       clipPathUnits="userSpaceOnUse"
       id="clipPath278"><path
         d="m 3126.82,783.969 c -7.88,0 -14.43,2.742 -19.66,8.23 -3.68,3.852 -6.06,8.153 -7.16,12.922 v 12.32 c 0.65,2.688 1.77,5.25 3.35,7.68 2.7,4.18 6.26,7.461 10.68,9.828 4.43,2.383 9.09,3.563 14.01,3.563 7.2,0 13.31,-2.371 18.31,-7.121 4.99,-4.75 7.48,-11.141 7.48,-19.161 0,-7.859 -2.57,-14.539 -7.74,-20.031 -5.15,-5.488 -11.58,-8.23 -19.27,-8.23"
         id="path276" /></clipPath><clipPath
       clipPathUnits="userSpaceOnUse"
       id="clipPath290"><path
         d="m 3101.99,856.332 -1.99,99.887 v 158.551 h 50.64 l -0.25,-254.258 -48.4,-4.18"
         id="path288" /></clipPath><clipPath
       clipPathUnits="userSpaceOnUse"
       id="clipPath302"><path
         d="m 4210.05,515.25 1.79,5.93 -0.17,-5.871 -1.62,-0.059 m 174.5,61.199 c -0.54,0 -1.18,0.063 -1.78,0.211 l -1.52,0.82 -1.44,2.141 c -0.1,0.41 -0.21,1.68 0.12,2.981 l 8.06,-2.082 -0.25,-1.938 -0.77,-1.312 -1.18,-0.7 c -0.26,-0.058 -0.71,-0.121 -1.24,-0.121 m 3.44,4.082 -8.05,2.078 c 0.26,1.039 0.9,2.039 1.31,2.45 l 0.97,0.863 1.18,-0.07 2.4,-1.262 c 1.13,-1.031 1.91,-2.469 2.09,-3.059 l 0.1,-1 m -174.31,0.528 -1.52,0.121 -4.49,7.011 5.63,11.508 0.96,-0.039 -0.58,-18.601"
         id="path300" /></clipPath><clipPath
       clipPathUnits="userSpaceOnUse"
       id="clipPath314"><path
         d="m 3619.97,1296.23 -1.4,0.38 c -1.36,1.3 -2.96,3.23 -4.2,5.8 -0.49,1.03 -0.71,2.1 -0.79,2.82 l 2.5,-0.06 9.55,-4.46 -1.12,-1.38 c -1.57,-1.61 -3.31,-2.6 -4.54,-3.1"
         id="path312" /></clipPath><clipPath
       clipPathUnits="userSpaceOnUse"
       id="clipPath326"><path
         d="m 3706.61,1501.01 c -1.63,0.05 -3.08,0.67 -3.54,0.97 -0.42,0.31 -1.25,1.22 -1.74,2.22 l 9.1,-0.64 -0.22,-1.28 -0.87,-0.68 -2.73,-0.59 m 3.83,2.67 -9.16,0.63 -0.27,1.51 0.48,1.32 c 0.31,0.44 1.24,1.33 2.28,1.83 l 1.77,0.39 c 1.03,-0.05 2.1,-0.47 2.48,-0.72 0.33,-0.23 1.2,-1.09 1.82,-2.37 0.46,-0.94 0.63,-2.11 0.6,-2.59"
         id="path324" /></clipPath><clipPath
       clipPathUnits="userSpaceOnUse"
       id="clipPath368"><path
         d="M 1790,30 H 80 v 1730 h 80 V 70 H 1790 V 30"
         id="path366" /></clipPath><clipPath
       clipPathUnits="userSpaceOnUse"
       id="clipPath380"><path
         d="M 160,70 H 1790 V 1760 H 160 Z"
         id="path378" /></clipPath><clipPath
       clipPathUnits="userSpaceOnUse"
       id="clipPath392"><path
         d="m 80,1760 h 80 v 440 H 80 Z"
         id="path390" /></clipPath><clipPath
       clipPathUnits="userSpaceOnUse"
       id="clipPath404"><path
         d="M 1790,1760 H 160 v 440 h 368.672 c -0.766,-13.46 3.777,-26.97 13.156,-37.37 9.93,-11 23.879,-16.97 38.176,-16.97 5.699,0 11.445,0.94 17.019,2.91 55.579,19.51 113.985,36.62 171.2,51.43 H 1790 v -440"
         id="path402" /></clipPath><clipPath
       clipPathUnits="userSpaceOnUse"
       id="clipPath416"><path
         d="m 580.004,2145.66 c -14.297,0 -28.246,5.97 -38.176,16.97 -9.379,10.4 -13.922,23.91 -13.156,37.37 h 52.699 l -1.375,-2.93 c 2.797,0.98 5.594,1.96 8.406,2.93 h 179.821 c -57.215,-14.81 -115.621,-31.92 -171.2,-51.43 -5.574,-1.97 -11.32,-2.91 -17.019,-2.91"
         id="path414" /></clipPath><clipPath
       clipPathUnits="userSpaceOnUse"
       id="clipPath428"><path
         d="m 579.996,2197.07 1.375,2.93 h 7.031 c -2.812,-0.97 -5.609,-1.95 -8.406,-2.93"
         id="path426" /></clipPath><clipPath
       clipPathUnits="userSpaceOnUse"
       id="clipPath440"><path
         d="m 1790,30 h 610 v 40 h -610 z"
         id="path438" /></clipPath><clipPath
       clipPathUnits="userSpaceOnUse"
       id="clipPath452"><path
         d="m 2400,70 h -610 v 1690 h 610 v -410.31 c -125.98,-13.25 -224.48,-120.11 -224.48,-249.54 V 851.332 c 0,-129.422 98.5,-236.293 224.48,-249.531 V 70"
         id="path450" /></clipPath><clipPath
       clipPathUnits="userSpaceOnUse"
       id="clipPath464"><path
         d="m 1790,1760 h 610 v 440 h -610 z"
         id="path462" /></clipPath><clipPath
       clipPathUnits="userSpaceOnUse"
       id="clipPath476"><path
         d="m 2400,601.801 c -125.98,13.238 -224.48,120.109 -224.48,249.531 v 248.818 c 0,129.43 98.5,236.29 224.48,249.54 v -50.35 c -98.34,-12.99 -174.49,-97.36 -174.49,-199.19 v -12.41 c -0.31,-4.66 -0.47,-9.36 -0.47,-14.1 h 0.47 V 851.332 c 0,-101.832 76.15,-186.203 174.49,-199.191 v -50.34 m 0,161.668 c -34.7,10.461 -60.81,40.972 -64.78,78 v 11.613 h -0.53 v 247.068 c 0,41.4 27.57,76.48 65.31,87.86 V 763.469"
         id="path474" /></clipPath><clipPath
       clipPathUnits="userSpaceOnUse"
       id="clipPath488"><path
         d="m 2400,652.141 c -98.34,12.988 -174.49,97.359 -174.49,199.191 v 222.308 h 9.53 c 0,98.52 71.82,180.3 164.96,193.92 v -79.55 c -37.74,-11.38 -65.31,-46.46 -65.31,-87.86 V 853.082 h -9.47 v -28.273 c 0,-45.067 31.84,-83.039 74.78,-93.727 v -78.941 m 0,89.281 c -37.36,10.398 -64.78,43.84 -64.78,83.387 v 16.66 c 3.97,-37.028 30.08,-67.539 64.78,-78 v -22.047 m -174.49,346.318 v 12.41 c 0,101.83 76.15,186.2 174.49,199.19 v -21.68 c -94.18,-13.06 -167.96,-92.25 -174.49,-189.92"
         id="path486" /></clipPath><clipPath
       clipPathUnits="userSpaceOnUse"
       id="clipPath500"><path
         d="m 2400,731.082 c -42.94,10.688 -74.78,48.66 -74.78,93.727 v 28.273 h 9.47 0.53 v -11.613 -16.66 c 0,-39.547 27.42,-72.989 64.78,-83.387 v -10.34 m -164.96,342.558 h -9.53 -0.47 c 0,4.74 0.16,9.44 0.47,14.1 6.53,97.67 80.31,176.86 174.49,189.92 v -10.1 c -93.14,-13.62 -164.96,-95.4 -164.96,-193.92"
         id="path498" /></clipPath><clipPath
       clipPathUnits="userSpaceOnUse"
       id="clipPath552"><path
         d="m 2940,3330 h -990 v 67.95 c 9.9,-2.28 20.21,-3.48 30.8,-3.48 H 2940 V 3330"
         id="path550" /></clipPath><clipPath
       clipPathUnits="userSpaceOnUse"
       id="clipPath558"><path
         d="m 1950,3330 h 990 v 67.9492 h -990 z"
         id="path556" /></clipPath><clipPath
       clipPathUnits="userSpaceOnUse"
       id="clipPath570"><path
         d="M 3040,3020 H 1950 v 310 h 990 v -310 h 100 v 0"
         id="path568" /></clipPath><clipPath
       clipPathUnits="userSpaceOnUse"
       id="clipPath582"><path
         d="M 1950,4313.99 V 5040 h 990 v -696.48 l -13.42,10.65 v 191.35 c 0,44.34 -36.07,80.41 -80.42,80.41 h -261.92 l -35.21,27.96 c -25.14,19.96 -55.28,29.94 -85.43,29.94 -30.14,0 -60.28,-9.98 -85.44,-29.94 l -35.19,-27.96 h -261.93 c -44.34,0 -80.42,-36.07 -80.42,-80.41 V 4354.18 L 1950,4313.99"
         id="path580" /></clipPath><clipPath
       clipPathUnits="userSpaceOnUse"
       id="clipPath624"><path
         d="m 5290,1730 h -60 v 520 h -70 v 770 h 130 V 1730"
         id="path622" /></clipPath><clipPath
       clipPathUnits="userSpaceOnUse"
       id="clipPath636"><path
         d="m 5160,2250 h -520.54 c 5.27,2.31 10.11,5.58 14.26,9.72 l 41.75,41.55 c 8.68,8.65 13.62,20.35 13.78,32.59 0.88,-0.05 1.76,-0.08 2.63,-0.08 4.13,0 8.19,0.58 12.11,1.65 7.51,1.97 14.48,5.76 20.25,11.16 l 37.04,34.76 c 18.75,17.59 19.79,47.04 2.32,65.92 l -71.66,77.45 0.71,1.41 85.46,-45.38 c 6.83,-3.62 14.37,-5.45 21.95,-5.45 4.93,0 9.88,0.77 14.65,2.35 12.12,3.98 22.08,12.75 27.57,24.26 l 21.6,45.18 c 10.84,22.63 1.88,49.77 -20.27,61.53 l -59.22,31.44 0.59,-0.14 c 3.23,-0.77 6.5,-1.14 9.77,-1.21 6.68,-4.74 14.05,-8.47 22.03,-10.74 6.89,-1.96 13.84,-2.93 20.73,-2.93 12.08,0 23.98,2.99 35.13,8.9 18.12,9.53 31.22,25.78 36.92,45.84 5.62,19.91 2.92,40.56 -7.62,58.15 -10.13,16.94 -25.7,28.78 -45.01,34.26 -7.23,2.06 -14.4,3.05 -21.42,3.05 -2.33,0 -4.63,-0.1 -6.93,-0.32 -3.25,1.88 -6.68,3.52 -10.45,4.6 l -113.93,32.6 c -4.2,1.19 -8.5,1.58 -12.79,1.58 4.2,14.3 4.31,29.82 -0.54,44.76 l -13.45,41.4 35.21,25.57 c 26.65,19.36 37.71,53.42 27.54,84.74 -1.11,3.41 -2.44,6.69 -3.97,9.83 H 5160 v -770 m -1431.7,0 H 3660 v 78.21 c 0.45,-1.28 0.92,-2.56 1.41,-3.84 9.26,-24.25 25.26,-45.05 47.58,-61.86 6.25,-4.69 12.7,-8.87 19.31,-12.51 m -68.3,631.86 v 22.24 l 5.85,-4.25 -5.85,-17.99"
         id="path634" /></clipPath><clipPath
       clipPathUnits="userSpaceOnUse"
       id="clipPath648"><path
         d="m 3660,2250 h -20 v 10 h -492.81 l -80.58,171.12 220.86,111.07 c 17.96,9.03 29,27.69 28.28,47.79 -0.73,20.08 -13.1,37.9 -31.67,45.61 -85.15,35.36 -165.8,65.52 -244.08,91.23 V 3020 h 400 167.06 c -1.53,-3.14 -2.85,-6.42 -3.96,-9.82 -10.17,-31.33 0.88,-65.39 27.53,-84.75 L 3660,2904.1 v -22.24 l -7.61,-23.41 c -2.11,-6.49 -3.09,-13.11 -3.43,-19.68 -2.67,0.44 -5.39,0.67 -8.13,0.67 -4.99,0 -10.04,-0.78 -15.01,-2.55 l -181.09,-64.18 c -23.83,-8.44 -36.64,-34.28 -28.96,-58.35 l 40.81,-127.82 c 6.35,-19.9 24.75,-32.58 44.57,-32.58 l 2.46,0.18 0.62,-57.23 c 0.27,-24.99 20.12,-45.36 45.1,-46.27 l 5.94,-0.22 -1.43,-4.18 c -7.73,-22.53 2.68,-47.26 24.2,-57.47 l 52.32,-24.84 c 6.36,-3.02 13.21,-4.52 20.08,-4.52 l 2.48,0.25 c 1.13,-10.63 3.47,-21.13 7.08,-31.45 V 2250"
         id="path646" /></clipPath><clipPath
       clipPathUnits="userSpaceOnUse"
       id="clipPath660"><path
         d="m 3147.19,2260 h -56.82 L 3040,2366.97 v 108.31 l 224.37,112.84 c -75.21,31.23 -150.04,59.63 -224.37,84.57 v 54.13 c 78.28,-25.71 158.93,-55.87 244.08,-91.23 18.57,-7.71 30.94,-25.53 31.67,-45.61 0.72,-20.1 -10.32,-38.76 -28.28,-47.79 L 3066.61,2431.12 3147.19,2260"
         id="path658" /></clipPath><clipPath
       clipPathUnits="userSpaceOnUse"
       id="clipPath672"><path
         d="M 3090.37,2260 H 3040 v 106.97 L 3090.37,2260 M 3040,2475.28 v 197.41 c 74.33,-24.94 149.16,-53.34 224.37,-84.57 L 3040,2475.28"
         id="path670" /></clipPath><clipPath
       clipPathUnits="userSpaceOnUse"
       id="clipPath684"><path
         d="m 3100,1730 h -55.87 c -0.32,10.01 -1.25,20.04 -2.8,30 H 3100 v -30"
         id="path682" /></clipPath><clipPath
       clipPathUnits="userSpaceOnUse"
       id="clipPath696"><path
         d="m 3100,1760 h -58.67 c -0.16,1 -0.32,2 -0.49,3 -0.26,1.52 -0.54,3.04 -0.84,4.54 v 401.8 c 20.22,-6.28 40.29,-12.85 60,-19.73 V 1760 m 540,490 h -488.1 l -4.71,10 H 3640 v -10"
         id="path694" /></clipPath><clipPath
       clipPathUnits="userSpaceOnUse"
       id="clipPath708"><path
         d="m 3100,2149.61 c -19.71,6.88 -39.78,13.45 -60,19.73 v 53.78 c 20.16,-6.1 40.19,-12.48 60,-19.16 v -54.35 m 0,89.94 -9.63,20.45 h 56.82 l 4.71,-10 H 3100 v -10.45"
         id="path706" /></clipPath><clipPath
       clipPathUnits="userSpaceOnUse"
       id="clipPath720"><path
         d="m 3100,2203.96 c -19.81,6.68 -39.84,13.06 -60,19.16 V 2260 h 50.37 l 9.63,-20.45 v -35.59"
         id="path718" /></clipPath><clipPath
       clipPathUnits="userSpaceOnUse"
       id="clipPath732"><path
         d="M 3044.13,1730 H 3040 v 37.54 c 0.3,-1.5 0.58,-3.02 0.84,-4.54 0.17,-1 0.33,-2 0.49,-3 1.55,-9.96 2.48,-19.99 2.8,-30"
         id="path730" /></clipPath><clipPath
       clipPathUnits="userSpaceOnUse"
       id="clipPath744"><path
         d="m 5160,1730 h 70 v 520 h -70 z"
         id="path742" /></clipPath><clipPath
       clipPathUnits="userSpaceOnUse"
       id="clipPath756"><path
         d="m 5160,1730 h -444.59 l -14.33,11.99 c -9.35,7.84 -20.73,11.66 -32.05,11.66 -14.29,0 -28.49,-6.09 -38.38,-17.9 l -4.8,-5.75 h -490.08 l -4.98,13.85 c -4.3,11.93 -12.94,21.76 -24.17,27.54 l -7.47,17.96 c 4.62,12.21 4.29,25.77 -0.99,37.77 l -19.72,44.94 c -8.21,18.69 -26.52,29.92 -45.8,29.92 -6.14,0 -12.37,-1.14 -18.4,-3.53 l -117.98,-46.75 c -10.85,-4.29 -19.17,-12.08 -24.61,-21.43 l -2.42,0.58 c -2.27,0.31 -4.55,0.47 -6.82,0.47 -11.06,0 -21.86,-3.67 -30.68,-10.53 l -42.81,-33.28 c -9.21,-7.16 -15.58,-17.26 -18.11,-28.53 -1.07,0.07 -2.14,0.1 -3.21,0.1 -10.16,0 -20.19,-3.1 -28.68,-9.06 L 3710.33,1730 H 3640 v 30 h 20 v 490 h 68.3 c 11.98,-6.59 24.51,-11.43 37.44,-14.44 10.83,-2.54 21.62,-3.8 32.28,-3.8 9.61,0 19.11,1.04 28.44,3.1 3.74,0.82 7.35,1.94 10.95,3.06 l -2.14,-6.88 c -7.53,-24.12 5.48,-49.87 29.36,-58.14 l 126.78,-43.91 c 4.98,-1.72 10.16,-2.58 15.33,-2.58 7.01,0 14.01,1.58 20.44,4.7 l 0.93,0.57 0.81,-1.14 c 8.15,-9.44 19.74,-15.23 32.18,-16.1 l 128.06,-8.89 c 1.09,-0.07 2.19,-0.11 3.28,-0.11 12.27,0 23.56,4.81 31.97,12.71 l 1.5,-1.26 c 7.87,-5.41 17.13,-8.25 26.54,-8.25 2.88,0 5.79,0.26 8.66,0.8 l 126.14,23.74 c 14.62,2.75 26.2,12.14 32.62,24.35 6.22,-2.93 13.03,-4.56 19.97,-4.56 6.75,0 13.6,1.47 20.08,4.54 l 121.16,57.61 c 13.93,6.62 22.92,19.27 25.69,33.32 4.32,-1.36 8.79,-2.3 13.41,-2.36 h 0.52 c 6.52,0 12.9,1.36 18.76,3.92 H 5160 v -520"
         id="path754" /></clipPath><clipPath
       clipPathUnits="userSpaceOnUse"
       id="clipPath768"><path
         d="m 3640,1760 h 20 v 490 h -20 z"
         id="path766" /></clipPath><clipPath
       clipPathUnits="userSpaceOnUse"
       id="clipPath780"><path
         d="m 3100,1730 h 540 v 30 h -540 z"
         id="path778" /></clipPath><clipPath
       clipPathUnits="userSpaceOnUse"
       id="clipPath792"><path
         d="m 3640,1760 h -540 v 389.61 c 1,-0.35 1.98,-0.69 2.98,-1.04 5.57,-1.96 11.33,-2.91 17.03,-2.91 14.3,0 28.24,5.97 38.15,16.97 13.89,15.38 17.17,37.6 8.35,56.34 L 3151.9,2250 H 3640 v -490"
         id="path790" /></clipPath><clipPath
       clipPathUnits="userSpaceOnUse"
       id="clipPath804"><path
         d="m 3120.01,2145.66 c -5.7,0 -11.46,0.95 -17.03,2.91 -1,0.35 -1.98,0.69 -2.98,1.04 v 54.35 c 6.69,-2.26 13.37,-4.56 20,-6.89 v 0 0 l -20,42.48 V 2250 h 51.9 l 14.61,-31.03 c 8.82,-18.74 5.54,-40.96 -8.35,-56.34 -9.91,-11 -23.85,-16.97 -38.15,-16.97"
         id="path802" /></clipPath><clipPath
       clipPathUnits="userSpaceOnUse"
       id="clipPath816"><path
         d="m 3120,2197.07 c -6.63,2.33 -13.31,4.63 -20,6.89 v 35.59 l 20,-42.48"
         id="path814" /></clipPath><clipPath
       clipPathUnits="userSpaceOnUse"
       id="clipPath828"><path
         d="m 4715.41,1730 h -89.56 l 4.8,5.75 c 9.89,11.81 24.09,17.9 38.38,17.9 11.32,0 22.7,-3.82 32.05,-11.66 l 14.33,-11.99 m -579.64,0 h -104.75 l 32.97,13.68 -16.81,40.42 -60.63,-24.11 -7.86,19.01 73.69,28.03 -19.72,44.95 -117.98,-46.76 29.77,-75.22 h -44.11 l -37.93,51.31 -42.81,-33.27 14.32,-18.04 h -123.59 l 28.59,20.02 c 8.49,5.96 18.52,9.06 28.68,9.06 1.07,0 2.14,-0.03 3.21,-0.1 2.53,11.27 8.9,21.37 18.11,28.53 l 42.81,33.28 c 8.82,6.86 19.62,10.53 30.68,10.53 2.27,0 4.55,-0.16 6.82,-0.47 l 2.42,-0.58 c 5.44,9.35 13.76,17.14 24.61,21.43 l 117.98,46.75 c 6.03,2.39 12.26,3.53 18.4,3.53 19.28,0 37.59,-11.23 45.8,-29.92 l 19.72,-44.94 c 5.28,-12 5.61,-25.56 0.99,-37.77 l 7.47,-17.96 c 11.23,-5.78 19.87,-15.61 24.17,-27.54 l 4.98,-13.85"
         id="path826" /></clipPath><clipPath
       clipPathUnits="userSpaceOnUse"
       id="clipPath840"><path
         d="m 3900.34,1730 h -66.42 l -14.32,18.04 42.81,33.27 37.93,-51.31"
         id="path838" /></clipPath><clipPath
       clipPathUnits="userSpaceOnUse"
       id="clipPath852"><path
         d="m 4031.02,1730 h -86.57 l -29.77,75.22 117.98,46.76 19.72,-44.95 -73.69,-28.03 7.86,-19.01 60.63,24.11 16.81,-40.42 -32.97,-13.68"
         id="path850" /></clipPath><clipPath
       clipPathUnits="userSpaceOnUse"
       id="clipPath864"><path
         d="m 3440,3020 h -400 v 0 h 400 v 0"
         id="path862" /></clipPath><clipPath
       clipPathUnits="userSpaceOnUse"
       id="clipPath908"><path
         d="m 5380,3020 h -90 v 490 H 5160 V 5070 H 2940 v 50 H 5380 V 3020"
         id="path906" /></clipPath><clipPath
       clipPathUnits="userSpaceOnUse"
       id="clipPath920"><path
         d="M 5160,3510 H 3440 v 1530 h -500 v 30 H 5160 V 3510"
         id="path918" /></clipPath><clipPath
       clipPathUnits="userSpaceOnUse"
       id="clipPath932"><path
         d="m 3040,3330 h -100 v 64.47 h 6.41 c 36.12,0 69.04,14.01 93.59,36.88 V 3330"
         id="path930" /></clipPath><clipPath
       clipPathUnits="userSpaceOnUse"
       id="clipPath944"><path
         d="m 2940,3020 h 100 v 310 h -100 z"
         id="path942" /></clipPath><clipPath
       clipPathUnits="userSpaceOnUse"
       id="clipPath956"><path
         d="m 3440,3510 h -357.92 c 1.14,7.12 1.74,14.43 1.74,21.87 v 588.74 c 0,69.11 -31.05,133.4 -85.19,176.37 L 2940,4343.52 V 5040 h 500 V 3510"
         id="path954" /></clipPath><clipPath
       clipPathUnits="userSpaceOnUse"
       id="clipPath968"><path
         d="M 2946.41,3394.47 H 2940 v 50 h 6.41 c 48.28,0 87.41,39.13 87.41,87.4 v 588.74 c 0,53.44 -24.41,103.97 -66.27,137.21 l -27.55,21.86 v 63.84 l 58.63,-46.54 c 54.14,-42.97 85.19,-107.26 85.19,-176.37 v -588.74 c 0,-7.44 -0.6,-14.75 -1.74,-21.87 H 3040 v -78.65 c -24.55,-22.87 -57.47,-36.88 -93.59,-36.88"
         id="path966" /></clipPath><clipPath
       clipPathUnits="userSpaceOnUse"
       id="clipPath980"><path
         d="M 2946.41,3444.47 H 2940 v 86.56 l 36.97,-31.17 6.45,7.65 -43.42,36.6 v 564.62 l 48.53,38.84 -6.25,7.81 -42.28,-33.83 v 158.13 l 27.55,-21.86 c 41.86,-33.24 66.27,-83.77 66.27,-137.21 v -588.74 c 0,-48.27 -39.13,-87.4 -87.41,-87.4"
         id="path978" /></clipPath><clipPath
       clipPathUnits="userSpaceOnUse"
       id="clipPath992"><path
         d="m 2976.97,3499.86 -36.97,31.17 v 13.08 l 43.42,-36.6 -6.45,-7.65"
         id="path990" /></clipPath><clipPath
       clipPathUnits="userSpaceOnUse"
       id="clipPath1004"><path
         d="m 2940,4108.73 v 12.82 l 42.28,33.83 6.25,-7.81 -48.53,-38.84"
         id="path1002" /></clipPath><clipPath
       clipPathUnits="userSpaceOnUse"
       id="clipPath1016"><path
         d="m 5160,3020 h 130 v 490 h -130 z"
         id="path1014" /></clipPath><clipPath
       clipPathUnits="userSpaceOnUse"
       id="clipPath1028"><path
         d="m 5160,3020 h -403.8 c -12.56,25.83 -38.76,42.56 -68.12,42.56 h -43.53 l -13.45,41.38 c -10.16,31.33 -39.14,52.38 -72.08,52.39 h -0.01 c -32.93,0 -61.9,-21.05 -72.1,-52.39 l -13.43,-41.38 h -43.53 c -23.88,0 -45.57,-11.17 -59.63,-29.19 -14.06,18.02 -35.74,29.19 -59.63,29.19 h -43.52 l -13.45,41.38 c -10.17,31.33 -39.14,52.38 -72.08,52.39 h -0.01 c -32.93,0 -61.9,-21.05 -72.1,-52.39 l -13.44,-41.38 h -43.51 c -23.89,0 -45.58,-11.17 -59.64,-29.19 -14.05,18.02 -35.75,29.19 -59.63,29.19 h -43.53 l -13.43,41.39 c -10.19,31.33 -39.16,52.38 -72.1,52.38 -32.93,0 -61.91,-21.05 -72.1,-52.39 l -13.44,-41.38 h -43.52 c -5.18,0 -10.26,-0.52 -15.19,-1.52 V 3330 h -220 v 180 h 1720 v -490"
         id="path1026" /></clipPath><clipPath
       clipPathUnits="userSpaceOnUse"
       id="clipPath1040"><path
         d="M 3607.06,3020 H 3440 v 310 h 220 v -268.96 c -23,-4.67 -42.61,-19.77 -52.94,-41.04"
         id="path1038" /></clipPath><clipPath
       clipPathUnits="userSpaceOnUse"
       id="clipPath1052"><path
         d="m 3440,3330 h -400 v 101.35 c 21.89,20.4 37.13,47.82 42.08,78.65 H 3440 v -180"
         id="path1050" /></clipPath><clipPath
       clipPathUnits="userSpaceOnUse"
       id="clipPath1064"><path
         d="m 3040,3020 h 400 v 310 h -400 z"
         id="path1062" /></clipPath><clipPath
       clipPathUnits="userSpaceOnUse"
       id="clipPath1076"><path
         d="M 3040,3431.35 V 3510 h 42.08 c -4.95,-30.83 -20.19,-58.25 -42.08,-78.65"
         id="path1074" /></clipPath><clipPath
       clipPathUnits="userSpaceOnUse"
       id="clipPath1088"><path
         d="m 4756.2,3020 h -139.7 c -5.77,3.53 -10.27,9.04 -12.47,15.79 l -17.44,53.7 c -4.34,13.35 -15.96,20.03 -27.58,20.03 -11.62,0 -23.24,-6.68 -27.58,-20.03 l -17.44,-53.7 c -2.19,-6.75 -6.69,-12.26 -12.46,-15.79 h -262.42 c -5.76,3.53 -10.26,9.04 -12.45,15.79 l -17.45,53.7 c -4.34,13.35 -15.96,20.03 -27.58,20.03 -11.62,0 -23.24,-6.68 -27.58,-20.03 l -17.44,-53.7 c -2.19,-6.75 -6.7,-12.26 -12.46,-15.79 h -262.42 c -5.76,3.53 -10.27,9.04 -12.45,15.79 l -17.46,53.7 c -4.34,13.35 -15.95,20.03 -27.57,20.03 -11.62,0 -23.24,-6.68 -27.57,-20.03 l -17.45,-53.7 c -2.19,-6.75 -6.69,-12.26 -12.46,-15.79 h -139.71 c 10.33,21.27 29.94,36.37 52.94,41.04 4.93,1 10.01,1.52 15.19,1.52 h 43.52 l 13.44,41.38 c 10.19,31.34 39.17,52.39 72.1,52.39 32.94,0 61.91,-21.05 72.1,-52.38 l 13.43,-41.39 h 43.53 c 23.88,0 45.58,-11.17 59.63,-29.19 14.06,18.02 35.75,29.19 59.64,29.19 h 43.51 l 13.44,41.38 c 10.2,31.34 39.17,52.39 72.1,52.39 h 0.01 c 32.94,-0.01 61.91,-21.06 72.08,-52.39 l 13.45,-41.38 h 43.52 c 23.89,0 45.57,-11.17 59.63,-29.19 14.06,18.02 35.75,29.19 59.63,29.19 h 43.53 l 13.43,41.38 c 10.2,31.34 39.17,52.39 72.1,52.39 h 0.01 c 32.94,-0.01 61.92,-21.06 72.08,-52.39 l 13.45,-41.38 h 43.53 c 29.36,0 55.56,-16.73 68.12,-42.56"
         id="path1086" /></clipPath><clipPath
       clipPathUnits="userSpaceOnUse"
       id="clipPath1100"><path
         d="m 3861.73,3020 h -114.96 c 5.77,3.53 10.27,9.04 12.46,15.79 l 17.45,53.7 c 4.33,13.35 15.95,20.03 27.57,20.03 11.62,0 23.23,-6.68 27.57,-20.03 l 17.46,-53.7 c 2.18,-6.75 6.69,-12.26 12.45,-15.79"
         id="path1098" /></clipPath><clipPath
       clipPathUnits="userSpaceOnUse"
       id="clipPath1112"><path
         d="m 4239.11,3020 h -114.96 c 5.76,3.53 10.27,9.04 12.46,15.79 l 17.44,53.7 c 4.34,13.35 15.96,20.03 27.58,20.03 11.62,0 23.24,-6.68 27.58,-20.03 l 17.45,-53.7 c 2.19,-6.75 6.69,-12.26 12.45,-15.79"
         id="path1110" /></clipPath><clipPath
       clipPathUnits="userSpaceOnUse"
       id="clipPath1124"><path
         d="m 4616.5,3020 h -114.97 c 5.77,3.53 10.27,9.04 12.46,15.79 l 17.44,53.7 c 4.34,13.35 15.96,20.03 27.58,20.03 11.62,0 23.24,-6.68 27.58,-20.03 l 17.44,-53.7 c 2.2,-6.75 6.7,-12.26 12.47,-15.79"
         id="path1122" /></clipPath><clipPath
       clipPathUnits="userSpaceOnUse"
       id="clipPath1178"><path
         d="m 170,5070 h 1780 v 69.9961 H 170 Z"
         id="path1176" /></clipPath><clipPath
       clipPathUnits="userSpaceOnUse"
       id="clipPath1190"><path
         d="M 1470,3330 H 170 v 1740 h 1780 v -30 H 1470 V 3330"
         id="path1188" /></clipPath><clipPath
       clipPathUnits="userSpaceOnUse"
       id="clipPath1202"><path
         d="M 1950,3000 H 170 v 330 h 1300 v -310 h 480 v -20"
         id="path1200" /></clipPath><clipPath
       clipPathUnits="userSpaceOnUse"
       id="clipPath1214"><path
         d="m 1950,3330 h -480 v 1710 h 480 v -726.01 l -21.29,-16.9 c -54.22,-43.04 -85.32,-107.43 -85.32,-176.66 v -588.56 c 0,-65.17 45.63,-119.9 106.61,-133.92 V 3330"
         id="path1212" /></clipPath><clipPath
       clipPathUnits="userSpaceOnUse"
       id="clipPath1226"><path
         d="m 1470,3020 h 480 v 310 h -480 z"
         id="path1224" /></clipPath><clipPath
       clipPathUnits="userSpaceOnUse"
       id="clipPath1238"><path
         d="m 1950,3397.95 c -60.98,14.02 -106.61,68.75 -106.61,133.92 v 588.56 c 0,69.23 31.1,133.62 85.32,176.66 l 21.29,16.9 v -64.45 c -35.94,-33.09 -56.61,-79.86 -56.61,-129.11 v -588.56 c 0,-37.43 23.53,-69.37 56.61,-81.83 v -52.09"
         id="path1236" /></clipPath><clipPath
       clipPathUnits="userSpaceOnUse"
       id="clipPath1250"><path
         d="m 1950,3450.04 c -33.08,12.46 -56.61,44.4 -56.61,81.83 v 588.56 c 0,49.25 20.67,96.02 56.61,129.11 v -98.77 l -5.84,4.63 -6.21,-7.85 12.05,-9.54 v -628.14 l -3.66,-3.08 3.66,-4.34 v -52.41"
         id="path1248" /></clipPath><clipPath
       clipPathUnits="userSpaceOnUse"
       id="clipPath1262"><path
         d="m 1950,3502.45 -3.66,4.34 3.66,3.08 v -7.42"
         id="path1260" /></clipPath><clipPath
       clipPathUnits="userSpaceOnUse"
       id="clipPath1274"><path
         d="m 1950,4138.01 -12.05,9.54 6.21,7.85 5.84,-4.63 v -12.76"
         id="path1272" /></clipPath></defs><sodipodi:namedview
     pagecolor="#ffffff"
     bordercolor="#666666"
     borderopacity="1"
     objecttolerance="10"
     gridtolerance="10"
     guidetolerance="10"
     inkscape:pageopacity="0"
     inkscape:pageshadow="2"
     inkscape:window-width="1920"
     inkscape:window-height="1017"
     id="namedview4"
     inkscape:document-rotation="0"
     showgrid="false"
     inkscape:zoom="1.2402724"
     inkscape:cx="297.91452"
     inkscape:cy="0.5129253"
     inkscape:window-x="-8"
     inkscape:window-y="-8"
     inkscape:window-maximized="1"
     inkscape:current-layer="g10"
     fit-margin-top="0"
     fit-margin-left="0"
     fit-margin-right="0"
     fit-margin-bottom="0" /><g
     id="g10"
     inkscape:groupmode="layer"
     inkscape:label="ink_ext_XXXXXX"
     transform="matrix(1.3333333,0,0,-1.3333333,-60.752132,246.42666)"
     style="display:inline"><g
       id="g1993"
       style="display:inline"><path
         d="M 176.891,184.82 H 98.5176 c -8.6188,0 -16.6477,-3.924 -21.9801,-10.62 H 60.5949 c -8.2879,0 -15.0308,-6.743 -15.0308,-15.031 V 79.6148 c 0,-8.2886 6.7429,-15.0316 15.0308,-15.0316 H 98.452 L 97.623,55.641 h -3.1578 c -4.789,0 -9.3062,-2.5691 -11.7882,-6.7039 -0.927,-1.5449 -0.9516,-3.4691 -0.0637,-5.0359 0.8871,-1.5692 2.5496,-2.5371 4.3512,-2.5371 h 56.6925 c 1.801,0 3.463,0.9679 4.351,2.5371 0.887,1.5668 0.863,3.491 -0.064,5.0359 -2.482,4.1348 -6.999,6.7039 -11.788,6.7039 h -3.158 l -0.829,8.9422 h 37.857 c 8.288,0 15.031,6.743 15.031,15.0316 V 96.273 c 11.643,3.55 19.969,14.437 19.969,26.914 v 33.498 c 0,15.513 -12.621,28.135 -28.135,28.135"
         style="fill:#ffffff;fill-opacity:1;fill-rule:nonzero;stroke:none;stroke-width:0.1"
         id="path506" /><path
         d="m 128.757,47.2262 h -26.892 l 3.343,36.0699 h 20.205 l 3.344,-36.0699"
         style="fill:#2b3444;fill-opacity:1;fill-rule:nonzero;stroke:none;stroke-width:0.1"
         id="path508" /><path
         d="m 143.657,46.3641 c -1.533,2.5531 -4.322,4.2769 -7.501,4.2769 H 94.4656 c -3.1793,0 -5.9687,-1.7238 -7.5011,-4.2769 h 56.6925"
         style="fill:#2b3444;fill-opacity:1;fill-rule:nonzero;stroke:none;stroke-width:0.1"
         id="path510" /><path
         d="M 172.724,76.9469 H 57.8973 V 161.837 H 172.724 V 76.9469"
         style="fill:#ffffff;fill-opacity:1;fill-rule:nonzero;stroke:none;stroke-width:0.1"
         id="path512" /><path
         d="M 172.724,155.665 H 57.8973 v 6.729 H 172.724 v -6.729"
         style="fill:#f14f2c;fill-opacity:1;fill-rule:nonzero;stroke:none;stroke-width:0.1"
         id="path514" /><path
         d="M 172.724,76.0391 H 57.8973 v 4.6351 H 172.724 v -4.6351"
         style="fill:#f14f2c;fill-opacity:1;fill-rule:nonzero;stroke:none;stroke-width:0.1"
         id="path516" /><path
         d="m 128.44,50.141 h -26.259 v 1 h 26.259 v -1"
         style="fill:#0b0f15;fill-opacity:1;fill-rule:nonzero;stroke:none;stroke-width:0.1"
         id="path518" /><path
         d="m 62.4789,158.751 c 0,-0.756 -0.6133,-1.369 -1.3695,-1.369 -0.7567,0 -1.3692,0.613 -1.3692,1.369 0,0.757 0.6125,1.37 1.3692,1.37 0.7562,0 1.3695,-0.613 1.3695,-1.37"
         style="fill:#ffffff;fill-opacity:1;fill-rule:nonzero;stroke:none;stroke-width:0.1"
         id="path520" /><path
         d="M 172.724,76.9469 H 57.8973 V 161.837 H 172.724 Z M 170.026,169.2 H 60.5949 c -5.5168,0 -10.0308,-4.513 -10.0308,-10.031 V 79.6148 c 0,-5.5179 4.514,-10.0316 10.0308,-10.0316 H 170.026 c 5.517,0 10.032,4.5137 10.032,10.0316 v 79.5542 c 0,5.518 -4.515,10.031 -10.032,10.031"
         style="fill:#2b3444;fill-opacity:1;fill-rule:nonzero;stroke:none;stroke-width:0.1"
         id="path522" /><path
         d="m 126.684,69.0832 h -22.747 v 1 h 22.747 v -1"
         style="fill:#0b0f15;fill-opacity:1;fill-rule:nonzero;stroke:none;stroke-width:0.1"
         id="path524" /><path
         d="m 176.891,100.051 h -65.438 c -0.808,-8.2389 -7.122,-11.5908 -17.2885,-11.524 3.0554,3.7589 4.9062,7.5812 4.3531,11.524 -12.7242,0 -23.1356,10.411 -23.1356,23.136 v 33.498 c 0,12.724 10.4114,23.135 23.1356,23.135 h 78.3734 c 12.725,0 23.135,-10.411 23.135,-23.135 v -33.498 c 0,-12.725 -10.41,-23.136 -23.135,-23.136"
         style="fill:#4fc4c2;fill-opacity:1;fill-rule:nonzero;stroke:none;stroke-width:0.1"
         id="path526" /><path
         d="m 117.722,168.156 6.265,0.111 -0.137,-21.087 h -5.549 v 0.056 l -0.027,-0.056 -7.701,9.799 0.303,-9.772 -6.43,-0.193 -0.249,21.336 6.017,-0.194 7.783,-9.88 -0.275,9.88"
         style="fill:#ffffff;fill-opacity:1;fill-rule:nonzero;stroke:none;stroke-width:0.1"
         id="path528" /><path
         d="m 125.974,147.18 0.441,20.701 5.354,0.275 -0.165,-21.252 -5.63,0.276"
         style="fill:#ffffff;fill-opacity:1;fill-rule:nonzero;stroke:none;stroke-width:0.1"
         id="path530" /><path
         d="m 138.642,148.256 c -1.583,0.994 -2.801,2.323 -3.657,3.988 -0.855,1.665 -1.283,3.483 -1.283,5.452 0,1.987 0.501,3.813 1.504,5.479 1.003,1.665 2.337,2.981 4.002,3.946 1.666,0.967 3.455,1.45 5.369,1.45 1.435,0 2.806,-0.267 4.112,-0.8 1.307,-0.534 2.452,-1.349 3.437,-2.444 0.984,-1.094 1.687,-2.442 2.111,-4.043 l -5.134,-1.518 c -0.295,0.773 -0.841,1.468 -1.642,2.084 -0.8,0.616 -1.78,0.925 -2.94,0.925 -0.846,0 -1.656,-0.207 -2.428,-0.621 -0.773,-0.414 -1.399,-1.012 -1.877,-1.794 -0.479,-0.783 -0.718,-1.68 -0.718,-2.692 0,-0.901 0.198,-1.748 0.594,-2.539 0.395,-0.791 0.956,-1.422 1.683,-1.89 0.727,-0.47 1.56,-0.705 2.498,-0.705 0.828,0 1.582,0.157 2.263,0.47 0.681,0.313 1.242,0.708 1.685,1.187 0.441,0.478 0.735,0.947 0.882,1.407 l 5.134,-1.601 c -0.331,-1.38 -0.966,-2.618 -1.904,-3.712 -0.939,-1.095 -2.116,-1.956 -3.533,-2.581 -1.417,-0.625 -2.972,-0.938 -4.664,-0.938 -2.08,0 -3.911,0.497 -5.494,1.49"
         style="fill:#ffffff;fill-opacity:1;fill-rule:nonzero;stroke:none;stroke-width:0.1"
         id="path532" /><path
         d="m 162.352,152.865 8.86,0.166 v -5.851 h -14.656 l -0.663,20.976 14.657,0.47 0.386,-5.658 -9.108,-0.166 0.11,-2.373 7.536,0.248 0.248,-5.051 -7.48,-0.359 0.11,-2.402"
         style="fill:#ffffff;fill-opacity:1;fill-rule:nonzero;stroke:none;stroke-width:0.1"
         id="path534" /><path
         d="m 112.891,135.726 6.708,-3.202 -7.26,-18.934 h -5.824 l -3.119,10.268 -2.788,-9.772 -6.4853,0.083 -5.8516,19.018 6.4031,1.987 3.2016,-11.786 3.0642,11.233 h 5.299 l 2.898,-11.895 3.754,13"
         style="fill:#ffffff;fill-opacity:1;fill-rule:nonzero;stroke:none;stroke-width:0.1"
         id="path536" /><path
         d="m 133.205,120.021 c 0.828,0.46 1.49,1.094 1.987,1.904 0.497,0.81 0.745,1.711 0.745,2.705 0,0.956 -0.239,1.826 -0.717,2.609 -0.479,0.782 -1.122,1.393 -1.932,1.834 -0.811,0.443 -1.702,0.664 -2.678,0.664 -0.975,0 -1.868,-0.231 -2.677,-0.691 -0.81,-0.46 -1.445,-1.081 -1.905,-1.863 -0.46,-0.782 -0.689,-1.652 -0.689,-2.609 0,-0.957 0.234,-1.834 0.703,-2.635 0.47,-0.8 1.1,-1.435 1.891,-1.905 0.791,-0.468 1.666,-0.704 2.623,-0.704 0.938,0 1.821,0.231 2.649,0.691 z m -7.99,-4.872 c -1.703,1.021 -3.065,2.378 -4.085,4.071 -1.022,1.693 -1.532,3.487 -1.532,5.383 0,1.913 0.51,3.702 1.532,5.368 1.02,1.665 2.387,2.99 4.098,3.975 1.711,0.984 3.551,1.476 5.52,1.476 1.95,0 3.764,-0.492 5.437,-1.476 1.675,-0.985 3.009,-2.305 4.003,-3.961 0.994,-1.657 1.491,-3.442 1.491,-5.355 0,-1.95 -0.502,-3.772 -1.505,-5.465 -1.003,-1.693 -2.351,-3.041 -4.043,-4.044 -1.694,-1.003 -3.506,-1.504 -5.438,-1.504 -1.951,0 -3.777,0.511 -5.478,1.532"
         style="fill:#ffffff;fill-opacity:1;fill-rule:nonzero;stroke:none;stroke-width:0.1"
         id="path538" /><path
         d="m 149.185,124.657 c 0.331,-0.091 0.653,-0.137 0.966,-0.137 0.902,0 1.693,0.266 2.374,0.801 0.681,0.533 1.021,1.222 1.021,2.069 0,0.699 -0.244,1.32 -0.732,1.863 -0.487,0.543 -1.154,0.815 -2.001,0.815 -0.625,0 -1.177,-0.12 -1.655,-0.36 z m 7.936,-5.381 c 0.652,-0.331 1.329,-0.525 2.028,-0.58 v -5.769 c -0.313,-0.055 -0.626,-0.083 -0.938,-0.083 -1.178,0 -2.374,0.304 -3.588,0.911 -1.215,0.608 -2.273,1.417 -3.175,2.429 -0.901,1.012 -1.5,2.07 -1.794,3.175 l -0.414,0.054 0.028,-5.327 h -5.713 l -0.194,19.956 c 0.497,0.405 1.404,0.745 2.719,1.022 1.315,0.275 2.517,0.414 3.603,0.414 2.097,0 3.863,-0.351 5.298,-1.049 1.436,-0.7 2.507,-1.643 3.216,-2.829 0.708,-1.188 1.063,-2.527 1.063,-4.017 0,-1.435 -0.314,-2.756 -0.939,-3.961 -0.626,-1.205 -1.509,-2.175 -2.649,-2.911 0.312,-0.626 0.796,-1.104 1.449,-1.435"
         style="fill:#ffffff;fill-opacity:1;fill-rule:nonzero;stroke:none;stroke-width:0.1"
         id="path540" /><path
         d="m 174.275,113.066 -6.045,8.252 -1.186,-1.187 0.027,-6.128 -5.768,0.139 -0.111,20.811 h 5.824 l 0.028,-6.735 7.231,7.204 4.085,-3.837 -5.962,-6.044 6.707,-8.943 -4.83,-3.532"
         style="fill:#ffffff;fill-opacity:1;fill-rule:nonzero;stroke:none;stroke-width:0.1"
         id="path542" /><path
         d="m 181.478,115.535 c -0.588,0.617 -0.882,1.339 -0.882,2.167 0,0.552 0.151,1.063 0.455,1.532 0.303,0.469 0.704,0.838 1.2,1.104 0.497,0.267 1.021,0.401 1.573,0.401 0.81,0 1.495,-0.268 2.057,-0.801 0.561,-0.534 0.842,-1.251 0.842,-2.153 0,-0.883 -0.29,-1.633 -0.87,-2.25 -0.58,-0.616 -1.301,-0.924 -2.167,-0.924 -0.882,0 -1.619,0.308 -2.208,0.924 z m -0.58,6.086 -0.579,13.414 h 6.045 l -0.028,-12.944 -5.438,-0.47"
         style="fill:#ffffff;fill-opacity:1;fill-rule:nonzero;stroke:none;stroke-width:0.1"
         id="path544" /></g></g></svg>
