<?xml version="1.0" encoding="UTF-8" standalone="no"?>
<svg
   xmlns:dc="http://purl.org/dc/elements/1.1/"
   xmlns:cc="http://creativecommons.org/ns#"
   xmlns:rdf="http://www.w3.org/1999/02/22-rdf-syntax-ns#"
   xmlns:svg="http://www.w3.org/2000/svg"
   xmlns="http://www.w3.org/2000/svg"
   xmlns:sodipodi="http://sodipodi.sourceforge.net/DTD/sodipodi-0.dtd"
   xmlns:inkscape="http://www.inkscape.org/namespaces/inkscape"
   viewBox="0 0 1000 666.66669"
   height="666.66669"
   width="1000"
   xml:space="preserve"
   id="svg2"
   version="1.1"
   sodipodi:docname="2845941 (1).svg"
   inkscape:version="1.0.1 (3bc2e813f5, 2020-09-07)"><sodipodi:namedview
     pagecolor="#ffffff"
     bordercolor="#666666"
     borderopacity="1"
     objecttolerance="10"
     gridtolerance="10"
     guidetolerance="10"
     inkscape:pageopacity="0"
     inkscape:pageshadow="2"
     inkscape:window-width="1920"
     inkscape:window-height="1017"
     id="namedview151"
     showgrid="false"
     inkscape:zoom="1.108"
     inkscape:cx="461.2487"
     inkscape:cy="321.58709"
     inkscape:window-x="-8"
     inkscape:window-y="-8"
     inkscape:window-maximized="1"
     inkscape:current-layer="svg2" /><metadata
     id="metadata8"><rdf:RDF><cc:Work
         rdf:about=""><dc:format>image/svg+xml</dc:format><dc:type
           rdf:resource="http://purl.org/dc/dcmitype/StillImage" /></cc:Work></rdf:RDF></metadata><defs
     id="defs6">


</defs><path
     id="path16"
     style="fill:#98d6e2;fill-opacity:1;fill-rule:nonzero;stroke:none;stroke-width:0.133333"
     d="m 499.99999,607.4864 c -187.068,0 -338.71599,-9.75986 -338.71599,-21.79839 0,-12.04014 151.64799,-21.8016 338.71599,-21.8016 187.06799,0 338.71599,9.76146 338.71599,21.8016 0,12.03853 -151.648,21.79839 -338.71599,21.79839" /><path
     id="path18"
     style="fill:#eba038;fill-opacity:1;fill-rule:nonzero;stroke:none;stroke-width:0.133333"
     d="M 591.69065,387.97468 H 403.67199 V 231.92135 c 0,-47.45733 38.472,-85.92933 85.92933,-85.92933 h 16.16 c 47.45733,0 85.92933,38.472 85.92933,85.92933 v 156.05333" /><path
     id="path20"
     style="fill:#45389a;fill-opacity:1;fill-rule:nonzero;stroke:none;stroke-width:0.133333"
     d="m 426.89066,167.44002 c 1.70933,22.424 7.32266,44.28266 12.99466,65.96799 2.50267,9.568 4.53867,19.36134 7.87867,28.66667 3.05467,8.51333 2.85067,16.324 13.30133,17.92267 4.804,0.73466 9.60933,1.46933 14.41467,2.204 7.43466,1.13733 14.86933,2.27466 22.32266,3.28 6.08534,0.82 12.30934,1.54933 18.32667,0.332 5.23333,-1.05734 10.068,-3.544 14.62933,-6.32134 5.04,-3.06933 9.84267,-6.53066 14.34934,-10.34266 3.02933,-2.56267 5.964,-5.33067 8.00933,-8.73067 7.24133,-12.03867 3.364,-29.08933 -0.036,-41.64933 -4.33067,-15.99334 -8.66133,-31.98667 -12.992,-47.98133 -3.41867,-12.624 -9.05867,-51.92267 -28.256,-50.45734 -0.164,-5.43466 -6.428,-8.33066 -11.75067,-9.444 -24.76533,-5.176 -61.62666,-0.55733 -70.75999,26.93467 -3.14267,9.46533 -3.19067,19.67467 -2.432,29.61867" /><path
     id="path22"
     style="fill:#f470b4;fill-opacity:1;fill-rule:nonzero;stroke:none;stroke-width:0.133333"
     d="m 489.64399,237.36935 c 0,0 -21.048,-7.956 -45.56,21.804 -24.51333,29.75866 -40.412,74.20933 -40.412,74.20933 l 21.88667,11.36533 42.14933,-53.71866 101.204,13.78666 c 0,0 -2.128,-81.628 -61.492,-69.10133 l -17.776,1.65467" /><path
     id="path24"
     style="fill:#262a34;fill-opacity:1;fill-rule:nonzero;stroke:none;stroke-width:0.133333"
     d="m 557.32665,342.06134 -19.96266,-79.83599 c -10e-4,-8.296 -0.69467,-16.544 -2.09334,-24.72534 -0.896,-0.37866 -1.82266,-0.71733 -2.768,-1.03066 1.38267,7.62 2.152,15.296 2.30534,23.016 -8.72134,1.46 -47.49734,7.23466 -67,-1.67334 0.61066,-6.38266 1.47466,-12.73333 2.608,-19.05066 -0.90667,0.33733 -1.832,0.71333 -2.78534,1.14533 -1.14399,6.65067 -1.99999,13.336 -2.57333,20.05867 -3.51066,5.55866 -11.24666,18.51466 -11.308,24.84533 -0.0787,8.19067 8.73867,18.36667 8.73867,18.36667 l -6.73067,29.31066 101.56933,9.57333" /><path
     id="path26"
     style="fill:#f470b4;fill-opacity:1;fill-rule:nonzero;stroke:none;stroke-width:0.133333"
     d="m 484.41465,219.89468 6.55467,30.47067 23.00667,-5.08667 -9.392,-39.86 -20.16934,14.476" /><path
     id="path28"
     style="fill:#f35da4;fill-opacity:1;fill-rule:nonzero;stroke:none;stroke-width:0.133333"
     d="m 486.71199,230.57068 -1.452,-6.74267 c 0.45333,-0.0413 0.90666,-0.0907 1.36,-0.14666 7.692,-0.96 14.612,-4.01067 20.26133,-8.512 l 2.45333,10.41466 c -2.31466,1.01334 -4.74533,1.79067 -7.19066,2.44134 -5.04667,1.34133 -10.22267,2.18 -15.432,2.54533" /><path
     id="path30"
     style="fill:#f576b0;fill-opacity:1;fill-rule:nonzero;stroke:none;stroke-width:0.133333"
     d="m 486.61999,223.68135 c -22.26933,2.78 -42.576,-13.02 -45.35467,-35.28933 l -3.16533,-25.35334 c -2.484,-19.912 11.64267,-38.06933 31.55466,-40.55333 l 8.53734,-1.06667 c 19.912,-2.48533 38.068,11.64134 40.55333,31.55334 l 3.164,25.35333 c 2.78,22.26933 -13.02,42.576 -35.28933,45.356" /><path
     id="path32"
     style="fill:#f24e92;fill-opacity:1;fill-rule:nonzero;stroke:none;stroke-width:0.133333"
     d="m 462.12532,190.20802 3.52667,-29.19867 9.60666,26.85067 -13.13333,2.348" /><path
     id="path34"
     style="fill:#853157;fill-opacity:1;fill-rule:nonzero;stroke:none;stroke-width:0.133333"
     d="m 472.95599,195.12668 0.048,0.14134 c 1.58,3.928 6.38933,6.68533 10.31733,5.10399 3.92933,-1.57999 5.48933,-6.89866 3.90933,-10.82799 l -0.0627,-0.13467 -14.212,5.71733" /><path
     id="path36"
     style="fill:#e4287f;fill-opacity:1;fill-rule:nonzero;stroke:none;stroke-width:0.133333"
     d="m 481.27599,195.28668 c -2.07334,0.83334 -3.55467,2.50534 -4.224,4.46667 1.94266,1.08133 4.224,1.44133 6.26933,0.61866 2.04667,-0.82266 3.44267,-2.66266 4.096,-4.78933 -1.84133,-0.95066 -4.068,-1.13066 -6.14133,-0.296" /><path
     id="path38"
     style="fill:#853157;fill-opacity:1;fill-rule:nonzero;stroke:none;stroke-width:0.133333"
     d="m 456.34932,157.43735 c 1.26,2.31333 -1.00133,5.976 -5.04933,8.18133 -4.04933,2.20534 -8.352,2.116 -9.612,-0.19733 -1.26,-2.31333 1.00133,-5.976 5.04933,-8.18133 4.04934,-2.204 8.35334,-2.116 9.612,0.19733" /><path
     id="path40"
     style="fill:#853157;fill-opacity:1;fill-rule:nonzero;stroke:none;stroke-width:0.133333"
     d="m 496.00932,155.94535 c -0.42267,2.6 -4.45333,4.10933 -9.004,3.37067 -4.55067,-0.73867 -7.89733,-3.444 -7.476,-6.04534 0.42267,-2.6 4.45333,-4.10933 9.004,-3.37066 4.55067,0.73866 7.89733,3.44533 7.476,6.04533" /><path
     id="path42"
     style="fill:#853157;fill-opacity:1;fill-rule:nonzero;stroke:none;stroke-width:0.133333"
     d="m 454.48932,184.45868 c 0.6,-0.11733 0.636,-2.51066 0.25467,-5.37333 -0.38533,-2.86133 -1.04933,-5.16133 -1.65867,-5.116 -0.60266,0.0427 -0.91866,2.47467 -0.52266,5.408 0.39066,2.93467 1.33333,5.19733 1.92666,5.08133" /><path
     id="path44"
     style="fill:#853157;fill-opacity:1;fill-rule:nonzero;stroke:none;stroke-width:0.133333"
     d="m 486.26399,179.59602 c 0.6,-0.11734 0.636,-2.51067 0.25466,-5.37334 -0.38533,-2.86133 -1.04933,-5.16133 -1.65866,-5.11733 -0.60267,0.044 -0.91734,2.47467 -0.52267,5.40933 0.39067,2.93467 1.33333,5.19734 1.92667,5.08134" /><path
     id="path46"
     style="fill:#45389a;fill-opacity:1;fill-rule:nonzero;stroke:none;stroke-width:0.133333"
     d="m 519.02532,171.40535 c 0,0 -28.028,-5.588 -18.71867,-50.36133 13.94,6.08266 26.04667,25.53866 18.71867,50.36133" /><path
     id="path48"
     style="fill:#45389a;fill-opacity:1;fill-rule:nonzero;stroke:none;stroke-width:0.133333"
     d="m 447.40132,150.50535 c 7.94667,-1.23067 15.88134,-2.68533 23.66267,-4.736 13.18266,-3.47467 27.93733,-7.584 37.31733,-18.00133 -8.09467,-4.23334 -60.66,-29.376002 -74.752,23.14933 4.59067,0.23067 9.17734,0.3 13.772,-0.412" /><path
     id="path50"
     style="fill:#d9f3fd;fill-opacity:1;fill-rule:nonzero;stroke:none;stroke-width:0.133333"
     d="m 542.31199,171.39202 c 1.14666,12.032 -6.34267,22.58933 -16.72934,23.57866 -10.38666,0.99067 -19.736,-7.96133 -20.88266,-19.99333 -1.148,-12.032 6.34266,-22.58933 16.72933,-23.57867 10.38667,-0.99066 19.736,7.96134 20.88267,19.99334" /><path
     id="path52"
     style="fill:#f3fbfc;fill-opacity:1;fill-rule:nonzero;stroke:none;stroke-width:0.133333"
     d="m 501.94932,138.57602 c 6.96267,7.724 11.12933,17.90266 11.628,28.288 4.66933,-1.35334 9.18133,-3.32267 13.604,-5.48 -0.35333,-10.888 -3.54667,-21.67867 -9.22533,-30.97734 -1.60534,-2.628 -3.42,-5.15866 -5.69734,-7.23066 -5.232,-4.76134 -12.41466,-6.70134 -19.396,-7.844 -11.73466,-1.92134 -24.07066,-2.21867 -35.71599,0.44266 -11.34934,2.59467 -24.93734,9.14667 -27.98667,21.48934 3.77733,-2.88267 7.08,-5.992 11.41467,-8.02134 4.48133,-2.1 9.28266,-3.43066 14.13066,-4.36666 6.308,-1.20134 12.78933,-1.76 19.16133,-0.96 10.70134,1.34533 20.86134,6.648 28.08267,14.66" /><path
     id="path54"
     style="fill:#f3fbfc;fill-opacity:1;fill-rule:nonzero;stroke:none;stroke-width:0.133333"
     d="m 547.15465,171.07202 c 1.14667,12.032 -6.34266,22.588 -16.72933,23.57866 -10.38667,0.99067 -19.736,-7.96133 -20.884,-19.99333 -1.14667,-12.032 6.34267,-22.58933 16.72933,-23.58 10.38667,-0.98933 19.736,7.96133 20.884,19.99467" /><path
     id="path56"
     style="fill:#ace1e9;fill-opacity:1;fill-rule:nonzero;stroke:none;stroke-width:0.133333"
     d="m 539.92665,171.76002 c 0.70667,7.408 -3.90533,13.908 -10.3,14.51733 -6.39466,0.61067 -12.15066,-4.90133 -12.85733,-12.30933 -0.70667,-7.408 3.90533,-13.908 10.3,-14.51734 6.39467,-0.60933 12.15067,4.90134 12.85733,12.30934" /><path
     id="path58"
     style="fill:#70a19c;fill-opacity:1;fill-rule:nonzero;stroke:none;stroke-width:0.133333"
     d="m 551.14932,565.02401 c -6.776,-13.12814 -20.53333,-22.5224 -36.74267,-23.9948 v -93.5372 h -8.892 v 93.5372 c -16.20266,1.4708 -29.95333,10.8588 -36.73333,23.9776 -2.28933,1.54013 -3.81866,4.28386 -3.81866,7.42386 0,4.82507 3.60399,8.73867 8.05066,8.73867 4.44533,0 8.05067,-3.9136 8.05067,-8.73867 0,-2.32026 -0.83867,-4.4228 -2.19734,-5.98693 5.708,-8.20933 15.39067,-13.99427 26.648,-15.2172 v 26.67613 c -2.172,1.5656 -3.60533,4.24107 -3.60533,7.2828 0,4.82654 3.60533,8.73854 8.05067,8.73854 4.44666,0 8.05066,-3.912 8.05066,-8.73854 0,-3.04173 -1.432,-5.7172 -3.604,-7.2828 v -26.67613 c 11.252,1.22133 20.93067,7.00267 26.64,15.2052 -1.364,1.5656 -2.20666,3.67347 -2.20666,5.99893 0,4.82507 3.604,8.73867 8.05066,8.73867 4.44667,0 8.05067,-3.9136 8.05067,-8.73867 0,-3.12653 -1.51733,-5.86293 -3.792,-7.40666" /><path
     id="path60"
     style="fill:#eba038;fill-opacity:1;fill-rule:nonzero;stroke:none;stroke-width:0.133333"
     d="m 423.18132,358.53734 v 63.44667 c 0,23.584 19.11867,42.70267 42.704,42.70267 h 74.46267 c 28.35466,0 51.34266,-22.98667 51.34266,-51.34134 v -54.808 H 423.18132" /><path
     id="path62"
     style="fill:#f470b4;fill-opacity:1;fill-rule:nonzero;stroke:none;stroke-width:0.133333"
     d="m 404.91466,550.29587 -0.41334,11.076 c 0,0 -39.108,-0.46773 -46.20266,14.24427 0,0 32.868,6.0932 64.772,2.424 -0.44267,-18.81093 0.11066,-29.48133 0.11066,-29.48133" /><path
     id="path64"
     style="fill:#f470b4;fill-opacity:1;fill-rule:nonzero;stroke:none;stroke-width:0.133333"
     d="m 327.06266,521.37734 -12.252,16.30387 c 0,0 -31.24,-23.5292 -45.66667,-15.87187 0,0 22.88,24.36933 50.76534,40.29853 10.78,-15.42146 17.54266,-23.69333 17.54266,-23.69333" /><path
     id="path66"
     style="fill:#312d66;fill-opacity:1;fill-rule:nonzero;stroke:none;stroke-width:0.133333"
     d="m 442.46799,350.82801 -36.57867,14.18133 c -5.14933,1.996 -9.36,5.85734 -11.796,10.81467 l -72.85599,148.316 c 3.42666,7.66933 11.14933,12.9652 19.78799,14.11053 l 89.236,-134.58386 101.1,-20.94934 7.47867,-41.848 -96.372,9.95867" /><path
     id="path68"
     style="fill:#5544a4;fill-opacity:1;fill-rule:nonzero;stroke:none;stroke-width:0.133333"
     d="m 536.07865,356.31734 c -19.636,4.59067 -39.29333,9.13867 -59.06,13.00134 -23.80399,4.652 -50.88399,8.76933 -66.55999,29.248 -8.248,10.77466 -15.28,22.93333 -22.39067,34.47333 -8.39333,13.624 -16.31867,27.532 -24.59733,41.22533 -11.79867,19.512 -23.63067,39.004 -35.46133,58.49733 0.97066,0.77227 2.008,1.46907 3.09066,2.0972 25.696,-42.77986 51.124,-85.76253 78.08667,-127.73186 7.808,-12.15467 17.212,-19.50533 30.648,-24.72 12.23066,-4.74667 25.37333,-6.93067 38.19733,-9.41333 19.184,-3.71467 38.26133,-8.116 57.31466,-12.57867 l 0.732,-4.09867" /><path
     id="path70"
     style="fill:#312d66;fill-opacity:1;fill-rule:nonzero;stroke:none;stroke-width:0.133333"
     d="m 416.26266,565.35987 c -3.63467,-2.91613 -7.416,-5.72653 -11.62267,-7.712 l -0.13867,3.724 c 0,0 -39.108,-0.46773 -46.20266,14.24427 0,0 32.868,6.0932 64.772,2.424 -0.15867,-6.71773 -0.188,-12.37507 -0.16267,-16.9 -2.488,0.912 -4.784,2.3224 -6.64533,4.21973" /><path
     id="path72"
     style="fill:#312d66;fill-opacity:1;fill-rule:nonzero;stroke:none;stroke-width:0.133333"
     d="m 321.92933,547.85881 c -1.20267,-4.50307 -2.58667,-9.00574 -4.80134,-13.09627 l -2.31733,2.91867 c 0,0 -31.24,-23.5292 -45.66667,-15.87187 0,0 22.88,24.36933 50.76534,40.29853 3.84933,-5.5068 7.17466,-10.08386 9.87466,-13.71573 -2.54533,-0.73907 -5.232,-0.9604 -7.85466,-0.53333" /><path
     id="path74"
     style="fill:#392f7e;fill-opacity:1;fill-rule:nonzero;stroke:none;stroke-width:0.133333"
     d="m 556.59865,354.63201 -46.63866,5.94133 -83.72133,25.04534 c -9.74667,2.916 -16.564,11.70133 -16.968,21.86666 l -5.59867,143.20947 c 5.832,3.188 16.04667,4.28226 22.28933,0.99733 3.85067,-19.64813 22.30267,-128.26146 22.30267,-128.26146 0,0 88.42,5.67066 106.99066,-10.58534 18.57067,-16.256 1.344,-58.21333 1.344,-58.21333" /><path
     id="path76"
     style="fill:#5544a4;fill-opacity:1;fill-rule:nonzero;stroke:none;stroke-width:0.133333"
     d="m 540.81999,396.70801 c 7.29333,-2.11733 15.42266,-5.02267 23.02666,-8.95333 -0.0307,-1.26134 -0.1,-2.52267 -0.20133,-3.77867 -13.85733,7.308 -30.73333,11.24933 -42.90133,13.60533 -14.29734,2.768 -28.84267,4.12267 -43.308,5.688 -11.344,1.228 -24.784,1.18134 -35.204,6.29067 -6.97067,3.41733 -9.708,10.89867 -11.08533,18.02533 -3.01067,15.57867 -4.504,31.584 -6.89067,47.27733 -3.98267,26.17067 -8.35067,52.28134 -13.032,78.33574 1.23733,0.2204 2.50533,0.36826 3.77867,0.43653 4.63466,-25.86427 8.956,-51.78427 12.928,-77.75893 2.408,-15.73467 4.25733,-31.584 6.892,-47.27733 2.08266,-12.408 9.20666,-17.136 21.18,-18.90267 28.32666,-4.18133 57.15999,-4.96133 84.81733,-12.988" /><path
     id="path78"
     style="fill:#eba038;fill-opacity:1;fill-rule:nonzero;stroke:none;stroke-width:0.133333"
     d="m 285.08533,90.036018 h -21.93467 c -15.136,0 -27.40667,-12.269333 -27.40667,-27.406666 0,-15.136 12.27067,-27.406666 27.40667,-27.406666 h 21.93467 c 15.136,0 27.40666,12.270666 27.40666,27.406666 0,15.137333 -12.27066,27.406666 -27.40666,27.406666" /><path
     id="path80"
     style="fill:#45389a;fill-opacity:1;fill-rule:nonzero;stroke:none;stroke-width:0.133333"
     d="m 725.23732,114.04935 h -19.20267 c -16.21333,0 -29.35733,-13.144 -29.35733,-29.357332 v -2.553333 c 0,-16.213333 13.144,-29.357333 29.35733,-29.357333 h 19.20267 c 16.21333,0 29.35733,13.144 29.35733,29.357333 v 2.553333 c 0,16.213332 -13.144,29.357332 -29.35733,29.357332" /><path
     id="path82"
     style="fill:#fad206;fill-opacity:1;fill-rule:nonzero;stroke:none;stroke-width:0.133333"
     d="m 866.35465,133.29735 c 0,-17.80667 -14.43334,-32.24133 -32.24,-32.24133 -17.80534,0 -32.24,14.43466 -32.24,32.24133 0,7.74667 2.73466,14.85467 7.28933,20.41467 l -0.001,0.001 0.0213,0.024 0.168,0.2 c 1.216,1.46667 8.00933,9.98533 10.88267,20.66933 0.52666,1.96 2.33333,3.30267 4.36266,3.30267 h 19.052 c 2.02934,0 3.83467,-1.34267 4.36267,-3.30267 3.16267,-11.756 11.072,-20.89333 11.072,-20.89333 l -0.016,-0.004 c 4.55333,-5.56 7.28667,-12.66667 7.28667,-20.412" /><path
     id="path84"
     style="fill:#97341d;fill-opacity:1;fill-rule:nonzero;stroke:none;stroke-width:0.133333"
     d="m 842.50665,193.01068 c 0,-3.70133 -4.508,-6.70533 -8.23334,-6.79333 v 0 l -0.148,-0.008 -0.0107,0.001 -0.009,-0.001 -0.14933,0.008 v 0 c -3.72533,0.088 -8.23333,3.092 -8.23333,6.79333 0,3.70134 4.508,7.22267 8.23333,7.32533 v 0.001 l 0.14933,0.008 h 0.009 0.0107 l 0.148,-0.008 v -0.001 c 3.72534,-0.10266 8.23334,-3.62399 8.23334,-7.32533" /><path
     id="path86"
     style="fill:#97341d;fill-opacity:1;fill-rule:nonzero;stroke:none;stroke-width:0.133333"
     d="m 817.34665,140.82935 c 1.02,-4.128 6.14133,-2.75067 8.212,-0.55467 1.688,1.788 2.51466,4.252 2.91866,6.90267 -1.124,0.0453 -2.24666,0.064 -3.372,0.0173 -3.37066,-0.14 -8.836,-2.01466 -7.75866,-6.36533 m 25.324,-0.55467 c 2.072,-2.196 7.192,-3.57333 8.21333,0.55467 1.076,4.35067 -4.388,6.22533 -7.76,6.36533 -1.124,0.0467 -2.248,0.028 -3.37067,-0.0173 0.404,-2.65067 1.23067,-5.11467 2.91734,-6.90267 m -23.27334,7.69734 c 2.76267,1.50666 6.13867,1.54266 9.31867,1.348 0.228,2.99866 0.0747,6.07066 0.10533,8.56533 0.092,7.50533 -0.0373,15.01333 -0.34933,22.512 h 2.14 c 0.41733,-9.46533 0.592,-18.972 0.236,-28.432 -0.0333,-0.87733 -0.092,-1.81733 -0.18933,-2.784 0.244,-0.0187 0.48533,-0.0373 0.72533,-0.0547 0.91467,-0.068 1.832,-0.12 2.748,-0.16666 0.90533,0.0467 1.81067,0.0987 2.71467,0.16666 0.23866,0.0173 0.48,0.036 0.724,0.0547 -0.096,0.96667 -0.156,1.90667 -0.188,2.784 -0.35734,9.46 -0.18267,18.96667 0.23466,28.432 h 2.14134 c -0.312,-7.49867 -0.44267,-15.00667 -0.35067,-22.512 0.0307,-2.49467 -0.12133,-5.56667 0.10533,-8.56533 3.18134,0.19466 6.55734,0.15866 9.31867,-1.348 2.64667,-1.44534 5.32,-4.43334 4.10933,-7.71067 -0.9,-2.43333 -3.19466,-4.476 -5.94666,-4.31733 -5.928,0.34 -8.23867,5.688 -9.12267,10.97733 -3.764,-0.608 -7.48667,0.15733 -7.48667,0.15733 -0.864,-5.34 -3.16266,-10.792 -9.15066,-11.13466 -2.75067,-0.15867 -5.04534,1.884 -5.94534,4.31733 -1.212,3.27733 1.46134,6.26533 4.108,7.71067" /><path
     id="path88"
     style="fill:#3aa6a4;fill-opacity:1;fill-rule:nonzero;stroke:none;stroke-width:0.133333"
     d="m 846.02798,183.24402 h -23.82533 c -1.63867,0 -2.96667,-1.328 -2.96667,-2.96667 0,-1.63733 1.328,-2.96533 2.96667,-2.96533 h 23.82533 c 1.63867,0 2.96533,1.328 2.96533,2.96533 0,1.63867 -1.32666,2.96667 -2.96533,2.96667" /><path
     id="path90"
     style="fill:#318b8a;fill-opacity:1;fill-rule:nonzero;stroke:none;stroke-width:0.133333"
     d="m 846.02798,188.86668 h -23.82533 c -1.63867,0 -2.96667,-1.328 -2.96667,-2.96666 0,-1.63734 1.328,-2.96534 2.96667,-2.96534 h 23.82533 c 1.63867,0 2.96533,1.328 2.96533,2.96534 0,1.63866 -1.32666,2.96666 -2.96533,2.96666" /><path
     id="path92"
     style="fill:#3aa6a4;fill-opacity:1;fill-rule:nonzero;stroke:none;stroke-width:0.133333"
     d="m 845.49198,194.48935 h -22.75333 c -1.63867,0 -2.96667,-1.32933 -2.96667,-2.96667 0,-1.63866 1.328,-2.96533 2.96667,-2.96533 h 22.75333 c 1.63733,0 2.96533,1.32667 2.96533,2.96533 0,1.63734 -1.328,2.96667 -2.96533,2.96667" /><path
     id="path94"
     style="fill:#a4dab1;fill-opacity:1;fill-rule:nonzero;stroke:none;stroke-width:0.133333"
     d="m 809.16265,153.71335 v -0.001 h 10e-4 l -10e-4,0.001 m -7.288,-20.416 c 0,-0.0173 0,-0.0347 0,-0.052 0,0.0173 0,0.0347 0,0.052 m 0,-0.0613 c 0,-0.0133 0,-0.028 0,-0.0413 0,0.0133 0,0.028 0,0.0413 m 0,-0.0587 c 0,-0.012 0,-0.0213 0,-0.032 0,0.0107 0,0.0213 0,0.032 m 0,-0.0547 c 0,-0.009 0,-0.0187 0,-0.028 0,0.009 0,0.0173 0,0.028 m 10e-4,-0.052 c 0,-0.008 0,-0.0187 0,-0.0267 0,0.009 0,0.0187 0,0.0267 m 0,-0.052 c 0,-0.007 0,-0.0173 0,-0.0253 0,0.009 0,0.0173 0,0.0253 m 0,-0.0493 c 0,-0.008 0,-0.0173 0,-0.0253 0,0.008 0,0.0173 0,0.0253 m 0.001,-0.052 c 0,-0.008 0,-0.0173 0,-0.024 0,0.008 0,0.016 0,0.024 m 0,-0.0493 c 0,-0.008 0,-0.0173 0,-0.0253 0,0.008 0,0.0173 0,0.0253 m 10e-4,-0.052 c 0,-0.007 0,-0.016 0,-0.024 0,0.008 0,0.016 0,0.024 m 0,-0.0493 c 0,-0.008 0,-0.0147 0,-0.024 0,0.008 0,0.016 0,0.024 m 10e-4,-0.052 c 0,-0.007 0,-0.0147 0,-0.0213 0,0.007 0,0.0133 0,0.0213 m 10e-4,-0.0493 c 0,-0.008 0,-0.0147 0,-0.0227 0,0.007 0,0.016 0,0.0227 m 0,-0.0507 c 0,-0.007 0,-0.0133 10e-4,-0.02 -10e-4,0.008 -10e-4,0.0133 -10e-4,0.02 m 10e-4,-0.0507 c 0,-0.004 0,-0.0107 0,-0.016 0,0.005 0,0.0107 0,0.016 m 0.003,-0.0947 c 0,-0.001 0,-0.003 0,-0.004 0,0.001 0,0.003 0,0.004 m 10e-4,-0.048 c 0,-0.003 0,-0.003 0,-0.005 0,0.003 0,0.003 0,0.005 m 0,-0.036 c 0.001,-0.007 0.001,-0.0133 0.001,-0.02 0,0.008 0,0.0133 -0.001,0.02 m 0.003,-0.0493 c 0,-0.007 0,-0.012 0,-0.02 0,0.007 0,0.0133 0,0.02 m 10e-4,-0.0493 c 0,-0.007 0,-0.0147 0,-0.0227 0,0.008 0,0.016 0,0.0227 m 10e-4,-0.048 c 0,-0.008 0,-0.016 0,-0.024 0,0.008 0,0.016 0,0.024 m 0.001,-0.052 c 0,-0.008 0,-0.0133 10e-4,-0.0213 -10e-4,0.008 -10e-4,0.0147 -10e-4,0.0213 m 10e-4,-0.0507 c 10e-4,-0.007 10e-4,-0.0133 10e-4,-0.02 0,0.008 0,0.0133 -10e-4,0.02 m 0.003,-0.048 c 0,-0.008 0,-0.0173 0,-0.0253 0,0.009 0,0.0173 0,0.0253 m 0.001,-0.048 c 0,-0.009 0,-0.0173 10e-4,-0.0267 -10e-4,0.009 -10e-4,0.0173 -10e-4,0.0267 m 0.003,-0.052 c 0,-0.008 0,-0.016 0,-0.024 0,0.008 0,0.0147 0,0.024 m 10e-4,-0.0493 c 0,-0.008 0.001,-0.0173 0.001,-0.024 0,0.007 -0.001,0.016 -0.001,0.024 m 0.003,-0.0507 c 0,-0.008 0,-0.0173 0,-0.0253 0,0.009 0,0.016 0,0.0253 m 10e-4,-0.0493 c 10e-4,-0.009 10e-4,-0.0147 10e-4,-0.0227 0,0.008 0,0.0147 -10e-4,0.0227 m 0.003,-0.052 c 0,-0.005 0,-0.009 0,-0.0133 0,0.004 0,0.009 0,0.0133 m 0.009,-0.188 c 0,-0.004 0,-0.005 0,-0.008 0,0.003 0,0.004 0,0.008 m 0.003,-0.0467 c 0,-0.003 0,-0.008 0,-0.0107 0,0.003 0,0.008 0,0.0107 m 0.003,-0.048 c 0,-0.004 0,-0.008 0,-0.012 0,0.003 0,0.008 0,0.012 m 0.003,-0.0467 c 0,-0.005 0,-0.0107 0,-0.016 0,0.005 0,0.0107 0,0.016 m 0.003,-0.048 c 0,-0.007 0,-0.0107 0,-0.016 0,0.004 0,0.0107 0,0.016 m 0.003,-0.052 c 0,-0.004 0,-0.009 10e-4,-0.012 -10e-4,0.004 -10e-4,0.007 -10e-4,0.012 m 0.003,-0.048 c 0,-0.005 0.001,-0.009 0.001,-0.0147 0,0.005 -0.001,0.008 -0.001,0.0147 m 0.003,-0.0493 c 10e-4,-0.005 10e-4,-0.0107 10e-4,-0.0147 0,0.004 0,0.009 -10e-4,0.0147 m 0.004,-0.0493 c 0,-0.004 0,-0.009 0,-0.0133 0,0.004 0,0.008 0,0.0133 m 0.003,-0.052 c 0,-0.003 10e-4,-0.005 10e-4,-0.009 0,0.004 -10e-4,0.007 -10e-4,0.009 m 0.004,-0.048 c 0,-0.003 0,-0.008 0,-0.0107 0,0.004 0,0.008 0,0.0107 m 0.003,-0.0507 c 0,0 0,-0.003 0,-0.004 0,0.001 0,0.004 0,0.004 m 0.004,-0.048 v -10e-4 10e-4 m 0.0293,-0.384 v -0.001 c 0,0 0,0 0,0.001 m 0.008,-0.0973 v -0.001 c 0,0.001 0,0.001 0,0.001 m 0.004,-0.048 v 0 c 0,0 0,-0.001 0,0 m 0.004,-0.0467 v -0.003 c 0,0 0,0.001 0,0.003" /><path
     id="path96"
     style="fill:#facb07;fill-opacity:1;fill-rule:nonzero;stroke:none;stroke-width:0.133333"
     d="m 844.53331,177.31202 h -4.89333 c -0.17467,-5.00934 -0.26533,-10.02134 -0.26,-15.03334 0.33733,0.54 0.66533,1.08667 0.984,1.63867 2.27333,3.95333 5.13067,8.73333 4.16933,13.39467 m -7.04266,0 h -6.75067 c 0.32133,-8.444 0.42533,-16.91467 0.108,-25.34667 -0.016,-0.416 -0.0373,-0.848 -0.0667,-1.28933 2.18267,2.75333 4.4,5.492 6.42934,8.35466 -0.0707,6.09067 0.048,12.19334 0.28,18.28134 m -8.90134,0 h -6.25066 c -1.01067,-0.57467 -1.788,-1.52934 -2.104,-2.70534 -2.87334,-10.684 -9.66667,-19.20266 -10.88267,-20.66933 v 0 l -0.168,-0.2 -0.0213,-0.024 10e-4,-0.001 v 0 c -4.55467,-5.56 -7.28933,-12.668 -7.28933,-20.41467 v 0 c 0,-0.0173 0,-0.0347 0,-0.052 0,-0.003 0,-0.007 0,-0.009 0,-0.0133 0,-0.028 0,-0.0413 0,-0.005 0,-0.012 0,-0.0173 0,-0.0107 0,-0.0213 0,-0.032 0,-0.008 0,-0.016 0,-0.0227 0,-0.0107 0,-0.0187 0,-0.028 0,-0.008 0,-0.016 10e-4,-0.024 0,-0.008 0,-0.0173 0,-0.0267 0,-0.008 0,-0.016 0,-0.0253 0,-0.008 0,-0.016 0,-0.0253 0,-0.008 0,-0.0147 0,-0.024 0,-0.008 0,-0.0173 0,-0.0253 0,-0.009 10e-4,-0.0173 10e-4,-0.0267 0,-0.008 0,-0.016 0,-0.024 0,-0.009 0,-0.0173 0,-0.0253 0,-0.008 0,-0.0173 0,-0.0253 0,-0.009 0.001,-0.016 0.001,-0.0267 0,-0.008 0,-0.016 0,-0.024 0,-0.008 0,-0.0173 0,-0.0253 0,-0.008 0,-0.016 0,-0.024 10e-4,-0.008 10e-4,-0.0187 10e-4,-0.028 0,-0.008 0,-0.0147 0,-0.0213 0,-0.009 0,-0.0187 10e-4,-0.028 0,-0.007 0,-0.016 0,-0.0227 0,-0.009 0,-0.0187 0,-0.028 0,-0.007 0,-0.012 10e-4,-0.02 0,-0.0107 0,-0.0187 0,-0.0307 0,-0.005 0,-0.0107 0,-0.016 10e-4,-0.0267 10e-4,-0.052 0.003,-0.0787 0,-0.001 0,-0.003 0,-0.004 0,-0.0147 0,-0.0293 10e-4,-0.044 0,-0.003 0,-0.003 0,-0.005 0,-0.009 0,-0.02 0,-0.0307 10e-4,-0.007 10e-4,-0.012 10e-4,-0.02 0,-0.009 0,-0.02 10e-4,-0.0293 0,-0.007 0,-0.0133 0,-0.02 0,-0.0107 0,-0.0187 0.001,-0.0293 0,-0.007 0,-0.0147 0,-0.0227 0,-0.008 10e-4,-0.016 10e-4,-0.0253 0,-0.008 0,-0.016 0,-0.024 10e-4,-0.008 10e-4,-0.0187 10e-4,-0.028 0,-0.007 0,-0.0133 10e-4,-0.0213 0,-0.009 0,-0.02 0,-0.0293 10e-4,-0.007 10e-4,-0.012 10e-4,-0.02 0,-0.009 0,-0.0187 0.001,-0.028 0,-0.008 0,-0.016 0,-0.0253 10e-4,-0.008 10e-4,-0.0147 10e-4,-0.0227 0,-0.009 0,-0.0173 10e-4,-0.0267 0,-0.008 0,-0.0173 10e-4,-0.0253 0,-0.009 0,-0.016 0,-0.024 10e-4,-0.009 10e-4,-0.0173 10e-4,-0.0253 0,-0.008 0.001,-0.0173 0.001,-0.024 0,-0.009 0,-0.0173 10e-4,-0.0267 0,-0.009 0,-0.016 0,-0.0253 10e-4,-0.008 10e-4,-0.0173 10e-4,-0.024 10e-4,-0.008 10e-4,-0.0147 10e-4,-0.0227 0,-0.009 0.001,-0.02 0.001,-0.0293 0,-0.004 0,-0.009 0,-0.0133 0.004,-0.0587 0.007,-0.11733 0.009,-0.17467 0,-0.004 0,-0.005 0,-0.008 0.001,-0.0133 0.001,-0.0253 0.003,-0.0387 0,-0.003 0,-0.008 0,-0.0107 10e-4,-0.0133 10e-4,-0.0253 0.003,-0.0373 0,-0.004 0,-0.009 0,-0.012 10e-4,-0.0107 10e-4,-0.024 0.003,-0.0347 0,-0.005 0,-0.0107 0,-0.016 10e-4,-0.0107 10e-4,-0.0213 0.003,-0.032 0,-0.005 0,-0.012 0,-0.016 10e-4,-0.0133 10e-4,-0.024 0.003,-0.036 0,-0.005 0,-0.008 10e-4,-0.012 0,-0.0133 10e-4,-0.024 10e-4,-0.036 0,-0.007 10e-4,-0.009 10e-4,-0.0147 0,-0.012 10e-4,-0.0227 10e-4,-0.0347 0.001,-0.005 0.001,-0.0107 0.001,-0.0147 10e-4,-0.012 10e-4,-0.024 0.003,-0.0347 0,-0.005 0,-0.009 0,-0.0133 10e-4,-0.0133 0.003,-0.0253 0.003,-0.0387 0,-0.003 10e-4,-0.005 10e-4,-0.009 0,-0.012 10e-4,-0.0253 0.003,-0.0387 0,-0.003 0,-0.007 0,-0.0107 10e-4,-0.0133 0.003,-0.0253 0.003,-0.04 0,0 0,-0.003 0,-0.004 10e-4,-0.0147 0.003,-0.0293 0.004,-0.044 v -10e-4 c 0.009,-0.128 0.0187,-0.25466 0.0293,-0.38266 0,-0.001 0,-0.001 0,-0.001 0.003,-0.0333 0.005,-0.064 0.008,-0.096 0,0 0,0 0,-10e-4 0.001,-0.0147 0.003,-0.0307 0.004,-0.0467 0,-0.001 0,0 0,0 10e-4,-0.016 0.003,-0.0307 0.004,-0.0467 0,-0.001 0,-0.003 0,-0.003 1.35733,-15.424 13.57733,-27.728 28.96133,-29.22133 -4.18666,3.05866 -7.56933,7.38133 -9.96666,11.816 -4.00934,7.42 -3.13734,15.57866 0.11466,22.90933 -0.0587,-10e-4 -0.116,-0.003 -0.172,-0.003 -2.61866,0 -4.78133,1.98267 -5.648,4.32667 -1.212,3.27733 1.46134,6.26533 4.108,7.71067 2.06667,1.128 4.47734,1.43066 6.892,1.43066 0.812,0 1.62534,-0.0333 2.42667,-0.0827 0.228,2.99866 0.0747,6.07066 0.10533,8.56533 0.08,6.476 -0.007,12.95333 -0.232,19.42667 m -2.11466,-30.09067 c -0.456,0 -0.91334,-0.008 -1.36934,-0.0267 -3.37066,-0.14 -8.836,-2.01466 -7.75866,-6.36533 0.47733,-1.93333 1.85466,-2.65867 3.396,-2.65867 0.50933,0 1.03733,0.0787 1.55733,0.22 0.10267,0.196 0.208,0.39067 0.31333,0.58534 1.57867,2.88266 3.46,5.58266 5.456,8.216 -0.532,0.0187 -1.064,0.0293 -1.59466,0.0293" /><path
     id="path98"
     style="fill:#97321d;fill-opacity:1;fill-rule:nonzero;stroke:none;stroke-width:0.133333"
     d="m 839.63998,177.31202 h -2.14933 c -0.232,-6.088 -0.35067,-12.19067 -0.28,-18.28134 0.752,1.06267 1.48,2.14267 2.16933,3.248 -0.005,5.012 0.0853,10.024 0.26,15.03334 m -8.9,0 h -2.15067 c 0.22534,-6.47334 0.312,-12.95067 0.232,-19.42667 -0.0307,-2.49467 0.12267,-5.56667 -0.10533,-8.56533 -0.80133,0.0493 -1.61467,0.0827 -2.42667,0.0827 -2.41466,0 -4.82533,-0.30266 -6.892,-1.43066 -2.64666,-1.44534 -5.32,-4.43334 -4.108,-7.71067 0.86667,-2.344 3.02934,-4.32667 5.648,-4.32667 0.056,0 0.11334,0.001 0.172,0.003 0.36667,0.82933 0.76534,1.648 1.19067,2.45333 -0.52,-0.14133 -1.048,-0.22 -1.55733,-0.22 -1.54134,0 -2.91867,0.72534 -3.396,2.65867 -1.07734,4.35067 4.388,6.22533 7.75866,6.36533 0.456,0.0187 0.91334,0.0267 1.36934,0.0267 0.53066,0 1.06266,-0.0107 1.59466,-0.0293 0.88667,1.172 1.796,2.32933 2.712,3.484 0.0293,0.44133 0.0507,0.87333 0.0667,1.28933 0.31733,8.432 0.21333,16.90267 -0.108,25.34667" /><path
     id="path100"
     style="fill:#34a180;fill-opacity:1;fill-rule:nonzero;stroke:none;stroke-width:0.133333"
     d="m 843.64931,177.90935 h -19.052 c -0.81066,0 -1.58666,-0.21467 -2.25866,-0.59733 h 6.25066 2.15067 6.75067 2.14933 4.89333 c -0.0373,0.17733 -0.0787,0.356 -0.12666,0.53333 -0.248,0.0413 -0.50134,0.064 -0.75734,0.064" /><path
     id="path102"
     style="fill:#f9dd06;fill-opacity:1;fill-rule:nonzero;stroke:none;stroke-width:0.133333"
     d="m 847.94131,151.06002 c -2.16666,0 -4.212,-0.62 -6.08266,-1.65734 0.028,0 0.0547,0 0.0827,0 2.41467,0 4.824,-0.30266 6.89067,-1.43066 2.64667,-1.44534 5.32,-4.43334 4.10933,-7.71067 -0.868,-2.344 -3.03066,-4.32667 -5.648,-4.32667 -0.0987,0 -0.19866,0.003 -0.29866,0.009 -5.75067,0.32933 -8.09734,5.372 -9.03867,10.50133 -1.608,-1.57333 -2.99867,-3.42 -4.12133,-5.32533 -2.11067,-3.58534 -3.61867,-7.52667 -4.44,-11.60534 -1.00267,-4.98 -0.91067,-10.424 1.65466,-14.808 2.21867,-3.79066 5.58667,-5.22933 9.236,-5.22933 2.22534,0 4.556,0.536 6.792,1.4 6.424,2.48133 10.892,9.45067 12.936,15.81867 1.60534,4.99733 2.01467,10.56133 0.052,15.42933 -1.964,4.868 -6.63733,8.82133 -11.884,8.932 -0.08,0.003 -0.16,0.003 -0.24,0.003 m -1.89066,-34.76667 c -1.692,0 -3.27334,0.892 -3.59867,2.924 -0.45867,2.86667 0.63467,6.11867 2.384,8.368 1.07333,1.38 2.69333,2.564 4.38,2.564 0.28267,0 0.56667,-0.0333 0.85067,-0.104 1.74133,-0.436 2.89466,-2.22667 3.05866,-4.01467 0.16267,-1.78533 -0.48266,-3.54933 -1.304,-5.14533 -0.63333,-1.232 -1.39066,-2.42267 -2.42533,-3.344 -0.90133,-0.80267 -2.152,-1.248 -3.34533,-1.248 m -4.29467,30.928 c -0.668,0 -1.336,-0.0173 -2.00267,-0.044 0.404,-2.65067 1.23067,-5.11467 2.91734,-6.90267 1.10133,-1.168 3.06533,-2.104 4.816,-2.104 1.54266,0 2.91866,0.72534 3.39733,2.65867 1.076,4.35067 -4.388,6.22533 -7.76,6.36533 -0.456,0.0187 -0.912,0.0267 -1.368,0.0267" /><path
     id="path104"
     style="fill:#ad3f1f;fill-opacity:1;fill-rule:nonzero;stroke:none;stroke-width:0.133333"
     d="m 841.94131,149.40268 c -0.028,0 -0.0547,0 -0.0827,0 -1.40534,-0.77866 -2.71334,-1.79333 -3.90267,-2.95733 0.94133,-5.12933 3.288,-10.172 9.03867,-10.50133 0.1,-0.007 0.2,-0.009 0.29866,-0.009 2.61734,0 4.78,1.98267 5.648,4.32667 1.21067,3.27733 -1.46266,6.26533 -4.10933,7.71067 -2.06667,1.128 -4.476,1.43066 -6.89067,1.43066 m 5.54534,-11.232 c -1.75067,0 -3.71467,0.936 -4.816,2.104 -1.68667,1.788 -2.51334,4.252 -2.91734,6.90267 0.66667,0.0267 1.33467,0.044 2.00267,0.044 0.456,0 0.912,-0.008 1.368,-0.0267 3.372,-0.14 8.836,-2.01466 7.76,-6.36533 -0.47867,-1.93333 -1.85467,-2.65867 -3.39733,-2.65867" /><path
     id="path106"
     style="fill:#f9e605;fill-opacity:1;fill-rule:nonzero;stroke:none;stroke-width:0.133333"
     d="m 849.21598,130.14935 c -1.68667,0 -3.30667,-1.184 -4.38,-2.564 -1.74933,-2.24933 -2.84267,-5.50133 -2.384,-8.368 0.32533,-2.032 1.90667,-2.924 3.59867,-2.924 1.19333,0 2.444,0.44533 3.34533,1.248 1.03467,0.92133 1.792,2.112 2.42533,3.344 0.82134,1.596 1.46667,3.36 1.304,5.14533 -0.164,1.788 -1.31733,3.57867 -3.05866,4.01467 -0.284,0.0707 -0.568,0.104 -0.85067,0.104" /><text
     id="text112"
     style="font-variant:normal;font-weight:bold;font-size:32.8286px;font-family:Mohave;-inkscape-font-specification:Mohave-Bold;writing-mode:lr-tb;fill:#45389a;fill-opacity:1;fill-rule:nonzero;stroke:none;stroke-width:1.04882"
     x="313.01065"
     y="58.213802"
     transform="scale(0.7866107,1.2712769)"><tspan
       id="tspan110"
       y="58.213802"
       x="313.01065"
       style="stroke-width:1.04882">&lt;</tspan></text><text
     id="text116"
     style="font-variant:normal;font-weight:bold;font-size:31.6769px;font-family:Mohave;-inkscape-font-specification:Mohave-Bold;writing-mode:lr-tb;fill:#45389a;fill-opacity:1;fill-rule:nonzero;stroke:none;stroke-width:1.33333"
     x="268.43677"
     y="71.523918"><tspan
       id="tspan114"
       y="71.523918"
       x="268.43677"
       style="stroke-width:1.33333">/</tspan></text><text
     id="text120"
     style="font-variant:normal;font-weight:bold;font-size:31.8384px;font-family:Mohave;-inkscape-font-specification:Mohave-Bold;writing-mode:lr-tb;fill:#45389a;fill-opacity:1;fill-rule:nonzero;stroke:none;stroke-width:1.01717"
     x="368.48947"
     y="56.543728"
     transform="scale(0.76288085,1.3108207)"><tspan
       id="tspan118"
       y="56.543728"
       x="368.48947"
       style="stroke-width:1.01717">&gt;</tspan></text><g
     transform="matrix(1.3333333,0,0,-1.3333333,-6.3176895,667.5692)"
     id="g122"><text
   id="text126"
   style="font-variant:normal;font-weight:bold;font-size:28.7454px;font-family:Mohave;-inkscape-font-specification:Mohave-Bold;writing-mode:lr-tb;fill:#eba038;fill-opacity:1;fill-rule:nonzero;stroke:none"
   transform="matrix(1,0,0,-1,519.294,429.058)"><tspan
     id="tspan124"
     y="0"
     x="0 10.34771 24.145502">{ }</tspan></text>
</g><path
     id="path128"
     style="fill:#45389a;fill-opacity:1;fill-rule:nonzero;stroke:none;stroke-width:0.133333"
     d="m 219.56666,144.81735 c 0,-23.72667 -19.23333,-42.96133 -42.96133,-42.96133 -23.72667,0 -42.96133,19.23466 -42.96133,42.96133 0,23.72667 19.23466,42.96133 42.96133,42.96133 23.728,0 42.96133,-19.23466 42.96133,-42.96133" /><path
     id="path130"
     style="fill:#fdfefe;fill-opacity:1;fill-rule:nonzero;stroke:none;stroke-width:0.133333"
     d="m 214.90933,144.81735 c 0,-21.15467 -17.14933,-38.30267 -38.304,-38.30267 -21.15333,0 -38.30267,17.148 -38.30267,38.30267 0,21.15333 17.14934,38.30267 38.30267,38.30267 21.15467,0 38.304,-17.14934 38.304,-38.30267" /><path
     id="path132"
     style="fill:#c8ece9;fill-opacity:1;fill-rule:nonzero;stroke:none;stroke-width:0.133333"
     d="m 177.00266,117.14268 h -0.79333 c -0.36,0 -0.652,-0.292 -0.652,-0.652 v -5.28533 c 0,-0.36133 0.292,-0.65333 0.652,-0.65333 h 0.79333 c 0.36,0 0.652,0.292 0.652,0.65333 v 5.28533 c 0,0.36 -0.292,0.652 -0.652,0.652" /><path
     id="path134"
     style="fill:#c8ece9;fill-opacity:1;fill-rule:nonzero;stroke:none;stroke-width:0.133333"
     d="m 204.27999,145.21335 v -0.79333 c 0,-0.36 0.292,-0.652 0.65334,-0.652 h 5.28533 c 0.36,0 0.652,0.292 0.652,0.652 v 0.79333 c 0,0.36 -0.292,0.652 -0.652,0.652 h -5.28533 c -0.36134,0 -0.65334,-0.292 -0.65334,-0.652" /><path
     id="path136"
     style="fill:#c8ece9;fill-opacity:1;fill-rule:nonzero;stroke:none;stroke-width:0.133333"
     d="m 176.20933,172.49202 h 0.79333 c 0.36,0 0.652,0.292 0.652,0.652 v 5.28533 c 0,0.36 -0.292,0.652 -0.652,0.652 h -0.79333 c -0.36,0 -0.652,-0.292 -0.652,-0.652 v -5.28533 c 0,-0.36 0.292,-0.652 0.652,-0.652" /><path
     id="path138"
     style="fill:#c8ece9;fill-opacity:1;fill-rule:nonzero;stroke:none;stroke-width:0.133333"
     d="m 148.932,144.42002 v 0.79333 c 0,0.36 -0.292,0.652 -0.65334,0.652 h -5.28533 c -0.36,0 -0.652,-0.292 -0.652,-0.652 v -0.79333 c 0,-0.36 0.292,-0.652 0.652,-0.652 h 5.28533 c 0.36134,0 0.65334,0.292 0.65334,0.652" /><path
     id="path140"
     style="fill:#eba038;fill-opacity:1;fill-rule:nonzero;stroke:none;stroke-width:0.133333"
     d="m 196.45466,125.52802 -0.56,-0.56 c -0.25466,-0.25467 -0.25466,-0.668 0,-0.92267 l 3.73734,-3.73733 c 0.25466,-0.25467 0.66799,-0.25467 0.92266,0 l 0.56,0.56133 c 0.25467,0.25467 0.25467,0.66667 0,0.92133 l -3.73733,3.73734 c -0.25467,0.25466 -0.668,0.25466 -0.92267,0" /><path
     id="path142"
     style="fill:#eba038;fill-opacity:1;fill-rule:nonzero;stroke:none;stroke-width:0.133333"
     d="m 195.89466,164.66668 0.56,-0.56133 c 0.25467,-0.25467 0.668,-0.25467 0.92267,0 l 3.73733,3.73733 c 0.25467,0.25467 0.25467,0.668 0,0.92267 l -0.56,0.56133 c -0.25467,0.25467 -0.668,0.25467 -0.92266,0 l -3.73734,-3.73733 c -0.25466,-0.25467 -0.25466,-0.668 0,-0.92267" /><path
     id="path144"
     style="fill:#eba038;fill-opacity:1;fill-rule:nonzero;stroke:none;stroke-width:0.133333"
     d="m 156.75733,164.10535 0.56,0.56133 c 0.25467,0.25467 0.25467,0.668 0,0.92267 l -3.73733,3.73733 c -0.25467,0.25467 -0.668,0.25467 -0.92267,0 l -0.56,-0.56133 c -0.25467,-0.25467 -0.25467,-0.668 0,-0.92267 l 3.73733,-3.73733 c 0.25467,-0.25467 0.668,-0.25467 0.92267,0" /><path
     id="path146"
     style="fill:#eba038;fill-opacity:1;fill-rule:nonzero;stroke:none;stroke-width:0.133333"
     d="m 157.31733,124.96802 -0.56,0.56 c -0.25467,0.25466 -0.668,0.25466 -0.92267,0 l -3.73733,-3.73734 c -0.25467,-0.25466 -0.25467,-0.66666 0,-0.92133 l 0.56,-0.56133 c 0.25467,-0.25467 0.668,-0.25467 0.92267,0 l 3.73733,3.73733 c 0.25467,0.25467 0.25467,0.668 0,0.92267" /><path
     id="path148"
     style="fill:#eba038;fill-opacity:1;fill-rule:nonzero;stroke:none;stroke-width:0.133333"
     d="m 177.292,146.83868 h -1.372 c -0.624,0 -1.12934,-0.50666 -1.12934,-1.12933 v -20.68933 c 0,-0.624 0.50534,-1.12934 1.12934,-1.12934 h 1.372 c 0.624,0 1.12933,0.50534 1.12933,1.12934 v 20.68933 c 0,0.62267 -0.50533,1.12933 -1.12933,1.12933" /><path
     id="path150"
     style="fill:#c8ece9;fill-opacity:1;fill-rule:nonzero;stroke:none;stroke-width:0.133333"
     d="m 174.668,144.93202 0.55866,-1.25467 c 0.25334,-0.57067 0.92134,-0.82667 1.49067,-0.57333 l 18.46933,8.22 c 0.56934,0.25333 0.82534,0.92133 0.572,1.49066 l -0.55733,1.25467 c -0.25467,0.56933 -0.92133,0.82667 -1.492,0.572 l -18.468,-8.21867 c -0.57067,-0.25466 -0.82667,-0.92133 -0.57333,-1.49066" /><path
     id="path152"
     style="fill:#45389a;fill-opacity:1;fill-rule:nonzero;stroke:none;stroke-width:0.133333"
     d="m 179.30133,145.15602 c 0,-1.48934 -1.20667,-2.696 -2.696,-2.696 -1.488,0 -2.69467,1.20666 -2.69467,2.696 0,1.488 1.20667,2.69466 2.69467,2.69466 1.48933,0 2.696,-1.20666 2.696,-2.69466" /><path
     id="path154"
     style="fill:#fdfefe;fill-opacity:1;fill-rule:nonzero;stroke:none;stroke-width:0.133333"
     d="m 178.208,145.15602 c 0,-0.88534 -0.71734,-1.60267 -1.60267,-1.60267 -0.884,0 -1.60133,0.71733 -1.60133,1.60267 0,0.884 0.71733,1.60133 1.60133,1.60133 0.88533,0 1.60267,-0.71733 1.60267,-1.60133" /><path
     id="path156"
     style="fill:#ace1e9;fill-opacity:1;fill-rule:nonzero;stroke:none;stroke-width:0.133333"
     d="m 283.44799,358.92934 v 236.5092 h 12.13067 v -236.5092 h -12.13067" /><path
     id="path158"
     style="fill:#ace1e9;fill-opacity:1;fill-rule:nonzero;stroke:none;stroke-width:0.133333"
     d="m 697.24398,358.92934 v 236.5092 h 12.12934 v -236.5092 h -12.12934" /><path
     id="path160"
     style="fill:#ace1e9;fill-opacity:1;fill-rule:nonzero;stroke:none;stroke-width:0.133333"
     d="M 807.17598,363.80401 H 190.724 v -12.57333 h 616.45198 v 12.57333" /><path
     id="path162"
     style="fill:#ace1e9;fill-opacity:1;fill-rule:nonzero;stroke:none;stroke-width:0.133333"
     d="m 324.28666,63.265352 h -3.812 v -1.270667 h 3.812 z m 7.62533,0 h -3.81333 v -1.270667 h 3.81333 z m 7.624,0 h -3.812 v -1.270667 h 3.812 z m 7.624,0 h -3.812 v -1.270667 h 3.812 z m 7.624,0 h -3.812 v -1.270667 h 3.812 z m 7.624,0 h -3.812 v -1.270667 h 3.812 z m 7.624,0 h -3.812 v -1.270667 h 3.812 z m 7.03467,1.649333 c -1.07067,-0.578667 -2.21334,-1.010667 -3.39734,-1.288 l 0.28934,-1.237333 c 1.29333,0.302666 2.54133,0.776 3.712,1.406666 z m 5.23333,4.952 c -0.63467,-1.036 -1.40533,-1.985333 -2.28933,-2.821333 l 0.87333,-0.922667 c 0.964,0.912 1.80533,1.949333 2.5,3.078667 z m 2.03067,6.909333 c -0.028,-1.221333 -0.21467,-2.429333 -0.55467,-3.590666 l 1.21867,-0.357334 c 0.372,1.268 0.576,2.586667 0.60666,3.92 z m 1.27333,7.610667 h -1.27067 v -3.812 h 1.27067 z m 0,7.623999 h -1.27067 v -3.812 h 1.27067 z m 0,7.624 h -1.27067 v -3.812 h 1.27067 z m 0,7.625336 h -1.27067 v -3.812 h 1.27067 z m 0,7.62266 h -1.27067 v -3.81066 h 1.27067 z m 0,7.62534 h -1.27067 v -3.81334 h 1.27067 z m 0,7.624 h -1.27067 v -3.812 h 1.27067 z m 0,7.624 h -1.27067 v -3.812 h 1.27067 z m 0,7.624 h -1.27067 v -3.812 h 1.27067 z m 0,7.624 h -1.27067 v -3.812 h 1.27067 z m 0,7.624 h -1.27067 v -3.812 h 1.27067 z m 0,7.62533 h -1.27067 v -3.812 h 1.27067 z m 0,7.624 h -1.27067 v -3.812 h 1.27067 z m 0,7.624 h -1.27067 v -3.812 h 1.27067 v 3.812" /><path
     id="path164"
     style="fill:#ace1e9;fill-opacity:1;fill-rule:nonzero;stroke:none;stroke-width:0.133333"
     d="m 628.09332,84.050685 h -3.812 v -1.270667 h 3.812 z m 7.624,0 h -3.812 v -1.270667 h 3.812 z m 7.624,0 h -3.812 v -1.270667 h 3.812 z m 7.62533,0 h -3.81333 v -1.270667 h 3.81333 z m 7.624,0 h -3.812 v -1.270667 h 3.812 z m 7.624,0 h -3.812 v -1.270667 h 3.812 z m -49.54667,0.0027 -0.0213,-1.270666 3.82267,-0.0027 v 1.270667 z m -7.164,1.529334 -0.50266,-1.166667 c 1.204,-0.52 2.464,-0.921333 3.744,-1.193333 l 0.26533,1.242666 c -1.19867,0.254667 -2.37867,0.630667 -3.50667,1.117334 z m -6.04,4.154666 -0.908,-0.888 c 0.91734,-0.94 1.92934,-1.792 3.00534,-2.532 l 0.71866,1.046667 c -1.00666,0.693333 -1.95466,1.492 -2.816,2.373333 z m -4.00533,6.134667 -1.17866,-0.474667 c 0.48933,-1.214667 1.10133,-2.386667 1.81733,-3.482667 l 1.064,0.694667 c -0.67067,1.026667 -1.244,2.124 -1.70267,3.262667 z m -1.35866,7.203998 h -1.27067 v -0.16134 c 10e-4,-1.26266 0.11867,-2.52133 0.34933,-3.745325 l 1.248,0.234667 c -0.216,1.145328 -0.32533,2.327998 -0.32666,3.510658 z m 0,7.62533 h -1.27067 v -3.812 h 1.27067 z m 0,7.624 h -1.27067 v -3.812 h 1.27067 z m 0,7.624 h -1.27067 v -3.812 h 1.27067 z m 0,7.624 h -1.27067 v -3.812 h 1.27067 z m 0,7.624 h -1.27067 v -3.812 h 1.27067 z m 0,7.62533 h -1.27067 v -3.81333 h 1.27067 z m 0,7.624 h -1.27067 v -3.812 h 1.27067 z m 0,7.624 h -1.27067 v -3.812 h 1.27067 z m 0,7.624 h -1.27067 v -3.812 h 1.27067 z m 0,7.624 h -1.27067 v -3.812 h 1.27067 v 3.812" /><path
     id="path166"
     style="fill:#ace1e9;fill-opacity:1;fill-rule:nonzero;stroke:none;stroke-width:0.133333"
     d="m 834.75065,211.58535 h -1.27067 v -1.08534 h 1.27067 z m 0,7.624 h -1.27067 v -3.812 h 1.27067 z m 0,7.62533 h -1.27067 v -3.812 h 1.27067 z m 0,7.624 h -1.27067 v -3.812 h 1.27067 z m -0.64534,7.74667 -1.216,-0.36934 c 0.352,-1.16 0.548,-2.36533 0.584,-3.58533 l 1.27067,0.0373 c -0.04,1.332 -0.25467,2.64934 -0.63867,3.91734 z m -4.16666,6.67066 -0.86667,-0.93066 c 0.89333,-0.82934 1.67067,-1.77334 2.31467,-2.80267 l 1.07733,0.67333 c -0.70267,1.124 -1.552,2.15334 -2.52533,3.06 z m -6.956,3.676 -0.27734,-1.24 c 1.184,-0.26666 2.33067,-0.69066 3.408,-1.25866 l 0.592,1.12266 c -1.176,0.62134 -2.428,1.084 -3.72266,1.376 z m -87.78934,0.36667 h -3.81199 v -1.27067 h 3.81199 z m 7.624,0 h -3.812 v -1.27067 h 3.812 z m 7.624,0 h -3.812 v -1.27067 h 3.812 z m 7.624,0 h -3.812 v -1.27067 h 3.812 z m 7.62534,0 h -3.812 v -1.27067 h 3.812 z m 7.624,0 h -3.812 v -1.27067 h 3.812 z m 7.624,0 h -3.812 v -1.27067 h 3.812 z m 7.624,0 h -3.812 v -1.27067 h 3.812 z m 7.624,0 h -3.812 v -1.27067 h 3.812 z m 7.624,0 h -3.812 v -1.27067 h 3.812 z m 7.624,0 h -3.812 v -1.27067 h 3.812 z m 7.62533,0 h -3.812 v -1.27067 h 3.812 v 1.27067" /><path
     id="path168"
     style="fill:#ace1e9;fill-opacity:1;fill-rule:nonzero;stroke:none;stroke-width:0.133333"
     d="m 233.04133,143.62535 h -3.812 v -1.27067 h 3.812 z m 7.624,0 h -3.812 v -1.27067 h 3.812 z m 7.624,0 h -3.812 v -1.27067 h 3.812 z m 7.624,0 h -3.812 v -1.27067 h 3.812 z m 7.62533,0 h -3.81333 v -1.27067 h 3.81333 z m 7.624,0 h -3.812 v -1.27067 h 3.812 z m 7.624,0 h -3.812 v -1.27067 h 3.812 z m 7.624,0 h -3.812 v -1.27067 h 3.812 z m 7.544,0.12 c -0.68533,-0.08 -1.38533,-0.12 -2.084,-0.12 h -1.648 v -1.27067 h 1.648 c 0.74667,0 1.49733,0.0427 2.232,0.128 z m 6.93067,2.32 c -1.05867,-0.62 -2.184,-1.132 -3.344,-1.52133 l 0.40266,-1.204 c 1.244,0.416 2.44934,0.964 3.584,1.62933 z m 5.42,4.90533 c -0.72267,-0.99066 -1.55067,-1.90933 -2.45734,-2.732 l 0.852,-0.94133 c 0.972,0.88 1.85734,1.864 2.632,2.924 z m 3,6.66134 c -0.26267,-1.196 -0.65067,-2.36934 -1.15467,-3.48667 l 1.16,-0.52267 c 0.53867,1.19734 0.95467,2.45467 1.236,3.73734 z m 1.68666,7.456 h -1.272 v -3.80667 l 1.27067,-0.012 z m 0,7.624 h -1.272 v -3.812 h 1.272 z m 0,6.36933 h -1.272 v -2.55733 h 1.272 v 2.55733" /><path
     id="path170"
     style="fill:#f470b4;fill-opacity:1;fill-rule:nonzero;stroke:none;stroke-width:0.133333"
     d="m 556.36932,295.95601 -60.324,27.18134 25.18933,8.03866 73.61067,-16.89866 -38.476,-18.32134" /><path
     id="path172"
     style="fill:#f3fbfc;fill-opacity:1;fill-rule:nonzero;stroke:none;stroke-width:0.133333"
     d="m 190.724,351.23201 74.33199,-23.52666 h 492.11466 l 50.00533,23.52666 H 190.724" /><path
     id="path174"
     style="fill:#3aa6a4;fill-opacity:1;fill-rule:nonzero;stroke:none;stroke-width:0.133333"
     d="m 760.66798,317.41468 c -3.60667,0 -6.54,2.93333 -6.54,6.53867 v 3.67333 c 0,3.60533 2.93333,6.54 6.54,6.54 h 7.036 c 3.60667,0 6.54,-2.93467 6.54,-6.54 v -3.67333 c 0,-3.60534 -2.93333,-6.53867 -6.54,-6.53867 z m 7.036,20.572 h -7.036 c -5.71333,0 -10.36133,-4.648 -10.36133,-10.36 v -3.67333 c 0,-5.712 4.648,-10.36 10.36133,-10.36 h 7.036 c 5.71333,0 10.36133,4.648 10.36133,10.36 v 3.67333 c 0,5.712 -4.648,10.36 -10.36133,10.36" /><path
     id="path176"
     style="fill:#318b8a;fill-opacity:1;fill-rule:nonzero;stroke:none;stroke-width:0.133333"
     d="m 765.83998,311.45201 c 0,-4.796 -10.15467,-8.684 -22.68267,-8.684 -12.52666,0 -22.68266,3.888 -22.68266,8.684 0,0 -4.61467,21.38267 11.87867,32.88667 0.38533,0.26933 0.85333,0.40933 1.32399,0.40933 h 4.88534 9.18933 4.88667 c 0.47066,0 0.93733,-0.14 1.324,-0.40933 16.49333,-11.504 11.87733,-32.88667 11.87733,-32.88667" /><path
     id="path178"
     style="fill:#80c5ca;fill-opacity:1;fill-rule:nonzero;stroke:none;stroke-width:0.133333"
     d="m 720.47465,311.45201 c 0,-0.009 0,-0.0173 10e-4,-0.0267 -10e-4,0.009 -10e-4,0.0173 -10e-4,0.0267 m 10e-4,-0.036 c 0,-0.005 0,-0.0107 0,-0.016 0,0.005 0,0.0107 0,0.016 m 0,-0.028 c 0,-0.004 0,-0.008 0,-0.0133 0,0.004 0,0.009 0,0.0133 m 0,-0.0267 c 0,-0.004 0,-0.007 10e-4,-0.0107 -10e-4,0.004 -10e-4,0.007 -10e-4,0.0107 m 10e-4,-0.0267 c 0,-10e-4 0,-10e-4 0,-0.003 0,10e-4 0,10e-4 0,0.003" /><path
     id="path180"
     style="fill:#2a7778;fill-opacity:1;fill-rule:nonzero;stroke:none;stroke-width:0.133333"
     d="m 752.63865,344.74801 h -18.96134 c -0.008,0 -0.0147,-0.001 -0.0227,-0.001 -0.46267,-0.004 -0.92133,-0.14267 -1.30133,-0.408 v 0 c -10.58267,-7.38134 -12.47467,-18.82933 -12.472,-26.08667 0.001,-4.05333 0.59333,-6.8 0.59333,-6.8 v 0 c 0,-0.009 0,-0.0173 10e-4,-0.0267 0,-0.003 0,-0.005 0,-0.009 0,-0.005 0,-0.0107 0,-0.016 0,-0.004 0,-0.008 0,-0.012 0,-0.004 0,-0.009 0,-0.0133 0,-0.004 0,-0.009 0,-0.0133 0,-0.004 0,-0.007 0.001,-0.0107 0,-0.005 0,-0.0107 0,-0.016 0,-10e-4 0,-10e-4 0,-0.003 0.0693,-1.956 1.84133,-3.75066 4.75466,-5.19066 -0.21466,8.06533 5.23067,16.23866 11.45467,20.86133 4.57466,3.39733 9.76933,5.716 13.95333,9.66266 2.54133,2.39734 3.368,5.044 3.172,7.74667 -0.356,0.20933 -0.75867,0.336 -1.17333,0.336 v 0" /><path
     id="path182"
     style="fill:#215251;fill-opacity:1;fill-rule:nonzero;stroke:none;stroke-width:0.133333"
     d="m 762.83331,311.85335 c 0,3.688 -8.824,6.67733 -19.70933,6.67733 -10.88533,0 -19.70933,-2.98933 -19.70933,-6.67733 0,-3.688 8.824,-6.67867 19.70933,-6.67867 10.88533,0 19.70933,2.99067 19.70933,6.67867" /><path
     id="path184"
     style="fill:#f9ab0c;fill-opacity:1;fill-rule:nonzero;stroke:none;stroke-width:0.133333"
     d="m 724.77465,314.27735 c 2.86667,2.488 9.992,4.25333 18.34933,4.25333 8.35733,0 15.48267,-1.76533 18.348,-4.25333 -2.86533,-2.488 -9.99067,-4.25334 -18.348,-4.25334 -8.35733,0 -15.48266,1.76534 -18.34933,4.25334" /><path
     id="path186"
     style="fill:#2c62a1;fill-opacity:1;fill-rule:nonzero;stroke:none;stroke-width:0.133333"
     d="m 241.60933,236.82401 -11.41467,6.41067 -0.93733,0.516 h 16.65466 v -6.92667 h -4.30266" /><path
     id="path188"
     style="fill:#2e61b5;fill-opacity:1;fill-rule:nonzero;stroke:none;stroke-width:0.133333"
     d="M 260.77599,348.16001 H 229.25733 V 243.75068 h 31.51866 v 104.40933" /><path
     id="path190"
     style="fill:#eba038;fill-opacity:1;fill-rule:nonzero;stroke:none;stroke-width:0.133333"
     d="m 260.57866,338.75601 h -31.124 v -5.37333 h 31.124 v 5.37333" /><path
     id="path192"
     style="fill:#eba038;fill-opacity:1;fill-rule:nonzero;stroke:none;stroke-width:0.133333"
     d="m 260.78399,252.28401 h -31.55466 v -4.67333 h 31.55466 v 4.67333" /><path
     id="path194"
     style="fill:#448cc2;fill-opacity:1;fill-rule:nonzero;stroke:none;stroke-width:0.133333"
     d="m 260.57866,328.20401 h -31.124 v -10.132 h 31.124 v 10.132" /><path
     id="path196"
     style="fill:#c8ece9;fill-opacity:1;fill-rule:nonzero;stroke:none;stroke-width:0.133333"
     d="m 252.32399,265.11201 c 0,-4.036 -3.27066,-7.308 -7.30666,-7.308 -4.036,0 -7.308,3.272 -7.308,7.308 0,4.036 3.272,7.308 7.308,7.308 4.036,0 7.30666,-3.272 7.30666,-7.308" /><path
     id="path198"
     style="fill:#2c62a1;fill-opacity:1;fill-rule:nonzero;stroke:none;stroke-width:0.133333"
     d="m 260.77599,243.75068 11.02934,-6.99867 v 106.18133 l -11.02934,5.22667 V 243.75068" /><path
     id="path200"
     style="fill:#26547c;fill-opacity:1;fill-rule:nonzero;stroke:none;stroke-width:0.133333"
     d="m 269.17066,236.82401 -11.144,6.92667 h 2.74933 l 10.91734,-6.92667 h -2.52267" /><path
     id="path202"
     style="fill:#26547c;fill-opacity:1;fill-rule:nonzero;stroke:none;stroke-width:0.133333"
     d="m 241.60399,236.82401 -12.34666,6.92667 h 1.53066 l 12.292,-6.92667 h -1.476" /><path
     id="path204"
     style="fill:#ace1e9;fill-opacity:1;fill-rule:nonzero;stroke:none;stroke-width:0.133333"
     d="m 243.07999,236.82401 -12.292,6.92667 h 28.39734 l 11.34933,-6.92667 h -27.45467" /><path
     id="path206"
     style="fill:#f3fbfc;fill-opacity:1;fill-rule:nonzero;stroke:none;stroke-width:0.133333"
     d="m 559.57865,191.16268 h 131.71333 c 0.70667,-0.0413 1.448,-0.0533 2.272,0 1.95867,0 3.83067,0.352 5.58,0.96534 13.53734,3.93733 14.81067,17.85599 14.81067,17.85599 l -3.52933,2.16934 v 90.804 c 0,9.312 -7.54934,16.86133 -16.86134,16.86133 H 559.57865 c -9.31333,0 -16.86133,-7.54933 -16.86133,-16.86133 v -94.932 c 0,-9.31333 7.548,-16.86267 16.86133,-16.86267" /><path
     id="path208"
     style="fill:#6c62b7;fill-opacity:1;fill-rule:nonzero;stroke:none;stroke-width:0.133333"
     d="m 542.71732,207.96935 c 0,-0.005 0,-0.009 0,-0.0147 0,0.005 0,0.009 0,0.0147 m 0,-0.0573 c 0,-0.004 0,-0.009 0,-0.0133 0,0.004 0,0.009 0,0.0133 m 0,-0.056 c 0,-0.004 0,-0.008 0,-0.012 0,0.004 0,0.008 0,0.012 m 10e-4,-0.0573 c 0,-0.003 0,-0.005 0,-0.008 0,0.003 0,0.004 0,0.008 m 0,-0.0587 c 0,-0.001 0,-0.001 0,-0.003 0,10e-4 0,10e-4 0,0.003" /><path
     id="path210"
     style="fill:#ecf9fd;fill-opacity:1;fill-rule:nonzero;stroke:none;stroke-width:0.133333"
     d="m 566.28932,319.81868 h -6.71067 c -9.31333,0 -16.86133,-7.54933 -16.86133,-16.86133 v -94.932 c 0,-0.0187 0,-0.0373 0,-0.056 0,-0.005 0,-0.009 0,-0.0147 0,-0.0147 0,-0.028 0,-0.0427 0,-0.004 0,-0.009 0,-0.0133 0,-0.0147 0,-0.0293 0,-0.0427 0,-0.004 0,-0.008 0,-0.012 10e-4,-0.016 10e-4,-0.0307 10e-4,-0.0453 0,-0.004 0,-0.005 0,-0.008 0,-0.0173 0,-0.0347 0,-0.0507 0,-0.001 0,-0.001 0,-0.003 0.0813,-4.77734 2.16,-9.05867 5.424,-12.07867 2.37067,1.504 4.728,3.02667 7.07334,4.56933 -3.556,3.236 -5.788,7.90267 -5.788,13.08934 v 88.80933 0 0.83067 c 0,9.312 7.54933,16.86133 16.86133,16.86133" /><path
     id="path212"
     style="fill:#d9f3fd;fill-opacity:1;fill-rule:nonzero;stroke:none;stroke-width:0.133333"
     d="m 567.11999,319.81868 h 129.32666 c 9.772,0 17.69333,-7.92133 17.69333,-17.692 v -88.80933 c 0,-9.77067 -7.92133,-17.69333 -17.69333,-17.69333 H 567.11999 c -9.77067,0 -17.692,7.92266 -17.692,17.69333 v 88.80933 c 0,9.77067 7.92133,17.692 17.692,17.692" /><path
     id="path214"
     style="fill:#a5deea;fill-opacity:1;fill-rule:nonzero;stroke:none;stroke-width:0.133333"
     d="m 697.27732,319.81868 h -105.58667 104.756 c 9.772,0 17.69333,-7.92133 17.69333,-17.692 v -88.80933 c 0,-1.11467 -0.10266,-2.204 -0.3,-3.26267 l 0.11467,-0.0707 c 0,0 0,-0.004 -10e-4,-0.012 0.12266,0.82 0.18666,1.66 0.18666,2.51467 v 90.47067 c 0,9.312 -7.54933,16.86133 -16.86266,16.86133" /><path
     id="path216"
     style="fill:#f46fb5;fill-opacity:1;fill-rule:nonzero;stroke:none;stroke-width:0.133333"
     d="m 570.70532,319.81868 h -4.416 v 0 h 0.83067 v 0 h 3.58533" /><path
     id="path218"
     style="fill:#e9f8fc;fill-opacity:1;fill-rule:nonzero;stroke:none;stroke-width:0.133333"
     d="m 713.83998,210.05468 c -1.532,-8.212 -8.736,-14.43066 -17.39333,-14.43066 h 0.83067 c 8.45866,0 15.46266,6.22799 16.676,14.34799 0.001,0.008 0.001,0.012 0.001,0.012 l -0.11467,0.0707" /><path
     id="path220"
     style="fill:#e4f6fd;fill-opacity:1;fill-rule:nonzero;stroke:none;stroke-width:0.133333"
     d="m 567.11999,319.81868 h -0.83067 c -9.312,0 -16.86133,-7.54933 -16.86133,-16.86133 v -0.83067 c 0,9.77067 7.92133,17.692 17.692,17.692" /><path
     id="path222"
     style="fill:#d1f0fc;fill-opacity:1;fill-rule:nonzero;stroke:none;stroke-width:0.133333"
     d="M 696.44665,319.81868 H 567.11999 v 0 0 c -9.77067,0 -17.692,-7.92133 -17.692,-17.692 v -25.50533 c 5.22933,-3.83734 11.17066,-6.74934 17.23866,-9.112 20.224,-7.872 42.08,-10.27334 63.308,-14.78667 15.452,-3.28667 31.42,-8.16 42.39867,-19.51867 9.604,-9.936 14.20266,-23.76933 15.54,-37.57999 h 8.53333 c 8.65733,0 15.86133,6.21866 17.39333,14.43066 0.19734,1.05867 0.3,2.148 0.3,3.26267 v 88.80933 c 0,9.77067 -7.92133,17.692 -17.69333,17.692" /><path
     id="path224"
     style="fill:#bbdee4;fill-opacity:1;fill-rule:nonzero;stroke:none;stroke-width:0.133333"
     d="m 629.90665,346.12801 -16.13867,-0.0547 c -2.99333,-0.0107 -5.32933,-2.59333 -5.04,-5.572 l 6.93734,-71.40399 c 0.24133,-2.48134 2.32666,-4.37467 4.82,-4.37467 h 9.42133 4.07333 9.42134 c 2.49333,0 4.57866,1.89333 4.82,4.37467 l 6.93733,71.40399 c 0.28933,2.97867 -2.04667,5.56134 -5.04,5.572 l -16.13867,0.0547 v 0.0147 l -2.036,-0.007 -2.03733,0.007 v -0.0147" /><path
     id="path226"
     style="fill:#ffffff;fill-opacity:1;fill-rule:nonzero;stroke:none;stroke-width:0.133333"
     d="m 623.95465,281.82668 c 0,4.05467 3.28667,7.34267 7.34133,7.34267 4.05467,0 7.34267,-3.288 7.34267,-7.34267 0,-4.05467 -3.288,-7.34133 -7.34267,-7.34133 -4.05466,0 -7.34133,3.28666 -7.34133,7.34133" /><path
     id="path228"
     style="fill:#bbdee4;fill-opacity:1;fill-rule:nonzero;stroke:none;stroke-width:0.133333"
     d="m 516.75065,343.21601 c 2.87334,0 4.65334,-3.06 3.31067,-5.6 -3.29867,-6.236 -10.57333,-10.56933 -19.02267,-10.56933 -8.55066,0 -15.9,4.43867 -19.13866,10.79733 -1.25467,2.46133 0.656,5.372 3.41733,5.372 h 31.43333" /><path
     id="path230"
     style="fill:#f470b4;fill-opacity:1;fill-rule:nonzero;stroke:none;stroke-width:0.133333"
     d="m 488.19332,325.33735 c 6.43733,-4.58 14.86,-5.10534 22.25867,-2.824 3.11466,0.96 6.208,2.52933 8.49866,5 1.88667,2.03466 4.048,6.63066 1.49467,8.95466 -1.00133,0.912 -2.56267,0.91867 -3.836,0.456 -1.272,-0.46267 -2.35867,-1.31333 -3.52267,-2.00533 -3.40533,-2.02133 -7.48533,-2.66 -11.444,-2.52133 -3.95733,0.14 -7.848,1.01066 -11.72266,1.82533 -1.48934,0.31333 -2.98267,0.61866 -4.492,0.816 -0.50667,0.0667 -1.09734,0.092 -1.44667,-0.28134 -0.228,-0.24533 -0.28533,-0.60133 -0.31067,-0.936 -0.25333,-3.34133 1.79067,-6.54133 4.52267,-8.48399" /><path
     id="path232"
     style="fill:#f470b4;fill-opacity:1;fill-rule:nonzero;stroke:none;stroke-width:0.133333"
     d="m 437.87199,331.56401 c 0.007,-0.12933 0.028,-0.25733 0.028,-0.388 0,-6.81733 -8.524,-12.344 -19.03867,-12.344 -10.516,0 -19.04,5.52667 -19.04,12.344 0,0.13067 0.0213,0.25867 0.028,0.388 h 38.02267" /><path
     id="path234"
     style="fill:#ace1e9;fill-opacity:1;fill-rule:nonzero;stroke:none;stroke-width:0.133333"
     d="M 452.38666,338.75601 H 310.35599 v -7.192 h 142.03067 v 7.192" /><path
     id="path236"
     style="fill:#f3fbfc;fill-opacity:1;fill-rule:nonzero;stroke:none;stroke-width:0.133333"
     d="M 435.52532,191.16268 H 303.81066 c -0.70533,-0.0413 -1.448,-0.0533 -2.27067,0 -1.95866,0 -3.83066,0.352 -5.58,0.96534 -13.53733,3.93733 -14.81066,17.85599 -14.81066,17.85599 l 3.52933,2.16934 v 90.804 c 0,9.312 7.54933,16.86133 16.86133,16.86133 h 133.98533 c 9.312,0 16.86134,-7.54933 16.86134,-16.86133 v -94.932 c 0,-9.31333 -7.54934,-16.86267 -16.86134,-16.86267" /><path
     id="path238"
     style="fill:#f299c8;fill-opacity:1;fill-rule:nonzero;stroke:none;stroke-width:0.133333"
     d="m 452.38666,211.62135 v 0 -3.596 3.596 m 0,-3.652 c 0,-0.005 0,-0.009 0,-0.0147 0,0.005 0,0.009 0,0.0147 m 0,-0.0573 c 0,-0.004 0,-0.009 0,-0.0147 0,0.005 0,0.0107 0,0.0147 m 0,-0.056 c -0.001,-0.004 -0.001,-0.009 -0.001,-0.0133 0,0.004 0,0.009 0.001,0.0133 m -0.001,-0.0573 c 0,-0.004 0,-0.005 0,-0.009 0,0.003 0,0.005 0,0.009 m -10e-4,-0.0587 c 0,-0.001 0,-0.003 0,-0.004 0,0.001 0,0.003 0,0.004" /><path
     id="path240"
     style="fill:#ecf9fd;fill-opacity:1;fill-rule:nonzero;stroke:none;stroke-width:0.133333"
     d="m 435.52532,319.81868 h -6.71066 c 9.312,0 16.86133,-7.54933 16.86133,-16.86133 v -26.336 0 -63.304 c 0,-5.18667 -2.232,-9.85334 -5.78933,-13.08934 2.34666,-1.54266 4.704,-3.06533 7.07333,-4.56933 3.264,3.02 5.344,7.3 5.424,12.07733 0,0.001 0,0.003 0,0.004 0.001,0.016 0.001,0.0333 0.001,0.0493 0,0.004 0,0.005 0,0.009 0,0.0147 0,0.0293 0,0.044 0,0.004 0,0.009 10e-4,0.0133 0,0.0133 0,0.028 0,0.0413 0,0.005 0,0.0107 0,0.0147 0,0.0147 0,0.028 0,0.0427 0,0.005 0,0.009 0,0.0147 0,0.0187 0,0.0373 0,0.056 v 3.596 91.336 c 0,9.312 -7.54934,16.86133 -16.86134,16.86133" /><path
     id="path242"
     style="fill:#d9f3fd;fill-opacity:1;fill-rule:nonzero;stroke:none;stroke-width:0.133333"
     d="M 427.98266,319.81868 H 298.65599 c -9.77066,0 -17.692,-7.92133 -17.692,-17.692 v -88.80933 c 0,-9.77067 7.92134,-17.69333 17.692,-17.69333 h 129.32667 c 9.772,0 17.69333,7.92266 17.69333,17.69333 v 88.80933 c 0,9.77067 -7.92133,17.692 -17.69333,17.692" /><path
     id="path244"
     style="fill:#a5deea;fill-opacity:1;fill-rule:nonzero;stroke:none;stroke-width:0.133333"
     d="M 403.67199,319.81868 H 297.82533 c -9.312,0 -16.86134,-7.54933 -16.86134,-16.86133 v -0.83067 c 0,9.77067 7.92134,17.692 17.692,17.692 h 105.016" /><path
     id="path246"
     style="fill:#a5deea;fill-opacity:1;fill-rule:nonzero;stroke:none;stroke-width:0.133333"
     d="m 280.96399,213.31735 v -0.83067 c 0,-0.85467 0.064,-1.69467 0.18667,-2.51467 -0.001,0.008 -0.001,0.012 -0.001,0.012 l 0.11466,0.0707 c -0.19733,1.05867 -0.3,2.148 -0.3,3.26267" /><path
     id="path248"
     style="fill:#e9f8fc;fill-opacity:1;fill-rule:nonzero;stroke:none;stroke-width:0.133333"
     d="m 281.26399,210.05468 -0.11466,-0.0707 c 0,0 0,-0.004 10e-4,-0.012 1.21333,-8.12 8.21733,-14.34799 16.67467,-14.34799 h 0.83066 c -8.656,0 -15.86133,6.21866 -17.392,14.43066" /><path
     id="path250"
     style="fill:#e4f6fd;fill-opacity:1;fill-rule:nonzero;stroke:none;stroke-width:0.133333"
     d="m 428.81466,319.81868 h -0.832 c 9.772,0 17.69333,-7.92133 17.69333,-17.692 v -25.50533 0 26.336 c 0,9.312 -7.54933,16.86133 -16.86133,16.86133" /><path
     id="path252"
     style="fill:#d1f0fc;fill-opacity:1;fill-rule:nonzero;stroke:none;stroke-width:0.133333"
     d="M 427.98266,319.81868 H 298.65599 c -9.77066,0 -17.692,-7.92133 -17.692,-17.692 v -88.80933 c 0,-1.11467 0.10267,-2.204 0.3,-3.26267 1.53067,-8.212 8.736,-14.43066 17.392,-14.43066 h 8.53467 c 1.33733,13.81066 5.93467,27.64399 15.54,37.57999 10.97866,11.35867 26.94666,16.232 42.39866,19.51867 21.228,4.51333 43.084,6.91467 63.308,14.78667 6.068,2.36266 12.008,5.27466 17.23867,9.112 v 25.50533 c 0,9.77067 -7.92133,17.692 -17.69333,17.692 v 0" /><path
     id="path254"
     style="fill:#bbdee4;fill-opacity:1;fill-rule:nonzero;stroke:none;stroke-width:0.133333"
     d="m 358.84266,346.12801 16.14,-0.0547 c 2.992,-0.0107 5.328,-2.59333 5.03866,-5.572 l -6.936,-71.40399 c -0.24133,-2.48134 -2.32666,-4.37467 -4.82,-4.37467 h -9.42266 -4.072 -9.42134 c -2.49333,0 -4.58,1.89333 -4.82133,4.37467 l -6.936,71.40399 c -0.28933,2.97867 2.04667,5.56134 5.04,5.572 l 16.13867,0.0547 v 0.0147 l 2.036,-0.007 2.036,0.007 v -0.0147" /><path
     id="path256"
     style="fill:#ffffff;fill-opacity:1;fill-rule:nonzero;stroke:none;stroke-width:0.133333"
     d="m 364.79599,281.82668 c 0,4.05467 -3.28667,7.34267 -7.34267,7.34267 -4.05466,0 -7.34133,-3.288 -7.34133,-7.34267 0,-4.05467 3.28667,-7.34133 7.34133,-7.34133 4.056,0 7.34267,3.28666 7.34267,7.34133" /></svg>
