<?xml version="1.0" encoding="UTF-8" standalone="no"?>
<svg
   xmlns:dc="http://purl.org/dc/elements/1.1/"
   xmlns:cc="http://creativecommons.org/ns#"
   xmlns:rdf="http://www.w3.org/1999/02/22-rdf-syntax-ns#"
   xmlns:svg="http://www.w3.org/2000/svg"
   xmlns="http://www.w3.org/2000/svg"
   xmlns:sodipodi="http://sodipodi.sourceforge.net/DTD/sodipodi-0.dtd"
   xmlns:inkscape="http://www.inkscape.org/namespaces/inkscape"
   style="isolation:isolate"
   viewBox="0 0 672.80701 390.99802"
   width="672.80701pt"
   height="390.99802pt"
   version="1.1"
   id="svg250"
   sodipodi:docname="programmer_2.svg"
   inkscape:version="1.0.1 (3bc2e813f5, 2020-09-07)">
  <metadata
     id="metadata254">
    <rdf:RDF>
      <cc:Work
         rdf:about="">
        <dc:format>image/svg+xml</dc:format>
        <dc:type
           rdf:resource="http://purl.org/dc/dcmitype/StillImage" />
        <dc:title></dc:title>
      </cc:Work>
    </rdf:RDF>
  </metadata>
  <sodipodi:namedview
     pagecolor="#ffffff"
     bordercolor="#666666"
     borderopacity="1"
     objecttolerance="10"
     gridtolerance="10"
     guidetolerance="10"
     inkscape:pageopacity="0"
     inkscape:pageshadow="2"
     inkscape:window-width="1920"
     inkscape:window-height="1017"
     id="namedview252"
     showgrid="false"
     inkscape:zoom="0.78347431"
     inkscape:cx="741.21199"
     inkscape:cy="310.86322"
     inkscape:window-x="-8"
     inkscape:window-y="-8"
     inkscape:window-maximized="1"
     inkscape:current-layer="svg250">
    <sodipodi:guide
       position="0,390.99802"
       orientation="0,897.07601"
       id="guide1320" />
    <sodipodi:guide
       position="672.80702,390.99802"
       orientation="521.33069,0"
       id="guide1322" />
    <sodipodi:guide
       position="672.80702,0"
       orientation="0,-897.07601"
       id="guide1324" />
    <sodipodi:guide
       position="0,0"
       orientation="-521.33069,0"
       id="guide1326" />
  </sodipodi:namedview>
  <defs
     id="defs5">
    <clipPath
       id="_clipPath_k741YbJWuYYfS8j1khjbLKzwF8iRfn0Q">
      <rect
         width="750"
         height="500"
         id="rect2"
         x="0"
         y="0" />
    </clipPath>
    <clipPath
       id="_clipPath_qlNmrqTV1MI91rXyPpxZkYrtZENZkix0">
      <path
         d="M 750,500 H 0 V 0 h 750 z"
         fill="#ffffff"
         id="path11" />
    </clipPath>
  </defs>
  <path
     d="m -28.289,-46.541 v 500 h 750 v -500 z"
     fill="none"
     id="path7" />
  <path
     d="m 721.711,453.459 h -750 v -500 h 750 z"
     fill="#fefefe"
     id="path9" />
  <g
     clip-path="url(#_clipPath_qlNmrqTV1MI91rXyPpxZkYrtZENZkix0)"
     id="g16"
     transform="translate(-28.289,-46.541)">
    <path
       d="M 816,545 H -63 V -40 h 879 z"
       fill="#fefefe"
       id="path14" />
  </g>
  <path
     d="m 31.836,364.241 h 611.257 c 0,0 14.856,-42.545 -27.592,-87.219 C 573.053,232.348 567.901,125.687 433.051,86.162 298.199,46.636 185.001,86.732 151.818,152.673 118.635,218.614 -5.307,228.71 31.836,364.241 Z"
     fill="#fee1bd"
     id="path18" />
  <path
     d="m 643.093,364.241 c 0,0 9.548,-27.362 -8.56,-61.241 -21.343,12.079 -44.67,35.618 -83.253,41.944 -58.914,9.659 -90.121,-14.133 -146.429,-62.328 C 348.543,234.422 232.404,302.918 205.742,248.348 189.812,215.744 151.065,197.163 122.45,187.482 74.906,227.9 2.243,256.257 31.836,364.241 Z"
     fill="#f4cea0"
     id="path20" />
  <path
     d="m 0,364.772 h 672.807 v -1.061 H 0"
     fill="#f4cea0"
     id="path22" />
  <path
     d="M 296.53,374.55 H 173.635 V 231.286 H 296.53 Z"
     fill="#95593e"
     id="path24" />
  <path
     d="M 296.53,374.55 H 253.828 V 231.286 h 42.702 z"
     fill="#bd7554"
     id="path26" />
  <path
     d="m 279.819,245.15 v -0.394 h -9.281 c -1.311,-0.002 -2.371,-1.063 -2.374,-2.373 v -0.121 h -0.394 v 0.394 h 14.817 v -0.394 h -0.394 v 0.121 c -0.002,1.31 -1.063,2.371 -2.374,2.373 v 0.394 0.395 c 1.747,0 3.163,-1.416 3.163,-3.162 v -0.121 -0.395 h -15.606 v 0.516 c 0,1.746 1.415,3.162 3.162,3.162 h 9.281 z"
     fill="#7b4b37"
     id="path28" />
  <path
     d="M 296.53,266.708 H 173.635 v 0.789 H 296.53"
     fill="#7b4b37"
     id="path30" />
  <path
     d="m 279.819,280.967 v -0.395 h -9.281 c -1.31,-0.002 -2.371,-1.063 -2.374,-2.374 v -0.12 h -0.394 v 0.395 h 14.817 v -0.395 h -0.394 v 0.12 c -0.002,1.311 -1.063,2.372 -2.374,2.374 v 0.395 0.394 c 1.747,0 3.163,-1.416 3.163,-3.163 v -0.12 -0.394 h -15.606 v 0.514 c 0,1.747 1.415,3.163 3.162,3.163 h 9.281 z"
     fill="#7b4b37"
     id="path32" />
  <path
     d="M 296.53,302.524 H 173.635 v 0.788 H 296.53"
     fill="#7b4b37"
     id="path34" />
  <path
     d="m 279.819,316.782 v -0.394 h -9.281 c -1.311,-0.003 -2.371,-1.063 -2.374,-2.374 v -0.12 h -0.394 v 0.394 h 14.817 v -0.394 h -0.394 v 0.12 c -0.002,1.311 -1.063,2.371 -2.374,2.374 v 0.394 0.395 c 1.747,-0.001 3.163,-1.416 3.163,-3.163 v -0.12 -0.395 h -15.606 v 0.515 c 0,1.747 1.415,3.162 3.162,3.163 h 9.281 z"
     fill="#7b4b37"
     id="path36" />
  <path
     d="M 296.53,338.339 H 173.635 v 0.789 H 296.53"
     fill="#7b4b37"
     id="path38" />
  <path
     d="m 279.819,352.598 v -0.395 h -9.281 c -1.311,-0.002 -2.371,-1.063 -2.374,-2.373 v -0.12 h -0.394 v 0.394 h 14.817 v -0.394 h -0.394 v 0.12 c -0.002,1.31 -1.063,2.371 -2.374,2.373 v 0.395 0.394 c 1.747,0 3.163,-1.416 3.163,-3.162 v -0.12 -0.394 h -15.606 v 0.514 c 0,1.746 1.415,3.162 3.162,3.162 h 9.281 z"
     fill="#7b4b37"
     id="path40" />
  <path
     d="m 558.429,152.673 c 0,67.141 -54.429,121.57 -121.57,121.57 -67.141,0 -121.57,-54.429 -121.57,-121.57 0,-67.141 54.429,-121.57 121.57,-121.57 67.141,0 121.57,54.429 121.57,121.57 z"
     fill="#f5a2a8"
     id="path42" />
  <path
     d="m 541.716,193.539 h -27.952 v -2.73 h 27.952 z"
     fill="#de8b8b"
     id="path44" />
  <path
     d="m 604.763,188.794 h -2.35 v -35.315 h 2.35 z"
     fill="#c3c5c5"
     id="path46" />
  <path
     d="m 602.413,190.809 h -90.999 v -40.06 h 90.999 z"
     fill="#009dc5"
     id="path48" />
  <path
     d="m 522.469,190.809 h -11.055 v -40.06 h 19.928 z"
     fill="#0088a9"
     id="path50" />
  <path
     d="m 543.296,178.509 c 0.73,-0.182 1.49,-0.486 2.22,-0.973 v -3.863 c -0.76,0.487 -1.49,0.852 -2.251,1.095 -0.73,0.213 -1.521,0.335 -2.403,0.335 -2.372,0 -3.528,-1.612 -3.528,-4.867 0,-3.346 1.156,-5.018 3.528,-5.018 0.609,0 1.217,0.091 1.825,0.273 0.639,0.183 1.278,0.426 2.008,0.7 l 1.338,-3.498 c -1.521,-0.76 -3.255,-1.125 -5.171,-1.125 -2.616,0 -4.653,0.73 -6.053,2.22 -1.399,1.49 -2.098,3.65 -2.098,6.479 0,5.687 2.585,8.516 7.756,8.516 1.125,0 2.068,-0.091 2.829,-0.274 z m 18.74,-7.087 c -0.304,-0.577 -0.73,-1.125 -1.338,-1.581 -0.608,-0.456 -1.551,-0.943 -2.859,-1.46 -1.46,-0.578 -2.403,-1.034 -2.829,-1.338 -0.426,-0.274 -0.638,-0.639 -0.638,-1.035 0,-0.73 0.669,-1.095 2.007,-1.095 0.76,0 1.49,0.122 2.22,0.335 0.7,0.243 1.491,0.517 2.312,0.882 l 1.369,-3.254 c -1.886,-0.883 -3.833,-1.308 -5.84,-1.308 -2.099,0 -3.711,0.395 -4.867,1.216 -1.125,0.791 -1.703,1.947 -1.703,3.407 0,0.852 0.122,1.582 0.395,2.19 0.274,0.578 0.73,1.095 1.308,1.551 0.609,0.456 1.551,0.943 2.829,1.49 0.882,0.365 1.612,0.7 2.129,1.004 0.548,0.274 0.913,0.517 1.125,0.73 0.213,0.244 0.335,0.517 0.335,0.882 0,0.943 -0.821,1.43 -2.464,1.43 -0.79,0 -1.733,-0.122 -2.798,-0.396 -1.034,-0.273 -1.977,-0.608 -2.829,-1.003 v 3.741 c 0.73,0.334 1.521,0.578 2.373,0.73 0.851,0.152 1.886,0.243 3.102,0.243 2.373,0 4.137,-0.456 5.323,-1.338 1.156,-0.882 1.764,-2.19 1.764,-3.893 0,-0.822 -0.152,-1.521 -0.426,-2.13 z m 16.64,0 c -0.304,-0.577 -0.73,-1.125 -1.338,-1.581 -0.609,-0.456 -1.552,-0.943 -2.859,-1.46 -1.46,-0.578 -2.403,-1.034 -2.829,-1.338 -0.426,-0.274 -0.639,-0.639 -0.639,-1.035 0,-0.73 0.669,-1.095 2.008,-1.095 0.76,0 1.49,0.122 2.22,0.335 0.7,0.243 1.49,0.517 2.312,0.882 l 1.368,-3.254 c -1.886,-0.883 -3.832,-1.308 -5.84,-1.308 -2.098,0 -3.71,0.395 -4.866,1.216 -1.126,0.791 -1.703,1.947 -1.703,3.407 0,0.852 0.121,1.582 0.395,2.19 0.274,0.578 0.73,1.095 1.308,1.551 0.608,0.456 1.551,0.943 2.829,1.49 0.882,0.365 1.612,0.7 2.129,1.004 0.547,0.274 0.912,0.517 1.125,0.73 0.213,0.244 0.335,0.517 0.335,0.882 0,0.943 -0.822,1.43 -2.464,1.43 -0.791,0 -1.734,-0.122 -2.798,-0.396 -1.035,-0.273 -1.977,-0.608 -2.829,-1.003 v 3.741 c 0.73,0.334 1.521,0.578 2.372,0.73 0.852,0.152 1.886,0.243 3.103,0.243 2.372,0 4.136,-0.456 5.323,-1.338 1.155,-0.882 1.764,-2.19 1.764,-3.893 0,-0.822 -0.152,-1.521 -0.426,-2.13 z"
     fill="#fefefe"
     id="path52" />
  <path
     d="m 452.734,373.36 h -4.915 L 446.71,246.408 h 7.134 z"
     fill="#bd7554"
     id="path54" />
  <path
     d="m 461.159,330.811 h -21.764 l 3.849,-9.456 h 14.066 z"
     fill="#95593e"
     id="path56" />
  <path
     d="m 461.159,330.811 h -21.764 l 4.192,7.758 c 0.543,1.006 1.594,1.632 2.736,1.632 h 7.909 c 1.141,0 2.192,-0.626 2.735,-1.632 z"
     fill="#7b4b37"
     id="path58" />
  <path
     d="m 486.298,373.36 h -5.182 l -26.331,-52.005 h 3.746 c 2.562,0 4.887,1.498 5.944,3.832 z"
     fill="#bd7554"
     id="path60" />
  <path
     d="m 414.256,373.36 h 5.182 l 26.331,-52.005 h -3.746 c -2.562,0 -4.887,1.498 -5.944,3.832 z"
     fill="#bd7554"
     id="path62" />
  <path
     d="m 396.67,249.681 c 0,0 37.718,0 66.371,0 28.652,0 43.863,-19.455 49.876,-44.217 6.014,-24.762 8.844,-39.619 12.027,-54.83 3.184,-15.21 -2.475,-37.369 -21.578,-37.369 -19.101,0 -21.931,0 -36.434,0 -14.503,0 -22.322,-4.529 -29.025,19.073 -6.703,23.602 -12.667,54.377 -16.759,69.942 -4.093,15.565 -35.133,13.354 -46.188,23.435 -8.6,7.843 -8.933,23.966 21.71,23.966 z"
     fill="#fefefe"
     id="path64" />
  <path
     d="m 495.584,173.716 c -3.448,-16.184 -8.755,-30.411 -9.551,-36.032 -0.707,-4.994 3.606,-17.275 -0.075,-24.419 -6.069,0 -10.56,0 -19.026,0 -14.503,0 -22.322,-4.529 -29.025,19.073 -6.703,23.602 -12.667,54.377 -16.759,69.942 -4.093,15.565 -35.133,13.354 -46.188,23.435 -8.6,7.843 -8.933,23.966 21.71,23.966 0,0 14.995,0 33.256,0 -4.2,-6.051 -8.233,-14.946 4.374,-14.946 19.101,0 28.918,0 28.918,0 15.652,0 22.815,-4.245 28.652,-14.061 5.837,-9.816 7.163,-30.775 3.714,-46.958 z"
     fill="#dbdcdb"
     id="path66" />
  <path
     d="m 331.845,325.734 c 0,0 -5.304,31.442 -7.224,37.969 -0.84,2.857 -10.416,8.736 -13.44,9.913 -3.025,1.176 -8.737,1.344 -8.737,3.36 0,2.016 14.449,2.352 21.505,1.848 7.056,-0.504 13.945,0.336 14.113,-2.016 0.168,-2.352 -2.52,-4.032 -1.849,-9.073 0.673,-5.04 13.609,-42.001 13.609,-42.001 z"
     fill="#f17478"
     id="path68" />
  <path
     d="m 403.516,325.734 c 0,0 5.819,30.245 5.291,37.969 -0.202,2.971 -10.416,8.736 -13.441,9.913 -3.023,1.176 -8.736,1.344 -8.736,3.36 0,2.016 14.449,2.352 21.505,1.848 7.056,-0.504 13.944,0.336 14.112,-2.016 0.168,-2.352 -1.442,-4.003 -1.848,-9.073 -0.452,-5.655 1.093,-42.001 1.093,-42.001 z"
     fill="#f17478"
     id="path70" />
  <path
     d="m 405.414,336.206 15.405,7.146 c 0.32,-9.297 0.673,-17.618 0.673,-17.618 h -17.976 c 0,0 0.866,4.503 1.898,10.472 z"
     fill="#c04d4d"
     id="path72" />
  <path
     d="m 330.135,335.632 14.435,5.364 c 2.814,-8.295 5.252,-15.262 5.252,-15.262 h -17.977 c 0,0 -0.713,4.228 -1.71,9.898 z"
     fill="#c04d4d"
     id="path74" />
  <path
     d="m 368.946,329.979 h -41.74 c 0,0 16.272,-93.741 20.87,-108.951 4.599,-15.211 27.228,-26.86 88.783,-26.872 l -7.808,28.994 -43.479,16.626 c 0,0 -6.155,10.271 -7.676,22.291 -1.521,12.022 -1.167,17.328 -5.058,23.341 -3.892,6.014 -0.708,10.258 -1.769,18.748 -1.061,8.49 -2.123,25.823 -2.123,25.823 z"
     fill="#009179"
     id="path76" />
  <path
     d="m 350.372,216.021 c 10.666,-2.135 14.508,9.057 15.214,26.939 0.625,15.838 7.861,27.089 10.938,31.188 0.427,-3.219 0.737,-7.059 1.372,-12.081 1.521,-12.02 7.676,-22.291 7.676,-22.291 l 43.479,-16.626 7.808,-28.994 c -54.595,0.011 -78.555,9.179 -86.487,21.865 z"
     fill="#006b5b"
     id="path78" />
  <path
     d="m 332.158,321.49 h 31.836 c 0.293,0 0.531,-0.238 0.531,-0.531 0,-0.293 -0.238,-0.531 -0.531,-0.531 h -31.836 c -0.293,0 -0.53,0.238 -0.53,0.531 0,0.293 0.237,0.531 0.53,0.531 z"
     fill="#006b5b"
     id="path80" />
  <path
     d="m 383.751,225.237 c -0.021,0.011 -2.791,1.351 -5.91,3.773 -3.115,2.425 -6.6,5.928 -7.986,10.342 -1.353,4.344 -2.206,12.097 -3.104,19.729 -0.448,3.812 -0.903,7.587 -1.427,10.864 -0.523,3.274 -1.121,6.058 -1.824,7.84 -1.236,3.143 -1.577,5.673 -1.576,8.023 0.003,2.759 0.453,5.246 0.451,8.284 0,0.607 -0.018,1.236 -0.06,1.895 -0.217,3.404 -1.123,9.642 -1.973,15.006 -0.425,2.684 -0.837,5.153 -1.142,6.95 -0.305,1.798 -0.503,2.921 -0.504,2.924 -0.051,0.288 0.142,0.564 0.431,0.615 0.288,0.05 0.563,-0.142 0.614,-0.431 0.001,-0.002 0.797,-4.514 1.649,-9.892 0.852,-5.38 1.76,-11.612 1.984,-15.105 0.044,-0.682 0.062,-1.335 0.062,-1.962 -0.002,-3.147 -0.453,-5.65 -0.45,-8.284 0.001,-2.248 0.314,-4.606 1.502,-7.635 0.757,-1.931 1.353,-4.752 1.883,-8.061 0.794,-4.959 1.425,-11 2.107,-16.593 0.679,-5.59 1.417,-10.745 2.39,-13.85 1.267,-4.075 4.592,-7.47 7.624,-9.821 1.514,-1.176 2.95,-2.093 4.005,-2.714 0.527,-0.311 0.959,-0.547 1.257,-0.706 0.15,-0.079 0.266,-0.138 0.344,-0.178 l 0.116,-0.058 c 0.263,-0.127 0.374,-0.444 0.246,-0.708 -0.128,-0.264 -0.445,-0.374 -0.709,-0.247 z"
     fill="#006b5b"
     id="path82" />
  <path
     d="m 387.518,121.451 -13.973,52.353 -58.012,13.973 h 65.585 c 6.27,0 11.855,-3.963 13.926,-9.88 l 15.113,-43.181 c 0,0 -11.85,-16.095 -22.639,-13.265 z"
     fill="#d1605f"
     id="path84" />
  <path
     d="m 410.157,134.716 c 0,0 -11.85,-16.095 -22.639,-13.265 l -4.334,16.24 c 1.083,1.132 2.58,2.086 4.688,2.56 6.629,1.492 8.862,15.804 12.986,21.034 z"
     fill="#c04d4d"
     id="path86" />
  <path
     d="m 433.051,86.162 c 0,0 17.697,3.718 27.248,8.228 9.551,4.51 12.47,15.388 14.99,32.367 l -18.615,1.061 c 0,0 8.666,34.136 12.911,46.34 4.244,12.204 13.265,18.394 7.074,19.633 -6.19,1.237 -56.951,0 -65.263,0 -8.314,0 2.298,-12.028 3.36,-19.103 1.06,-7.074 -0.531,-19.455 -4.599,-24.584 -4.068,-5.129 -9.374,-3.361 -8.49,-19.279 l -17.685,-7.251 c 0,0 6.189,-17.864 17.862,-26.354 11.674,-8.49 19.788,-10.444 31.207,-11.058 z"
     fill="#5a8698"
     id="path88" />
  <path
     d="m 469.585,174.158 c -4.245,-12.204 -12.911,-46.34 -12.911,-46.34 l 4.906,-0.279 -21.179,1.144 1.88,-10.674 c 0,0 -4.71,11.401 -5.77,23.075 -0.949,10.442 -14.545,17.877 -21.531,25.817 0.179,2.858 0.107,5.581 -0.224,7.787 -1.062,7.075 -11.674,19.102 -3.36,19.102 8.312,0 59.073,1.238 65.263,0 6.191,-1.238 -2.83,-7.428 -7.074,-19.632 z"
     fill="#344852"
     id="path90" />
  <path
     d="m 471.17,126.992 -14.569,47.254 c -2.481,8.044 -9.914,13.531 -18.331,13.531 h -74.276 c 0,0 1.946,-6.367 7.252,-6.898 5.306,-0.531 6.544,0.531 10.258,0.707 3.715,0.177 49.87,-10.775 49.87,-10.775 l 12.786,-42.128 z"
     fill="#f17478"
     id="path92" />
  <path
     d="m 394.946,128.069 6.721,2.756 c 0.707,-5.651 3.192,-11.894 3.184,-16.449 -0.006,-3.188 -2.299,0.925 -5.306,6.741 -1.48,2.863 -3.216,5.257 -4.599,6.952 z"
     fill="#344852"
     id="path94" />
  <path
     d="m 444.16,128.152 h -3.759 v 0.531 l 0.53,0.034 c 0,-0.001 0.009,-0.144 0.032,-0.415 0.08,-0.948 0.323,-3.414 0.885,-6.26 0.561,-2.846 1.448,-6.075 2.779,-8.524 0.139,-0.257 0.044,-0.58 -0.214,-0.719 -0.257,-0.14 -0.579,-0.044 -0.719,0.213 -1.618,2.987 -2.558,6.879 -3.113,10.04 -0.552,3.16 -0.708,5.584 -0.709,5.597 -0.009,0.145 0.043,0.29 0.142,0.397 0.1,0.106 0.242,0.167 0.387,0.167 h 3.759 c 0.293,0 0.531,-0.237 0.531,-0.53 0,-0.293 -0.238,-0.531 -0.531,-0.531 z"
     fill="#344852"
     id="path96" />
  <path
     d="m 473.829,188.838 c 0,0 19.899,45.897 -10.611,45.897 -30.51,0 -44.04,0 -44.04,0 0,0 1.512,7.135 -0.167,13.087 -0.734,2.599 -0.826,5.336 -0.06,7.926 2.111,7.124 6.054,20.819 7.39,28.068 1.856,10.081 3.699,12.205 5.033,21.224 1.334,9.021 7.17,15.653 5.314,24.939 H 390.79 c 0,0 -9.551,-62.346 -12.47,-88.346 -2.918,-25.999 9.287,-44.836 33.959,-44.836 0,0 29.184,-3.98 33.163,-5.837 z"
     fill="#009179"
     id="path98" />
  <path
     d="m 393.615,321.49 h 38.827 c 0.293,0 0.531,-0.238 0.531,-0.531 0,-0.293 -0.238,-0.531 -0.531,-0.531 h -38.827 c -0.293,0 -0.53,0.238 -0.53,0.531 0,0.293 0.237,0.531 0.53,0.531 z"
     fill="#006b5b"
     id="path100" />
  <path
     d="m 420.769,320.959 c -0.002,-0.016 0.004,-13.015 -1.6,-21.85 -1.591,-8.746 -3.182,-18.795 -4.244,-25.049 -1.054,-6.204 -1.852,-16.82 -2.648,-24.523 -0.159,-1.535 -0.225,-2.973 -0.225,-4.365 -0.003,-5.496 1.042,-10.327 1.507,-17.566 l -0.53,-0.034 0.106,0.52 c 2.533,-0.518 6.275,-0.753 10.579,-0.86 6.461,-0.161 14.202,-0.043 21.21,-0.233 3.504,-0.095 6.825,-0.267 9.719,-0.592 2.895,-0.326 5.359,-0.799 7.18,-1.526 4.635,-1.856 8.773,-3.384 12.067,-5.484 3.291,-2.094 5.74,-4.816 6.828,-8.934 0.075,-0.283 -0.093,-0.573 -0.377,-0.649 -0.283,-0.075 -0.573,0.094 -0.649,0.377 -1.027,3.841 -3.225,6.293 -6.373,8.311 -3.146,2.012 -7.24,3.535 -11.89,5.394 -2.217,0.89 -5.737,1.427 -9.891,1.729 -6.237,0.458 -13.918,0.416 -21.017,0.456 -7.104,0.043 -13.607,0.16 -17.598,0.971 -0.234,0.048 -0.408,0.248 -0.423,0.486 -0.456,7.158 -1.507,11.992 -1.509,17.634 0,1.426 0.068,2.902 0.23,4.474 0.796,7.686 1.59,18.295 2.657,24.591 1.061,6.244 2.653,16.299 4.246,25.062 0.789,4.334 1.187,9.759 1.385,14.09 0.1,2.166 0.149,4.06 0.174,5.412 0.025,1.351 0.025,2.156 0.025,2.158 0,0.293 0.237,0.531 0.53,0.531 0.293,0 0.531,-0.238 0.531,-0.531 z"
     fill="#006b5b"
     id="path102" />
  <path
     d="m 442.57,133.921 c 4.737,-0.465 16.311,-0.968 25.303,3.763 l 3.297,-10.692 -27.01,1.691 z"
     fill="#c04d4d"
     id="path104" />
  <path
     d="m 320.917,367.689 c -3.288,2.554 -7.822,5.183 -9.736,5.927 -3.025,1.176 -8.737,1.344 -8.737,3.36 0,2.016 14.449,2.352 21.505,1.848 7.056,-0.504 13.945,0.336 14.113,-2.016 0.137,-1.929 -1.643,-3.409 -1.918,-6.658 -1.824,0.088 -4.045,0.159 -6.735,0.19 -5.031,0.058 -7.398,-1.241 -8.492,-2.651 z"
     fill="#477e72"
     id="path106" />
  <path
     d="m 405.103,367.689 c -3.288,2.554 -7.823,5.183 -9.737,5.927 -3.023,1.176 -8.736,1.344 -8.736,3.36 0,2.016 14.449,2.352 21.505,1.848 7.056,-0.504 13.944,0.336 14.112,-2.016 0.138,-1.929 -1.641,-3.409 -1.917,-6.658 -1.824,0.088 -4.046,0.159 -6.735,0.19 -5.03,0.058 -7.398,-1.241 -8.492,-2.651 z"
     fill="#477e72"
     id="path108" />
  <path
     d="m 407.567,75.489 c 1.198,2.718 1.33,4.641 3.121,6.432 1.099,1.099 2.947,1.923 4.211,2.396 0.835,0.312 1.764,0.25 2.559,-0.154 l 1.496,-0.762 2.194,5.948 -3.321,1.423 c -3.038,1.302 -5.388,3.817 -6.465,6.943 -2.382,6.918 -2.779,18.496 8.523,18.496 13.683,0 21.688,-13.911 25.627,-21.928 0.825,-1.68 -0.184,-3.686 -2.029,-4.008 -3.204,-0.558 -7.626,-1.878 -9.05,-4.971 -2.323,-5.041 -4.113,-10.281 -4.113,-10.281 0,0 0.597,-10.479 -0.066,-13.663 -0.663,-3.183 -4.842,-11.076 -13.133,-8.887 -8.291,2.188 -14.883,8.45 -13.663,16.581 0.199,1.326 4.109,6.435 4.109,6.435 z"
     fill="#f17478"
     id="path110" />
  <path
     d="m 420.773,89.483 1.479,4.114 c 0.074,0.206 0.302,0.314 0.509,0.239 0.206,-0.074 0.314,-0.302 0.24,-0.509 l -1.479,-4.113 c -0.074,-0.207 -0.302,-0.314 -0.509,-0.24 -0.207,0.074 -0.314,0.302 -0.24,0.509 z"
     fill="#c04d4d"
     id="path112" />
  <path
     d="m 419.972,86.162 c 3.006,-0.005 4.246,-6.363 5.201,-7.911 0.955,-1.547 0.106,-2.476 -0.602,-1.327 -0.707,1.15 -2.741,4.953 -5.617,6.477 z"
     fill="#c04d4d"
     id="path114" />
  <path
     d="m 418.382,55.391 c 0,0 0.548,4.565 4.111,9.02 1.062,1.327 0.929,6.898 2.654,7.561 1.724,0.664 -0.266,-2.785 0.795,-5.173 1.062,-2.388 3.45,-1.327 3.45,1.327 0,2.652 -1.327,5.438 -1.327,5.438 l 2.255,1.459 c 0,0 1.061,-5.836 2.521,-12.602 1.459,-6.765 -4.776,-13.928 -15.786,-12.602 0,0 -14.061,-6.632 -19.765,7.031 -5.704,13.663 4.908,15.255 4.908,15.255 l 5.505,3.714 -1.75,-4.276 c -0.69,-1.688 -0.075,-3.621 1.464,-4.601 3.411,-2.171 9.066,-6.399 10.965,-11.551 z"
     fill="#8c3b3e"
     id="path116" />
  <path
     d="m 436.546,44.179 c 0,4.978 -4.036,9.013 -9.014,9.013 -4.978,0 -9.013,-4.035 -9.013,-9.013 0,-4.978 4.035,-9.013 9.013,-9.013 4.978,0 9.014,4.035 9.014,9.013 z"
     fill="#8c3b3e"
     id="path118" />
  <path
     d="M 501.421,197.858 V 197.48 H 395.324 v -9.325 h 105.719 v 9.703 h 0.378 v -0.378 0.378 h 0.378 V 187.399 H 394.568 v 10.837 h 107.231 v -0.378 z"
     fill="#324e7c"
     id="path120" />
  <path
     d="M 418.156,187.777 H 264.948 v -3.239 h 153.208 z"
     fill="#dbdcdb"
     id="path122" />
  <path
     d="M 359.807,187.777 H 261.613 L 246.2,117.569 h 98.194 z"
     fill="#fefefe"
     id="path124" />
  <path
     d="m 359.807,187.777 h -3.602 l -15.412,-70.208 h 3.601 z"
     fill="#dbdcdb"
     id="path126" />
  <path
     d="m 309.59,152.673 c 1.116,5.085 -2.102,9.208 -7.187,9.208 -5.086,0 -10.113,-4.123 -11.23,-9.208 -1.116,-5.086 2.101,-9.208 7.187,-9.208 5.085,0 10.113,4.122 11.23,9.208 z"
     fill="#f79c38"
     id="path128" />
  <path
     d="m 208.333,157.45 c 0,0 -6.296,-4.416 -2.78,-10.304 3.516,-5.889 17.869,-3.865 18.605,-8.465 0.737,-4.6 -15.365,-4.232 -27.418,-4.049 -12.053,0.184 -16.837,-0.988 -16.837,-4.025 0,-3.565 4.568,-3.294 4.417,-7.723 -0.185,-5.388 -27.879,-2.512 -27.879,-2.512 0,0 5.687,-1.961 16.377,-2.738 7.913,-0.575 21.346,-1.495 22.082,4.762 0.736,6.256 5.889,5.52 16.286,6.256 10.396,0.736 19.689,3.772 18.953,13.433 -0.736,9.661 -19.748,3.159 -21.99,8.005 -2.242,4.846 4.508,7.36 4.508,7.36 z"
     fill="#fefefe"
     id="path130" />
  <path
     d="m 193.311,155.41 2.333,28.887 c 0.159,1.966 1.8,3.48 3.773,3.48 h 6.325 6.325 c 1.972,0 3.613,-1.514 3.772,-3.48 l 2.334,-28.887 z"
     fill="#f79c38"
     id="path132" />
  <path
     d="M 556.913,92.4 H 542.46 C 527.477,66.207 503.029,46.123 473.778,36.81 v -2.655 h 83.135 z"
     fill="#c3c5c5"
     id="path134" />
  <path
     d="M 542.46,92.4 H 473.778 V 82.232 H 453.092 L 473.778,68.809 V 36.81 c 29.251,9.313 53.699,29.397 68.682,55.59 z"
     fill="#de8b8b"
     id="path136" />
  <path
     d="M 471.17,31.103 V 65.757 L 450.483,79.18 h 20.687 v 10.169 h 83.135 V 31.103 Z"
     fill="#f17478"
     id="path138" />
  <path
     d="m 502.132,64.577 -11.948,-4.9 11.948,-5.545 v -4.185 l -17.35,8.656 v 2.504 l 17.35,7.656 z m 13.085,-17.814 -9.516,25.541 h 4.83 l 9.515,-25.541 z m 8.338,22 17.349,-7.656 v -2.504 l -17.349,-8.656 v 4.185 l 11.947,5.545 -11.947,4.9 z"
     fill="#fefefe"
     id="path140" />
  <path
     d="m 617.943,228.855 h -32.44 c -5.638,-11.255 -11.501,-23.21 -18.321,-35.316 h 37.581 v -4.745 h 13.18 z"
     fill="#c3c5c5"
     id="path142" />
  <path
     d="m 585.503,228.855 h -43.787 v -14.627 c 3.841,-6.529 7.091,-13.454 9.674,-20.689 h 15.792 c 6.82,12.106 12.683,24.061 18.321,35.316 z"
     fill="#c4b199"
     id="path144" />
  <path
     d="m 541.716,214.228 v -20.689 h 9.674 c -2.583,7.235 -5.833,14.16 -9.674,20.689 z"
     fill="#de8b8b"
     id="path146" />
  <path
     d="m 604.763,193.539 h -37.581 c -0.513,-0.91 -1.029,-1.818 -1.553,-2.73 h 36.784 v -2.015 h 2.35 z"
     fill="#9c9e9f"
     id="path148" />
  <path
     d="M 567.182,193.539 H 551.39 c 0.323,-0.905 0.635,-1.815 0.937,-2.73 h 13.302 c 0.524,0.912 1.04,1.82 1.553,2.73 z"
     fill="#9c8f7f"
     id="path150" />
  <path
     d="m 551.39,193.539 h -9.674 v -2.73 h 10.611 c -0.302,0.915 -0.614,1.825 -0.937,2.73 z"
     fill="#af7273"
     id="path152" />
  <path
     d="m 602.413,190.809 h -36.784 -13.302 -10.611 v -2.015 h 60.697 z"
     fill="#0081a0"
     id="path154" />
  <path
     d="M 615.024,225.671 H 538.797 V 185.61 h 76.227 z"
     fill="#f17478"
     id="path156" />
  <path
     d="m 562.618,198.385 h -2.536 v 4.703 h -4.753 v -4.703 h -2.536 v 11.992 h 2.536 v -5.173 h 4.753 v 5.173 h 2.536 z m 8.484,2.116 h 3.258 v -2.116 h -9.053 v 2.116 h 3.259 v 9.876 h 2.536 z m 13.354,9.876 3.091,-9.389 h 0.067 c -0.067,1.512 -0.101,2.436 -0.101,2.788 -0.017,0.353 -0.017,0.655 -0.017,0.924 v 5.677 h 2.368 v -11.992 h -3.46 l -3.006,9.17 h -0.05 l -2.839,-9.17 h -3.46 v 11.992 h 2.268 v -5.576 c 0,-0.638 -0.051,-1.915 -0.151,-3.829 h 0.067 l 2.889,9.405 z m 16.676,0 v -2.099 h -4.871 v -9.893 h -2.536 v 11.992 z"
     fill="#fefefe"
     id="path158" />
  <path
     d="m 549.158,297.742 c -7.602,0 -13.765,-6.163 -13.765,-13.765 0,-7.603 6.163,-13.766 13.765,-13.766 7.603,0 13.766,6.163 13.766,13.766 0,7.602 -6.163,13.765 -13.766,13.765 z m 37.952,-7.533 c 0.331,-2.029 0.511,-4.11 0.511,-6.232 0,-2.123 -0.18,-4.204 -0.511,-6.233 h -10.688 c -0.708,-3.108 -1.932,-6.019 -3.579,-8.638 l 7.555,-7.555 c -2.442,-3.394 -5.42,-6.372 -8.814,-8.814 l -7.556,7.555 c -2.618,-1.647 -5.529,-2.871 -8.637,-3.579 v -10.689 c -2.03,-0.331 -4.11,-0.51 -6.233,-0.51 -2.123,0 -4.203,0.179 -6.232,0.51 v 10.689 c -3.109,0.708 -6.019,1.932 -8.638,3.579 l -7.555,-7.555 c -3.394,2.442 -6.373,5.42 -8.814,8.814 l 7.556,7.555 c -1.649,2.619 -2.871,5.53 -3.579,8.638 h -10.69 c -0.331,2.029 -0.51,4.11 -0.51,6.233 0,2.122 0.179,4.203 0.51,6.232 h 10.69 c 0.708,3.108 1.93,6.019 3.579,8.638 l -7.556,7.554 c 2.441,3.395 5.42,6.373 8.814,8.814 l 7.555,-7.555 c 2.619,1.649 5.529,2.871 8.638,3.579 v 10.69 c 2.029,0.331 4.109,0.509 6.232,0.509 2.123,0 4.203,-0.178 6.233,-0.509 v -10.69 c 3.108,-0.708 6.019,-1.93 8.637,-3.579 l 7.556,7.555 c 3.394,-2.441 6.372,-5.419 8.814,-8.814 l -7.555,-7.554 c 1.647,-2.619 2.871,-5.53 3.579,-8.638 z"
     fill="#4f5253"
     id="path160" />
  <path
     d="m 602.625,324.855 c -4.77,0.399 -8.962,-3.144 -9.362,-7.915 -0.401,-4.77 3.142,-8.961 7.913,-9.362 4.77,-0.399 8.962,3.144 9.362,7.914 0.401,4.771 -3.142,8.962 -7.913,9.363 z m 23.418,-6.725 c 0.101,-1.291 0.104,-2.606 -0.009,-3.938 -0.111,-1.332 -0.333,-2.628 -0.647,-3.883 l -6.707,0.562 c -0.609,-1.914 -1.53,-3.676 -2.701,-5.232 l 4.343,-5.138 c -1.711,-2.002 -3.736,-3.714 -5.995,-5.066 l -4.343,5.137 c -1.729,-0.896 -3.62,-1.51 -5.608,-1.791 l -0.562,-6.707 c -1.291,-0.1 -2.606,-0.104 -3.938,0.008 -1.332,0.111 -2.628,0.334 -3.884,0.648 l 0.563,6.708 c -1.913,0.607 -3.675,1.528 -5.232,2.7 l -5.138,-4.343 c -2.001,1.71 -3.714,3.735 -5.067,5.994 l 5.138,4.343 c -0.896,1.73 -1.51,3.621 -1.791,5.608 l -6.707,0.563 c -0.101,1.291 -0.104,2.605 0.008,3.937 0.112,1.332 0.334,2.628 0.648,3.884 l 6.707,-0.562 c 0.608,1.913 1.528,3.675 2.7,5.232 l -4.342,5.138 c 1.71,2.002 3.736,3.714 5.994,5.066 l 4.342,-5.138 c 1.731,0.897 3.622,1.511 5.61,1.791 l 0.562,6.707 c 1.29,0.101 2.606,0.105 3.938,-0.007 1.332,-0.112 2.628,-0.334 3.884,-0.649 l -0.563,-6.707 c 1.913,-0.607 3.675,-1.528 5.232,-2.7 l 5.137,4.343 c 2.002,-1.71 3.714,-3.736 5.068,-5.994 l -5.139,-4.343 c 0.896,-1.731 1.511,-3.621 1.791,-5.609 z"
     fill="#797c7e"
     id="path162" />
  <path
     d="m 238.648,84.685 c -0.096,-0.549 -0.146,-1.114 -0.146,-1.691 V 13.722 c 0,-5.377 4.358,-9.736 9.735,-9.736 h 118.319 c 5.377,0 9.736,4.359 9.736,9.736 v 33.519 c -11.037,6.355 -20.986,14.394 -29.488,23.765 -6.204,-0.341 -12.315,-0.508 -18.333,-0.508 -33.347,0 -63.714,5.125 -89.823,14.187 z"
     fill="#c3c5c5"
     id="path164" />
  <path
     d="m 307.397,107.649 c -0.404,0 -0.807,-0.209 -1.017,-0.627 l -5.968,-11.88 c -0.743,-1.479 -2.257,-2.412 -3.913,-2.412 h -48.262 c -4.8,0 -8.788,-3.474 -9.589,-8.045 26.109,-9.062 56.476,-14.187 89.823,-14.187 6.018,0 12.129,0.167 18.333,0.508 -6.004,6.617 -11.291,13.901 -15.733,21.724 h -12.777 c -1.656,0 -3.17,0.933 -3.913,2.412 l -5.968,11.88 c -0.21,0.418 -0.613,0.627 -1.016,0.627 z"
     fill="#c4b199"
     id="path166" />
  <path
     d="m 366.556,92.73 h -35.485 c 4.442,-7.823 9.729,-15.107 15.733,-21.724 8.502,-9.371 18.451,-17.41 29.488,-23.765 v 35.753 c 0,5.377 -4.359,9.736 -9.736,9.736 z"
     fill="#de8b8b"
     id="path168" />
  <path
     d="M 364.429,0 H 246.11 c -5.377,0 -9.736,4.359 -9.736,9.736 v 69.272 c 0,5.377 4.359,9.736 9.736,9.736 h 48.262 c 1.656,0 3.17,0.933 3.913,2.412 l 5.968,11.88 c 0.42,0.836 1.613,0.836 2.033,0 l 5.968,-11.88 c 0.743,-1.479 2.257,-2.412 3.913,-2.412 h 48.262 c 5.377,0 9.735,-4.359 9.735,-9.736 V 9.736 C 374.164,4.359 369.806,0 364.429,0 Z"
     fill="#344852"
     id="path170" />
  <path
     d="m 287.057,17.865 h -31.892 c -1.044,0 -1.89,-0.846 -1.89,-1.89 0,-1.044 0.846,-1.89 1.89,-1.89 h 31.892 c 1.044,0 1.89,0.846 1.89,1.89 0,1.044 -0.846,1.89 -1.89,1.89 z"
     fill="#f79c38"
     id="path172" />
  <path
     d="m 300.543,26.466 h -45.378 c -1.044,0 -1.89,-0.846 -1.89,-1.89 0,-1.044 0.846,-1.89 1.89,-1.89 h 45.378 c 1.043,0 1.89,0.846 1.89,1.89 0,1.044 -0.847,1.89 -1.89,1.89 z"
     fill="#fefefe"
     id="path174" />
  <path
     d="M 353.748,17.865 H 295.37 c -1.043,0 -1.889,-0.846 -1.889,-1.89 0,-1.044 0.846,-1.89 1.889,-1.89 h 58.378 c 1.044,0 1.89,0.846 1.89,1.89 0,1.044 -0.846,1.89 -1.89,1.89 z"
     fill="#009dc5"
     id="path176" />
  <path
     d="M 353.748,26.466 H 308.37 c -1.044,0 -1.889,-0.846 -1.889,-1.89 0,-1.044 0.845,-1.89 1.889,-1.89 h 45.378 c 1.044,0 1.89,0.846 1.89,1.89 0,1.044 -0.846,1.89 -1.89,1.89 z"
     fill="#fefefe"
     id="path178" />
  <path
     d="m 323.675,33.056 h -69.516 c -0.488,0 -0.884,-0.396 -0.884,-0.885 0,-0.488 0.396,-0.884 0.884,-0.884 h 69.516 c 0.489,0 0.885,0.396 0.885,0.884 0,0.489 -0.396,0.885 -0.885,0.885 z"
     fill="#f17478"
     id="path180" />
  <path
     d="m 309.342,49.106 h -54.177 c -1.044,0 -1.89,-0.846 -1.89,-1.89 0,-1.044 0.846,-1.889 1.89,-1.889 h 54.177 c 1.044,0 1.89,0.845 1.89,1.889 0,1.044 -0.846,1.89 -1.89,1.89 z"
     fill="#f79c38"
     id="path182" />
  <path
     d="m 287.057,57.707 h -31.892 c -1.044,0 -1.89,-0.846 -1.89,-1.89 0,-1.044 0.846,-1.889 1.89,-1.889 h 31.892 c 1.044,0 1.89,0.845 1.89,1.889 0,1.044 -0.846,1.89 -1.89,1.89 z"
     fill="#f79c38"
     id="path184" />
  <path
     d="m 300.543,66.308 h -45.378 c -1.044,0 -1.89,-0.846 -1.89,-1.89 0,-1.043 0.846,-1.889 1.89,-1.889 h 45.378 c 1.043,0 1.89,0.846 1.89,1.889 0,1.044 -0.847,1.89 -1.89,1.89 z"
     fill="#fefefe"
     id="path186" />
  <path
     d="M 353.748,57.707 H 295.37 c -1.043,0 -1.889,-0.846 -1.889,-1.89 0,-1.044 0.846,-1.889 1.889,-1.889 h 58.378 c 1.044,0 1.89,0.845 1.89,1.889 0,1.044 -0.846,1.89 -1.89,1.89 z"
     fill="#009dc5"
     id="path188" />
  <path
     d="M 353.748,66.308 H 308.37 c -1.044,0 -1.889,-0.846 -1.889,-1.89 0,-1.043 0.845,-1.889 1.889,-1.889 h 45.378 c 1.044,0 1.89,0.846 1.89,1.889 0,1.044 -0.846,1.89 -1.89,1.89 z"
     fill="#fefefe"
     id="path190" />
  <path
     d="m 323.675,72.898 h -69.516 c -0.488,0 -0.884,-0.396 -0.884,-0.884 0,-0.489 0.396,-0.884 0.884,-0.884 h 69.516 c 0.489,0 0.885,0.395 0.885,0.884 0,0.488 -0.396,0.884 -0.885,0.884 z"
     fill="#f17478"
     id="path192" />
  <path
     d="M 501.421,197.858 H 176.16 v -10.081 h 325.261 z"
     fill="#5f8091"
     id="path194" />
  <path
     d="m 415.955,390.468 h -7.717 v -192.61 h 7.717 z"
     fill="#5f8091"
     id="path196" />
  <path
     d="m 509.139,390.468 h -7.718 l -25.075,-192.61 h 7.718 z"
     fill="#5f8091"
     id="path198" />
  <path
     d="m 415.956,213.303 v -15.445 h -7.718 v 14.417 z"
     fill="#344852"
     id="path200" />
  <path
     d="m 484.064,197.858 h -7.718 l 3.112,23.904 7.854,1.046 z"
     fill="#344852"
     id="path202" />
  <path
     d="m 197.169,390.468 h -7.717 v -192.61 h 7.717 z"
     fill="#5f8091"
     id="path204" />
  <path
     d="m 290.352,390.468 h -7.717 L 257.56,197.858 h 7.717 z"
     fill="#5f8091"
     id="path206" />
  <path
     d="m 197.169,213.303 v -15.445 h -7.717 v 14.417 z"
     fill="#344852"
     id="path208" />
  <path
     d="m 265.277,197.858 h -7.717 l 3.111,23.904 7.854,1.046 z"
     fill="#344852"
     id="path210" />
  <path
     d="m 180.936,390.998 h 24.938 v -1.061 h -24.938"
     fill="#5f8091"
     id="path212" />
  <path
     d="m 273.956,390.998 h 24.938 v -1.061 h -24.938"
     fill="#5f8091"
     id="path214" />
  <path
     d="m 398.978,390.998 h 24.938 v -1.061 h -24.938"
     fill="#5f8091"
     id="path216" />
  <path
     d="m 491.997,390.998 h 24.939 v -1.061 h -24.939"
     fill="#5f8091"
     id="path218" />
  <path
     d="m 88.487,297.646 c 0,0 -0.865,-21.612 -13.459,-33.108 -12.594,-11.497 -27.274,-14.504 -33.641,-4.599 -6.367,9.905 3.183,19.632 12.557,28.476 9.374,8.843 31.237,9.087 34.543,9.231 z"
     fill="#949e54"
     id="path220" />
  <path
     d="m 89.701,260.031 c 0,0 -23.199,-14.772 -31.865,-33.167 -8.667,-18.393 4.067,-32.012 11.319,-34.047 7.252,-2.033 22.816,0.204 27.592,20.486 4.775,20.283 -7.046,46.728 -7.046,46.728 z"
     fill="#477e72"
     id="path222" />
  <path
     d="m 125.364,236.741 c 0,0 -6.63,-12.999 -9.548,-30.774 -2.918,-17.775 6.897,-42.979 30.244,-39.796 23.347,3.184 16.62,32.166 5.571,45.102 -7.629,8.934 -26.267,25.468 -26.267,25.468 z"
     fill="#949e54"
     id="path224" />
  <path
     d="m 142.717,168.291 c -0.004,0.019 -27.92,91.282 -32.919,158.59 l 1.058,0.078 c 2.49,-33.552 10.708,-73.153 18.306,-104.354 3.798,-15.601 7.441,-29.104 10.134,-38.705 1.347,-4.801 2.456,-8.626 3.228,-11.251 0.386,-1.313 0.688,-2.325 0.894,-3.009 0.205,-0.684 0.313,-1.038 0.314,-1.039 z"
     fill="#344852"
     id="path226" />
  <path
     d="m 101.55,280.967 c 0,0 -2.172,-14.338 4.372,-29.726 6.544,-15.387 19.278,-16.803 25.469,-13.796 6.19,3.007 4.952,17.157 -1.769,27.239 -6.721,10.081 -19.088,14.254 -28.072,16.283 z"
     fill="#58a08f"
     id="path228" />
  <path
     d="m 101.731,325.668 c -10e-4,-0.007 -2.302,-18.321 -6.726,-42.125 -4.426,-23.806 -10.97,-53.095 -19.482,-75.087 l -0.99,0.383 c 8.468,21.872 15.011,51.126 19.429,74.898 2.209,11.886 3.888,22.404 5.015,29.949 0.563,3.773 0.989,6.802 1.273,8.888 0.284,2.086 0.427,3.223 0.428,3.226 z"
     fill="#344852"
     id="path230" />
  <path
     d="m 55.539,271.975 c 0.024,0.022 17.717,18.942 42.054,31.415 l 0.484,-0.944 c -12.069,-6.184 -22.518,-13.988 -29.944,-20.244 -3.713,-3.128 -6.671,-5.869 -8.699,-7.826 -1.013,-0.979 -1.795,-1.762 -2.322,-2.3 -0.264,-0.268 -0.464,-0.476 -0.598,-0.616 -0.134,-0.139 -0.2,-0.21 -0.2,-0.21 z"
     fill="#344852"
     id="path232" />
  <path
     d="m 123.735,247.299 c -0.001,0.001 -0.248,0.441 -0.71,1.239 -1.616,2.795 -5.841,9.944 -11.082,17.614 -5.237,7.668 -11.503,15.861 -17.141,20.712 l 0.693,0.804 c 6.601,-5.688 13.866,-15.633 19.513,-24.175 5.642,-8.54 9.648,-15.667 9.652,-15.674 z"
     fill="#344852"
     id="path234" />
  <path
     d="m 125.089,294.759 c 0,0 10.66,-54.214 34.334,-36.835 20.429,14.997 -13.22,40.101 -34.334,36.835 z"
     fill="#f17478"
     id="path236" />
  <path
     d="m 151.363,266.458 c 0,0 -0.054,0.09 -0.166,0.269 -1.67,2.692 -15.979,24.753 -38.643,34.391 l 0.416,0.977 c 24.575,-10.48 39.271,-35.055 39.303,-35.092 z"
     fill="#344852"
     id="path238" />
  <path
     d="M 111.073,315.338 H 84.101 c 0.28,22.867 4.19,45.735 5.955,54.96 0.472,2.47 2.635,4.252 5.15,4.252 h 15.867 15.867 c 2.514,0 4.677,-1.782 5.15,-4.252 1.765,-9.225 5.674,-32.093 5.955,-54.96 z"
     fill="#344852"
     id="path240" />
  <path
     d="m 84.101,315.338 c 0.079,6.456 0.447,12.911 0.975,19.059 8.593,-0.82 17.157,-2.175 21.045,-4.418 6.258,-3.611 22.194,-6.483 31.742,-7.951 0.092,-2.221 0.155,-4.456 0.182,-6.69 h -26.972 z"
     fill="#2d3d45"
     id="path242" />
  <path
     d="m 86.311,375.08 h 65.507 v -1.061 H 86.311"
     fill="#344852"
     id="path244" />
</svg>
